<mxfile host="app.diagrams.net" modified="2023-12-20T07:29:59.247Z" agent="Mozilla/5.0 (Windows NT 10.0; Win64; x64) AppleWebKit/537.36 (KHTML, like Gecko) Chrome/119.0.0.0 Safari/537.36" etag="p7pjmSV7f41P93WDRuts" version="22.1.11" type="github">
  <diagram name="第 1 页" id="-mNFjREOH8O3SDk-bA49">
    <mxGraphModel dx="1354" dy="820" grid="1" gridSize="10" guides="1" tooltips="1" connect="1" arrows="1" fold="1" page="1" pageScale="1" pageWidth="827" pageHeight="1169" math="0" shadow="0">
      <root>
        <mxCell id="0" />
        <mxCell id="1" parent="0" />
        <mxCell id="8VEX9xsHEz11RR5ykymF-2" value="" style="shape=image;imageAspect=0;aspect=fixed;verticalLabelPosition=bottom;verticalAlign=top;image=data:image/png,iVBORw0KGgoAAAANSUhEUgAAAqEAAAKwCAIAAAAnSjE3AAAACXBIWXMAAA7EAAAOxAGVKw4bAAAAEXRFWHRTb2Z0d2FyZQBTbmlwYXN0ZV0Xzt0AACAASURBVHic7N1/TBt3nj/+dz+31wTTKBBu0gVlXVzC3VyTxd3DPdtSPrVHibo2CqLS4naFtPU5+SfFqEHJHyarXaGI6kKko1JWUPxP63N1f6Q4fxxqNp4/WtlEXRm0QYqTPWl6IQ03QrCbCRcQ4BKdrvr88frm/Z0aPBjz0+b5+CMynpn3vGbG8cvv97zn/X7hpZdeYrub0+l86623jh8/Xl5e7vf7NU3LWiEcDldVVfl8vh0JDwAAYHf60U4HsLaDBw8eOnToT3/60+eff74ywZPp6eltjgoAAGCXK4IcL8uyLMsGK4iiGI/Hty0eAACAovDC7m+rBwAAgAL8n50OAAAAALYEcjwAAEBpQo4HAAAoTX/14osv7nQMsNt1dHQcOnRoYmJiZ8MIhUK/+tWvTp8+PTs7OzU1tbPBAADsfkXQr35zeTyerq4ueh2Px69evbqz8eweoVDIZrMJgsAYu3TpUiqVovedTmdra2smkzF+umGrdXR0eL3eRCKxvLzMYwMAAAPFkeNjsdjs7Oy5c+eSyaSiKOfOnaP3BUFob2+32+0mk0nTtJGRkf7+fuOixsfHe3t7GWM802+cPoxMJnPv3r2+vr5cj/JvnMfj8Xq9VquVMaZp2p07dzb+SyUUCnm9XkVR7ty5wxjTV9lTqVQ6nX7w4EH+peW6XhtRXl7OGLt8+fLGiwIA2COKI8fPzs6u+n57e7skSfF4PJ1Ou93u1tZWxphxmtc0jeqjm5jjz5w5I0nSjRs3JiYmrFary+U6ffp0JBLZrPL1fD5fMBhUVXVgYGBhYcHtdrtcruHhYUVRNlKszWZTVTVXMj5//vy6Sst1vTbi9u3bXq83EAhs0YkFACg9xZHjuUwmw1+LoihJUiKRoFqsLMvhcNjlclGOD4fDjLGZmRlJkhhjo6OjedatQ6GQy+WihoGhoaFYLMZ319nZKYpiJpOJxWI+n29kZIR2bbFYFEWh/cqyzGvVgUDA7/fr2717e3sdDofP59M0LSvCRCKhr6T6fL7m5maz2cwYS6fT169fp0LeeecdVVUvXrxIxyLLsiAI/LhyBW+8L8aYIAgrxxGiyj29zqqOG5yNXNeL6+joaG1t7e3tXVfjPx3+66+/nv8mAAB7XJH1q1dV9dmzZ/T6pz/9KWNsbGyML3306JEgCKIo0p9VVVWHDh3q7e2Nx+MOh6O9vX3N8gOBgNfrVVWVEl4wGPR4PLSos7PTbDZHo9FIJELN8nyrubk5URT5mtzNmzczmUxLSwt/p66uLp1O85RcVVVVXV0dj8cVRZEkKRAI0PtUWS8rK4vH44lEor6+/sKFC4wxj8cjCEIikdD/WOGvDYLPtS8Km1arrKyk106nkzYZHh7u7e2lWxtZDM6Gnv56cUeOHGGMVVdXr7rJSoIg+Hw+CuPu3bt5bgUAAMVRj5+ZmeEvVFWl16+++mrWaul02uv11tbWUsN1eXk5NTLLslxTU2O329fckSRJmqZRhVUUxXA47Ha7ZVkWRVEUxRs3blBD8dTU1JUrV/hWfX19fX19XV1dbW1tiUSCNyZrmnbv3r2Ghgb60+l0CoJw69YtvmF5eXl7e7umaYIgxGKxw4cP0/vNzc2aptEi2lB/g5yfjTyDN9hXS0sLr6k7HA6Hw8EYUxSFKs2KotCZzLqvYXw2WI7rxXV1dXk8nvwr8Y2NjcFgUNM0vkcAAMhHceR43rC8ri5X+uwyPT1NndSMmc3m0dFReq0oiqqqFRUVjLHa2lqm64mW1a9b07T33nsvEAhIkuT3+yVJ4m3pyWTS4XDQXeQ333yTMXbz5k19hLRa1k0Es9msr6zn2Y08V/AG+7p69So1sCeTyfyfMjA+GyyP67WuVnpZlsfHx0+fPu33+8vLy/EoBABAnoqsrV7v22+/zXqHsvjk5OQORMNYJBJ57733ent7zWbzxYsX6U1ZljVNo7vIx44d0zfUGysrK8u1KP9W7pKhaRrV4GtqanY6FgCAolHEOf7+/fuMMX0LvMVi0TSN9zCnDmuksrJyZf+vysrKrHdUVa2rq6PXoiiazea5uTnG2Pz8PGPs6NGjtIjfsV5JluWsCvTIyIjVavV4PGazOc/byaqqNjQ00KPqWYVnMpmmpqaViwyC33T5n41cVvZdWBPtBffjAQDyVxxt9atSFGV0dFSSpOXl5XQ6bbfbsyaZXVpaunbtWjwet1qtDoeDt2MTVVUdDkd3d/fy8vL+/fupVTmRSPj9/nA4/OjRI5vNxhhLJpOMsVQqpapqU1PT0tLS4uLiiRMn9EXR+ul0mjFmtVrNZrM+jC+//LK1tbWtrY39sKHewBdffBEMBqPR6NjY2PLyMmPs8ePHVJGNxWJ+v7+vry+RSMzMzBw4cODVV1+l5utcwRfM6XQePHiQXptMJkrMsiwbn4010cMF1dXV67q5Tnc6MPoNAED+ijjHM8b6+vra29tdLpfX69U0LeuO8uzs7PT0NPUXo2fn9NsODg5euHCBP0tGb0YikcOHD7tcLlEUNU0bGBjgd44HBwf9fr/f76enxfR39+fm5mw2G3VeWxmGoijpdNpqtebfUE/PvDU3N1N4jLFoNMojnJmZ8Xq9fr+fl79m8IXx+/38IQWz2Uxnkso0OBtromFoc/UcNLYVT94DAJSqkp0/np4I35QR1laiB9/pybH811/vE+HFYr1nozA0CLGmaQ8fPtzSYQQBAEpGcdfjt1MgEKDnzWpqaqxWq6Zpaza8ezwet9tdU1NDPd5LKcEXcDY2iM6e3W4vKyurqqpCjgcAWBNyfL7ofj9jTFXVPEfNs1qtDQ0NqqpudR13+xVwNjZOluVS+p0EALDVSq2t/r8qfrzTIQD8/16Z+/NOhwAAe1cRPzsHAAAABkqzrR6VJ9hxaFICgB2HejwAAEBpQo4HAAAoTcjxO8Pj8SSfC4VCOx3OrrDq/LwAAFCwUs7xsViMRsJJJpP0gmSl1XA4rF9aAEEQuru7b926lUwmY7FYR0fHmpuMj4/nmpp9U8K4detWb2/vqsPab5Zcp7dgLS0tWZPYAgDARpRyjt+2cU/b29slSRoZGent7X348GFra+uaaV7TtE1/2vvMmTOSJFF2HxkZaWhoOH369CaWnwXDygIA7HKl2a8+y8oZ53IRBOHMmTM2m43XgPXD14RCIZfLZTKZNE27desWvS+KoiRJiUSCxqiXZTkcDrtcrv7+fvZ8SN2ZmRkaeT7/4WL0+xoaGqIR7Gl3nZ2doijSQPE+n29kZIR2bbFYFEWh/cqyzMfMp7FmL126xCd0oVlhfD6fpmlZESYSCf2k7z6fr7m5mWbwS6fT169fXzkrzKqnt6Ojo7W1Nc/he0OhEI32z3Tz6NCw/zSELe397t27Pp/PZDLxIJPJpKIoNGIxranf46rXCwBg79gTOV5V1WfPnuWz5pkzZ7xebzqdvnPnDr3DUxrloXg8ThPM+P3+xcXFWCz205/+lDE2NjbGC3n06JEoiqIo0mwxVVVVz5496+3ttVqtXq+3vb1dn0RXFQgEvF6voig0g1wwGFxYWKDU1dnZaTabo9Ho4uLiyZMnTSYT32pubs7hcHg8nqy0evPmTZ/P19LSwo+lrq5OP0FOVVUVYywej1ssFkmSVFWldOjz+YLBIM2ys3//frvdfuHCBZ/Pl8/pPXLkCMt7qvvh4eF0Ou12ux0OB79/MTk5yZ7f1Ghra9u3b5/dbo9EIq+99pokSWNjY8a/HnJdr3ziAQAoDaWc4/nMZjMzM6qq5rOJxWJhjH344Ycrq9o2m210dJRX1i0Wy4kTJ2Kx2Kuvvpq1Zjqd9nq9tbW1lOPLy8vPnz9PW9XU1OgnvM9FkiRN06h6KopiOBx2u92yLNNPhxs3blAOnpqaunLlCt+qr6+vr6+vq6urra0tkUjwaqumaffu3WtoaKA/nU6nIAi3bt3iG5aXl7e3t2uaJghCLBajgegZY83NzZqm0SLacGJigm9lfHq7urpW/trIRVEURVFo8rqsTeimxttvvy2KIjVFUMOJ1Wo1LjzX9conHgCA0lDKOZ5Xl9esN3NfffWVKIqxWIzq0MPDw3zmVkEQBEHQz8jOFxnT57/p6el8pmGlOWz4XlRVraioYIzV1tYyxniizWo21zTtvffeCwQCkiT5/X5Jki5evEjpOZlMOhyOQCAQiURoInb9FDKqqtJqWb9szGZzIpHgb2btbs3Tu+ljy1MAiqK43e41Vy74egEAlIxSzvEFiMVi9+/fP3XqVH19PU1LPzAwwCt/o6Oj+pwxPz/PGPv222+zCqEsTk3N2y8SiUQiEbo5ffHiRT7p+9mzZ19//XXG2LFjx/Kfyb6srGxrw91Kq14vAIC9Yy/m+EwmQ23ypKqqSt9FnNqNGWPUcM0beDVNq6ioWFk3vX//PmPMbrfzRRaLRdM0XmukDmuksrJyZQ+1ysrKrHdUVa2rq6PXoijyaj1lqaNHj9Iip9OZ6xhlWW5ra6PaPxkZGWltbfV4PFQ7z7VhVhgNDQ2CIBQ2p1z+bfV6vB/DevHTQnJdLwCAvWMv5vh79+5R366nT59aLBb9zenu7u7l5WV6Tb8DHjx4QH8ODQ0Fg8Fr1659/fXXCwsLBw4cuH//Pv0gGB0dlSRpeXk5nU7TpKvxeJzvbmlp6dq1a/F43Gq1OhwO3ghPVFV1OBy03/3791O7dyKR8Pv94XCY+tyx573NU6mUqqpNTU1LS0uLi4snTpzQF0Xrp9NpxpjVajWbzfowvvzyy9bW1ra2NvbDhnoDX3zxRTAYjEajY2NjdFoeP36cZ+906rpfXV2df2/227dve73enp4e6vC4tLTU398vimJtbS11LfR4PPPz8/pbBtSfrru7mz3v3+d2uycnJxVFyXW9+LbUKS/Pnv8AAMVoL+b4vr6+ixcvNjQ00FNV8Xic56GysjJ6hIwxRovoUTTGGNXmm5ubg8EgYyyTyfT09PAC29vbqW2ftuLPrTHGZmdnp6enqc2cnp3TBzM4OHjhwgX+3Bq9GYlEDh8+7HK5RFHUNG1gYIDnocHBQb/f7/f76dk5/d39ubk5m81GD6GtDENRFMqI+TfU80Pm5yQajeazIWNsamqK6frl5SOVSkWj0aamJjoE+rHS0tLCH6vr6upSFEWf469fv75v3z5JkhRFiUajV65ccTgcT58+VRTF4HrpIcEDQAkrzfnjd8+8c/T0OfWQ33T04Lv+Cf581kfNlYTD4aqqqpWPAm6W3fZRBIA9aC/W44taIBCgZ9tqamqsVqumaWs2vHs8HrfbXVNTQ/f1keC56enpnQ4BAGALIccXGbrfzxhTVTXPUfOsVmtDQ4OqqvnX+PeCrG4TAAClB231AFsCH0UA2HGlPCcNAADAXoYcDwAAUJpK8348NZMCAADsZajHAwAAlKZS63O3g5xO55UrVzKZTFNT007Hsgn4xO3s+VTuOxvP1kkmk+s6wFAoZLPZBEFgjNFUeAXsdM3TSwP84UFHANiI0myrJ7FYbHZ29ty5c8lkUlEUGoiGRjBdufLGR4ZJpVLpdJqPfVtwhBuRq0BBENrb2+12Ow3tNzIywsfvy4UmbmeM8VS0cfowMpnMvXv38nn2b1ehz4+iKDTgrn6y3XVZ8/TSAH+rfiY3/WMDAKWqlHO8fqYZjkZIZYxVVlbS6PFPnz5lmzRNHM0Tn79VI9yIXAW2t7dLkhSPx9PptNvtbm1tZYwZp3mauJ1tao4/c+aMJEk3btyYmJiwWq0ul+v06dPF9ci+zWZTVXXjaXUjp3fTPzYAUKpKOcdz+qneZFmm71aPx+NwOJLJZFZVKRQKuVwuqu8ODQ3xiWVpVNqZmRkavF0//oy+bWBlvcrn8zU3N9Psc+l0+vr16ytbd1dORscY6+joaG1tLayBQV+gKIqSJCUSCWoQlmU5HA67XC7K8QbHZSzXiRJFsbOzUxRFGlHf5/ONjIzQri0Wi6IotF9ZlnkDNQ2yq2/3piltfD6fpmlZESYSCf2M9fmc3ixZERoc161bt7J+ggiCsHLkHN7wrmnaw4cP9SdQX9Wm1da8oPqPE58bd9X2/FU/NgAA3J7I8aqqPnv2LJ81A4EAtcTShG/BYHBhYYF/I1dVVT179qy3t9dqtXq93vb2dko2w8PD1Dywsk7m8/mCwSDNELN//3673X7hwoWVY6SvGuGRI0fY8+nU1ktf4E9/+lPG2NjYGF/66NEjURT5LK65jsuAwYnq7Ow0m83RaHRxcfHkyZM0ZRyZm5tzOBwr55y9efOmz+draWnh6bmurk4/d05VVRVjLB6PWywWSZJUVaXUm+fpzaKPMGvuPsqv1OBhtVr9fv/i4mIsFqO747ROZWWlx+NhjPFJ8CYnJynx19TUOByOnp6ejVT06ePkdrtpdkR6c9V2pvw/2ACwN5VyjueTns3MzKiqms8mkiRpmkZf0KIohsNht9vNE1J5eTm1xsuyXFNTY7fb6X0+5fzKHN/c3KxpWnt7O6Urp9Opv4NrHGFXV9d6p2BftcBXX301a7V0Ou31emtraynsXMdlINeJop8ON27coBw8NTV15coVvlVfX19fX19XV1dbW1sikeBVZE3T7t2719DQQH86nU79hL8UIZ1DQRBisRiN2M9yn159jzY9t9u9MkL93H02m210dJQ3eFgslhMnTsRiMf30dw6Hw+FwMMb4JHj8A8Cet74IglBwPwMqjaJa9eoX8MEGgL2plHM8r4yuWSvlaNYWeq0oiqqqFRUVfKn++3R6elqfGwwKTCQS/Os+qxl5zQjX20pfwCGzQo9r1RNFlV3+OybreDVNe++99wKBgCRJfr9fkqSLFy/SyUkmkw6HIxAIRCKRN998k/1wkntVVWm1rMSZ6/TyHm0rGUcoCIIgCLyFnI6OMXb16lVK/Kt2whdF8d1336UWF2q3aGxs3Lou8YVdZQDYg0o5x+8SZWVlOxvAt99+m/UOZfFN6WZYgEgkEolEqKp98eJFqnDLsnz27NnXX3+dMXbs2LH8J7lf9fTyHm0FGB0d1ef4+fl54/UFQfjoo4+Wlpaop31lZSV1DgAA2HEYA+cHVFWtq6uj16Ioms3mubk5vlT/3V1ZWZlPjydVVRsaGuhZ6gLQfd8Nun//PmNM3wJvsVg0TePNy2seV2VlZdY7uU4UZcSjR4/SIqfTmSsqWZazmklGRkasVqvH4zGbzXfv3s3n0Ao4vcYRappWUVEh66zZg6+xsdFkMn3yySdU1//mm29yrcl3mmXl6eVojkEAgMKgHv8DiUTC7/eHw2HqSsZ0HZsZY0tLS9euXYvH41arlZ67o/edTufBgwfptclkosRM9cgvvvgiGAxGo9GxsbHl5WXG2OPHj/N8Woz6lldXV2/w6TJFUUZHRyVJWl5eTqfTNDutvnN4ruMiqqo6HI7u7u7l5eX9+/dT+3CuE5VKpVRVbWpqWlpaWtmjjdan/olWq9VsNuvD+PLLL1tbW9va2tgPG+oNFHB6jSMcGhoKBoPXrl37+uuvFxYWDhw4cP/+ff5jaFX0o8HtdjPGqqurqSnC7XZPTk4qikJ997q7u9nz7pN8kcHpZYzdvn3b6/X29PRQ88DS0tKaQxoQ6ja48fEeAKAEIMf/QCQSOXz4sMvlEkVR07SBgQH9F+Xs7Oz09DS1LdMzZvS+3+/n9S2z2cwbnxlj9GhWc3MzPffFGItGo3kGMzU1xXQdrDair6+vvb3d5XJ5vV7qha6/o5zruMjg4OCFCxf4c2v0psGJGhwc9Pv9fr+fnkzT392fm5uz2WzUeW1lGDwj5t9QX9jpzYqwvr5+ZYHBYJAxlslkenp6jEtLpVLxeNzlcjkcDlVVBwcH6afS06dPFUW5fv36vn37JElSFCUajV65coUv4sGsPL1UbDQabWpqotPFx3XIExI8ADCMZZs/ekq79MYU29Ljogffo9Fonk0RtD7qoBsRDoerqqrWfIAQAPYC1ONhkwUCAXq2raamxmq1apq2ZsO7x+Nxu901NTXUXR8JfoOmp6d3OgQA2BWQ42GT0f1+xpiqqnmOmme1WhsaGlRVzb/GD7lkdbYAgL0MbfUAAAClCc/OAQAAlCbkeAAAgNKEHA8AAFCakOMBAABKE3L8uoVCoVgslkwmk8kkjYQaDofpKfNdJZlMhkKhnY4CAAB2TCnn+FgsRqk3mUzqc3DWn6FQSD9grTEaKHR2djYej8fjcf1EsesVDoeTz8Visd7e3oKHtd9V6Ij4SPub8gMo16UsWCgUogg9Ho8+WgCAUlLKz8fPzs7ms1plZWX+U33bbDZVVTdrVDhN02g08pqaGofD0dPTUzLj6NF08ptVWp6XMk9Op9Pr9S4tLW1imQAAu1Ap53jOeIK4urq6hw8f0mua8JQxpmnaw4cPV47fIgjCmgOMfPbZZ5lMhrK1cYGzs7N8wPbu7m5JkkRRrK2tpU3S6fTdu3d9Pp/JZEokEny2klAo5HK5TCaTpmlDQ0M0xDpjTBTFzs5OURRpGHZ9SMlkUlEUfUj68WJ9Pl9zczPNPpdOp69fv84nW9Pv69atWzRADT+oXBHSPCuCIGSdvVxh0OtEIiFJUjqd/u///m9JkvQFcqteyo6OjtbW1vxHwKUhejbSBgMAUBRKua2eU1X12bNnqy4KBAKCIPC2+snJSWqEn56epoo1vS+KosfjoRbdyspKer3qxKmCIJjNZj6RTK4CVxobG2OM1dbWjo+P9/b2qqq6b98+u90eiUQo+dHeA4GA1+tVVZV+agSDQd7O3NnZaTabaag4mv0sHz6fLxgMlpWVxePxRCJRX19/4cIFWkQ3JkZGRnp7e+/cueP3+2kUdOMIGWP/8R//oarq6dOn84yBHDp0iOa+U1VVURQ+zYzeqpfyyJEj7PmsbvmgXzMYMRcASl4p1+N5op2ZmVFVdeUKHo/H5/Ol02n+da8oCp8QjGqHVBltaWmh6b8YYw6Hw+Fw0MorJxdvb29nzxO2QYErg6HJScfHxzVNk2X57bffFkXx0qVLqVRKFEVJkqxWqyzLkiRpmkZVYVEUw+EwtYqLoiiK4o0bN6iqPTU1pZ/wzUBzc7Omae3t7RSV0+nkFVybzTY6OkotDbIsWyyWEydOxGIx4whpW8r66xqYdnp6Op1Oe71emtROP3W68aXs6uryeDz55+zq6upVPw8AACWmlHM8b+ld2eRbVVV17do1yoKDg4P8fVEU3333XaoRmkwmxlhjY6Msy1evXqVUl0wms2ZE5QWGQiGLxSKKon5WlVwF6rdijNGGK+dUpd8QiqLQLwDGGM3aQq8VRVFVtaKigjFWW1vLdO3PK3985GI2mxOJBN+vfkNBEPSNHLTHrM1XRkhu3rzp9/tXbeoogMGlJOuqlNM12oSwAAB2t1LO8QYEQfjuu++ortnS0kKpSxCEjz76aGlpifrBVVZWUqNungXyij5PimsWyLeiydQ//fTTzTm8dSorK8u1aHR0VJ/j5+fn8yxT07TR0dGWlpYNxrbp+M8OurNw9OhR+jdX+woAQPHaozme9/wqKyvzer3Dw8OKojQ2NppMpt/97ndUKQwEAtQmn3+BgiBEo9GzZ89SCWsWyMPIn6qqdXV19FoURV6tp+xLGYvpMtlKfB1eYENDw6oZTtO0ioqKgu9bJ5PJDz74YGlpadVe8VlhbFD+bfV0C4DfcCGtra0TExO4Qw8AJWaP5njuX//1Xx0Ox/vvv3/+/HlKk9TmXF1dTd3W3G735OTkyjbqVVHn89bW1lAodPXq1cIKpK711LDv8Xjm5+f17eeJRMLv94fD4UePHtlsNva82SCVSqmq2tTUtLS0tLi4eOLECX2Z6XTaarV2d3ez533TeBhffPFFMBiMRqNjY2PLy8uMscePH9N99KGhoWAweO3ata+//nphYeHAgQP3799XFMU4Qk6W5bNnzwqCwHN8rjDyObcGent7HQ5HdXV1Prf/I5GIfrWVTxmw550N8++oDwCwO+31HK8oSjwe93q9VBGMx+Mul8vhcKiqOjg4aLVaHQ7H06dP88zxjLH+/n6Xy+VyuT799NNUKlVAgfr+fV1dXVk9+6g/msvlEkVR07SBgQGehwYHB/1+v9/vp2fn6uvr+VbXr1/ft2+fJEmKokSj0StXrvAw6Cm75uZm3o89Go3SC74oGAwyxjKZDD0XYByh3sjISGtr65phpNPpPE/vqqamppiuX95mQYIHgGKH+eMBsoXD4aqqKnpQEACgeO2J5+MB1mt6enqnQwAA2CjkeIBsoigixwNACUBbPQAAQGlCPR4AAKA0IccDAACUJuR4AACA0vRXL7744k7HAEWso6Pj0KFDmKcVAGAX2utj4BQgFArZbDZBEBhjNOtaOBxmjK13VNpNDyOfRZvL6XS2trZmMhkMFwMAsAuVco6PxWKzs7Pnzp1LJpP6keGz/qSBS7OmTcuFVlYUhaaZ2Uj9NRwO8+lTNU27c+fOyunsCghjEyMUBKG9vd1ut5tMpkwmc+/evb6+Pv2w9qlUKp1OP3jwoOBd6OW6XoWhGf+OHz8uCMLKqQJDoZDL5TKZTJqmDQ0N0Yh+G1kEALALlXKOX3UqlJUqKyvzn3DMZrOpqrpZVXZK7Ywxi8Xi9XqXlpb6+/s3GMYmRnjmzBlJkm7cuDExMWG1Wl0u1+nTp7PGhD9//vzGd0TyvF55amlpsdvtqqpSe4ZeIBDwer3xeJymqw8Gg1NTU9TaUdgiAIDdqZRzPJfJZAyW1tXVPXz4kF7TDCWMMU3THj58mFVtZYxRpdB4d5999lkmk6Esa1zg7Owsr18mk8ny8nL+mldkV500xSCMXIv0ddBbt25RqubhpdPpu3fv+nw+k8mUSCRomnaLxaIoCv3skGVZXxWm1gJ6nVXn1rdPEH01etUwsqx6vTo6OlpbW/OfJ2Z4ePjq1av8APWamppUVaWQxsfHM5xjUwAAIABJREFUo9FoS0sLZevCFgEA7E57Iserqvrs2bNVFwUCAUEQPvnkE/pzcnKSEmRNTY3D4ejp6aHsRTOt0TqVlZU09fiq860JgmA2mxOJhHGBpKqqKhQKMcYsFoumacPDw8YHYhCGcYSUkqkOarVa/X7/4uJiLBYbHx/v7e1ta2vbt2+f3W6PRCKvvfaaJEljY2OyLM/NzTkcjlWnbR0eHqaJZFZm0LGxsUePHtHrY8eOmc3mb7/9lv7MFUZWCateryNHjrDns9Xlw2DWH/4zyOl00nx9NTU1G1kEALA7lXKO5xORzczMqKq6cgWPx+Pz+dLpNM9hiqLw3EAVR5pYXT/TGp96fNX51trb2xljY2NjxgXSO4IgULGapo2MjKzZWG0QhnGENpttdHSU6qCyLFsslhMnTsRiMU3TZFl+++23RVGk3nmiKEqSZLVaZVnu6+vr6+vr6upqa2tLJBL6Ojc/rpU5nq9Gjdujo6M8i+cKg5YaX6+urq78J4k34HQ66UV3d7ckSTTJntlsLngRAMCuVco5nhqc9S+4qqqqa9euWa1Wxtjg4CB/nzpqUWWR5kdvbGykZmrKTMlkcmUHLva8Rm6xWERRHB0d5akoV4G0lLdyi6LY2dn5j//4j++9957BERmEYRyhIAiCINBM83zXWYXTrwFFUXj3Q03T3nvvvUAgIEmS3++XJOnixYt59l1wOp30+0n/I8A4DIPrRTal9/7Bgwf1fy4uLm5wEQDArlXKOd6AIAjfffddIpGQJKmlpYUyjSAIH3300dLSEvWDq6yszL+ixmvkjDGew/IvUFGUf//3f9+squqqRkdH9cl1fn4+zw0jkUgkEqEb2xcvXlxZcV/J6XT+9re/ffLkyYcffrhZYWwWWZbpEC5fvkw/Jk6ePEnNBoUtAgDYtfZojucV6LKyMq/XOzw8rChKY2OjyWT63e9+R1k2EAhQi3f+BQqCEI1Gz549SyWsq8Bcd5qPHj263qNbSdO0ioqKjfx6kGW5ra2toqJizTUFQXj//feXlpZWVvo3GMZm/QDSNO3YsWP0mvpP3Lt3byOLAAB2p704zt0//dM/PXny5ObNm4yxqamp06dP/+QnP5FlWRCEU6dO/ehHP/rRj370f//v/3399dd//OMf/+hHP5qamnry5AnfdmJi4g9/+IO+wNOnTzPGbt68mclkKisr33jjjZdffvkPf/iDcYGnT5+uqqp69dVXT5w4cerUqbfeeut//ud/Pv7440wm87Of/ez48eOvvPKK2+2uq6v7m7/5m3zCMF7U1NT0s5/97MCBA2az+Wc/+9n333//5MkTURRtNts//MM/HDx48M9//rMgCFNTU3yTcDh87NixAwcOHD169Be/+IXNZvvjH/9IJTudzuPHjx89evTEiROZTOa77747evQoPYt/5cqVv/u7v5uYmKClJ06cOHDgAH9Mf9Uw8rlqvb29v/zlL1944YW7d+/ms34gEPj5z3/+93//90eOHPnf//3fY8eO/e3f/i1t+/LLLzudzpdffvnAgQNnz579yU9+8m//9m8UYWGLAAB2pz1aj+cURYnH416vl+qI8Xjc5XI5HA5VVQcHB61Wq8PhePr0qUEn7Sz9/f0ul8vlcn366aepVMq4QH0LP61AFd/r16/v27dPkiRFUaLR6JUrV9YbRhbq19bc3BwMBhljmUymp6eH/bATX1dXV1Yvwrm5OZvNxnsF6m/z+/1+/oCc2WymdmyqZO/bt48xZrVaqbsDoUW5wsgH/fjg/fLWZLfbeYSiKIqiqCgK9Qfs7+8vLy93uVxer1fTtIGBAd48UNgiAIDdCfPHAwAAlCbMOwcAAFCakOMBAABKE3I8AABAaUKOBwAAKE3I8QAAAKUJOR4AAKA0FcHz8T6f7+TJk4yxsbGxVaciBQAAgJWKYJy777///uWXXzaZTD//+c+/+eYb/UBsAAAAkEsR1ONpGlOPx2O1WrOm/wIAAIBciuZ+vN1uz2Qy4+PjOx0IAABAcSiaHF9dXa2qap6TlwMAAEAR3I8njY2Nb7zxxiuvvFJWVobJvgAAANZUNHPSCIJw5swZl8tlMpncbvdOhwMAALDbFU2Ov3btWn19fSQSoflJAQAAwFjR3I/ft2+fqqpI8AAAAHkqmhw/NzcniuJORwEAAFA0iibH01NzHo9npwMBAAAoDkWT4wEAAGBdimCcO6fT+dZbbx0/fhxj4AAAAOSvCHL8wYMHDx069Kc//enzzz/HGDgAAAB5Kppn5wAAAGBdcD8eAACgNCHHAwAAlCbkeAAAgNKEHA8AAFCatrVfvc/nO3nyJGNsbGwsEols564BAAD2mm2dW/b7779/+eWXTSbTz3/+82+++WZqamrbdg0AALDXbGs9XlEURVE8Ho/Vaj148OB27hoAAGCv2YH78Xa7HSPWAQAAbLUdyPHV1dWqqmLEOgAAgC21rffjSWNj4xtvvPHKK6+UlZVNTExs894BAAD2iB0Yy1YQhDNnzrhcLpPJ5Ha7t3nvAAAAe8QO5Phr167V19dHIpFYLLbNuwYAANg7duB+/L59+1RVRYIHAADYUjuQ4+fm5kRR3P79AgAA7Ck7kOPpqTmPx7P9uwYAANg7MF49AABAadrWce6cTudbb711/PhxjIEDAACw1bY1xx88ePDQoUN/+tOfPv/8c4yBAwAAsKV24Nk5AAAA2Aa4Hw8AAFCakOMBAABKE3I8AABAaUKO30OcTmc4HHY6nTsdCAAAbAfk+M0kCEIoFNq1o/gdPHhQFMWDBw/udCAAALAdNifHJ5PJUCiUz5qiKJbwCHdnzpzxer3vv//+TgcCAACw7fX4lpaWrq6ubd7ptrl9+7aiKPF4fKcDAQAA2N4xcEpeKpVKpVI7HQUAAABjBed4URQ7OztFUcxkMlmzxHo8Hqqpa5r28OHDvr4+GtIuFAp5vV5aJ5lM0ot4PH716lWDrYwJgnDmzBmbzSYIAr0TjUYjkUggEPD7/ZcuXeIZt7e31+Fw+Hw+TdPC4TBjbGZmRpIkxlgikbh8+TIv0+fzNTc3m81mxlg6nb5+/Xo+aZsfkf6gDCKk16FQyOVymUwmTdOGhob4mTSOkDHW0dHR2tra29sry/KasQEAwN5UYI7v7Ow0m83RaHRxcfHEiRP6RZOTk9RYXVNT43A4enp6zp07xxgbHh5Op9Nut9vhcPT29vKVjbcyRve/0+n0nTt36B3Kxzdv3vT5fC0tLTw919XVpdNp/ruhqqqKMRaPxy0WiyRJqqpS3vX5fMFgUNO0eDy+f/9+u91+4cIFn8+3ZiT8iLLuROSKkDEWCAS8Xq+iKI8ePbLZbMFgcGFhgefsXBGSI0eOMMaqq6vXDAwAAPasQnK8KIqiKN64cYOyztTUlNVq5UsVRVEUhV5TdVMQBE3T6H1ac2XtM9dWvH6fxe12M8YsFgtj7MMPP8yq9Guadu/evYaGBvrT6XQKgnDr1i2+Qnl5eXt7u6ZpgiDEYrHDhw/T+83NzZqm0SLacGJiIp9zwo8oK9pcETLGJEnSNI1+yoiiGA6H3W43LydXhHwvHo9n45V449MLAABFrZAcX1tbyxjjyS+rKVsUxXfffZeqmCaTiTHW2Ni4ZjbKtdX4+DivIq/01VdfiaIYi8WoNjw8PMx/KCSTSYfDEQgEIpHIm2++yRi7efMm31BVVUq6WanXbDYnEgn+5sZvrhtEaDabR0dH6bWiKKqqVlRUrBkhtymt9ManFwAAitom97kTBOGjjz5aWlqipunKykq6sV3wVpqmGSSzWCx2//79U6dO1dfXu1wur9c7MDBAd7VlWT579uzrr7/OGDt27Ji+od5YWVlZPqvlySDC3cD49AIAQFEr5Nm5+fl5xtjRo0fpT/24aY2NjSaT6ZNPPrl69erVq1e/+eabVUvIGiUmz61WpShKf3//+fPn/X4/Y0zfOWBkZMRqtXo8HrPZfPfu3XxKU1W1oaGB949b1Xqf788VoaqqdXV19FoURbPZPDc3l3+xJTzMAAAAbIpC6vGpVEpV1aampqWlpaw+d5T+6W5udXU1VaPdbvfk5CS1Ud++fdvr9fb09FCVfWlpqb+/f82tcunu7l5eXqbXdOf7wYMHfOmXX37Z2tra1tbGfthQb+CLL74IBoPRaHRsbIxKfvz4sb6zG/XPr66u1r9ZWISJRMLv94fDYepzx37YOd/YesMAAIA9qMC2+sHBQb/f7/f76dm5+vp6ej+VSsXjcZfL5XA4VFUdHBy0Wq0Oh+Pp06eUrVOpVDQabWpqoufo0ul0PlvlUlZWRk+XMcaoM3x/fz9fqihKOp22Wq35N9RTK3pzczMvNhqN6leYmppijM3MzKy6+coGAIMII5HI4cOHXS6XKIqapg0MDOTfbG4cBgAAAGPshZdeemmnY9hC9KD8tj1HTk8E7Ko77nrUix5P1QMA7BGlOc6dx+Nxu901NTXUd32rU1ogEDCbzXV1dWazWVXV3ZngAQBgr/mrF198cadj2Hy/+MUv7Hb7kydPfv/73//Lv/zLVu/u3Llzb7zxxszMzB//+MerV69mMpmt3mNh5ufnv/322/Hx8V0bIQAAbKISb6sHAADYszB/PAAAQGlCjgcAAChNyPEAAAClaWf61YdCIRoQJhqNYsJ1AACArbAD9fiOjg6v1zszM/Po0SMkeAAAgC2yA/X48vJyxtjly5e3f9cAAAB7xw48H//999+fOnXqhRdeyHOeGAAAACjADrTVU/s8TTwDAAAAW2Rb2+oFQXC73Y2NjYwxVOIBAAC21Lbm+MbGxmAwqGnajRs3MCkqAADAltrW+/ETExO///3vX3jhhba2tpdffvkPf/jDtu0aAABgr9nu+/GaplENvqamZpt3DQAAsKfsQJ87p9PJcD8eAABgi+1Ajn/zzTfZ8971AAAAsEV2bLz62dnZndo1AADAXrADY+AcOHDgxIkTkiQ1Njam0+lMJrPNAQAAAOwFO5DjJyYm/vznP7/44ot//dd//Z//+Z9PnjzZ5gAAAAD2ghdeeumlnY4BAAAANh/mjwcAAChNyPEAAAClCTkeAACgNCHHAwAAlKYd6Fe/zTo6Og4dOjQxMbHTgexRPp/vgw8+GBsby/MhSVyvPG3kRK33omxRGNtj90dYmFI9Lthc2zrv3PZzOp2tra2ZTEaW5Z2OZdOIolhbW7vyiMLhMGPs3LlzOxFUTu+888709LSmaR6Pp6uri96Mx+NXr15duXJJXq+NCIVCNptNEATG2KVLl/jokBs8UfyiGKyz/dcr1wd790S4PUr1uGBHFEeOj8Vis7Oz586dSyaTiqLwNLZmVkulUul0+sGDB9sU6HqEw2FRFOm1pmkPHz7s6+sz/tolLS0tXq93vf+3c53DguVToM/nEwThk08+YYyNj4/39vYyxvj310q7+Xptv1Ao5PV6FUW5c+cOY0xfY9vIidJfFAPbf73W+8Eu1U/UFh3Xpn8DQFEojhy/kYFvz58/v4mRbC5N0+jru6amxuFw9PT0bN1/vE0fPDifAk+ePKmqKn1ra5pGLwy+udjuvl7bzGazqaqa6yNR8InSXxQDu/967f4IC7NFx4Xhw/em4sjxXP63D6kORK9X/mj1+XzNzc1ms5kxlk6nr1+/zltBQ6GQy+UymUyapt26dYtmwmXP2wxmZmYkSWKMJRKJy5cv0yJBEM6cOcPbVBlj0WiUb5irQMbY7Owsb4jr7u6WJEkURUVReGNdVv1ef1DJZJJeZLXmUTlZEa55Djs6OlpbW3t7ewto+st1UZxOpyiK0Wg0n0KK4noZyDPCoaGhWCy2ZoQ8zng8nv+JEkWxs7NTFMVMJhOLxXw+38jISFZL76oXxSD4XIyv13ovSj4f7PUq9k/Uph8Xh+HD95Qiy/Gqqj579iyfNYeHh9PpNFvtt7DP5wsGg5qmxePx/fv32+32Cxcu+Hw+9vz/TzweT6fTVqvV7/cvLi7yL+WqqirGWDwet1gskiSpqkr/Xc+cOeP1etPpNFXKmW5WPeMC9cbGxiRJqq2tVRRlcnKSvtyz6vd0UG632+FwUGseY2xycpIXUlVVNTc319vb63a79RGueQ6PHDnCGKuurs7n3OZTIGOspaVF07Q8v9GK7nrlGWEgEKD29kePHtlstmAwuLCwwH9IrRoh3ZamFSorKz0eD2Nsfn6egjQ4UZ2dnWazORqNLi4unjx50mQyrQx15UUxCN6AQRgFXJQ1P9gFKOpP1KYfl17+36JQAoojx8/MzPAXqqrms4miKIqisNX+JzQ3N2ua1t7eTpVjp9PJ73TabLbR0VGqPciybLFYTpw4wf9DlpeX01aCIMRiscOHD9P7FouFMfbhhx+uvJtuXKCe2+1mjI2Pj+uDZ89r2IIgaJpG71utViptZSHl5eV0vLIsJ5NJHiFb6xx2dXV5PJ51VeKNCxRF0eFwrKyG5lJ01yvPCCVJ0jSNfqKJohgOh91uNz/Pq0ZIt6VpBYfD4XA46PxQ2sh1okRRFEXxxo0blHWmpqauXLmSFeeqF8UgeAMG16uAi7LmB7sARf2J2vTjYgV9i0IJKI4cz9vEVm18Xi+z2ZxIJPj/Rn1bliAIgiDw1kLGGM+1jDFVVWmrrP/JX331lSiKsViMqmvDw8N8K+MCq6qqQqEQY8xisYiimE6nqWRRFN99912qVVNtrLGxMZ/vPoP/umuew/V+txoX2NLSkslkPv3003WVuardc70KiNBsNo+OjvKiVFWtqKgwjvDq1auUEpLJZP7t1VT159/pqza2r3pRDIIvTGEXZTvt/k9UYYwv5eZ+i0KxKI4cv+nKyspyLRodHdX/h5yfn1+ztFgsdv/+/VOnTtXX17tcLq/XOzAwwH+qGxQoCALV2Kh5jb58BUH46KOPlpaWqN2vsrKS7q4VEUEQXC7XvXv3Nut7fJdcr8Ii3CUMLsqmB1/YOdxOu/8TVZjd/zmEbbYXc7yqqg0NDdT6nbVI07SKiooCWgt5Axo14vHmOOMCV32CpbGx0WQy/e53v6OtAoEAtdZmod55643TwHrb6g2cPn3aZDL967/+a64VKisr8y9t91yvAiJUVbWuro5ei6Kor9ZvLsocR48epT+dTmfWCrkuikHw3LquV8EXhRT2wS7qT5TBf73NOi7Ys4o+x/Pmbo7aNp1O58GDB+kdk8lEHZfoP9IXX3wRDAaj0ejY2Njy8jJj7PHjx3QXc2hoKBgMXrt27euvv15YWDhw4MD9+/fX/Mbp7u6mctjzO3P8udUCCqQva7o9X11d/frrr9Ofk5OTtOHt27e9Xm9PTw9V9JeWlvr7+9dxylbT29vrcDiqq6s32OmXNDU1pdPpXIepqqrD4aCTtn//fmo5LN7rZRxhIpHw+/3hcJj63DFdv/HC5DpRqVRKVdWmpqalpaXFxcUTJ05kbZjrohgET9Z7vQo7h2wDH+yi/kQZ/NfbxONaE/UNLOzJGtjNij7H8+ZujnK83+/nI8yYzWbeE40xRr+vm5ub6RkYxhh/lIgvCgaDjLFMJtPT07NmDGVlZbwoanXn300FFJhKpeLxuMvlcjgcqqoODg5arVaHw/H06VP6akilUtFotKmpiQ6cOtlu0NTUFNP1ytmINYdYGRwcvHDhAn8Aid4s3utlHGEkEjl8+LDL5RJFUdO0gYGBDX6HGpyowcFBv9/v9/vp2TnqwkYMLopB8KTg67Wuc8g28MEu6k+UwX+9TTyuPCHBl54XXnrppZ2OAUpKOBw2mUzvvffeTgeymfTDi+pRc8suFAgE/H4/f0q7eC9K0Z35IhUOh6uqqtZ8ZhKKTtHX42FXEQTh0aNHm9K0sKvw4UV3s0AgQE9z1dTUWK1WTdNu3rzJivyiFMWZLw3T09M7HQJsPtTjAUoEnwFBVdXp6ek8pz8AYOt8UBOKCHI8AABAafo/Ox0AAAAAbAnkeAAAgNK06/rc/VfFj3c6BIAS98rcn3c6BADYDqjHAwAAlKZdV48nW13PoOk7d9WAD5vVr9XpdF65ciWTyTQ1NeW5yTafDZpJL5FILC8vox/vNkM7GcCesktzfJZYLDY7O3vu3LlkMqkf452GBaXpH7q7uyVJWnUE+JVo+s7Nymr8mSW9nRqjI5VKpdNpPpRmPgzORq4zvxHl5eUMk18BAGy94sjxs7OzuRZlMpnGxsZYLFZXV5fJZLYzKj1N02iQ7d3g/Pnzm1WUwZkvGA1LHggENmVsfAAAyKU4cjy3Mos/ePCgrq5OEASz2RyPx2lCCBIKhVwul8lk0jTt1q1blFFo6gVagc8OQo3kfNTMdDp99+5dn89nMpkSiQSvceoLHBoa4nNHMsZmZ2dXbXYOh8OMsZmZGT7oNC9NFMXOzk5RFGl0cYOtRkdH9eOZ5ApDf2hZde5cYRicjTXPPHve6r7eeSxoWmuaawcAALZOkeV4VVWfPXumf2d6erq+vv7MmTNZc0NR9orH4+l02mq1+v3+xcXFWCw2PDycTqfdbrfD4eBjZE5OTrLno2a2tbXt27fPbrdHIpHXXntNkqSxsTFZlgOBgNfrVRSFJhALBoMLCwv55LaqqirGGP3+kCRJVVX6tdHZ2Wk2m6PR6KqzhFVVVT179qy3t9dqtXq93vb2dsrKBmHQoTHGVh3fe9UwDM7GmmeeMXbkyBHGWHV19ZongQiC4Ha7GxsbGWN3797NcysAAChMceR4PinTzMyMqqpZSx88eOByuW7dukU3eonNZhsdHaX6qCzLFouFZnSmaZ5pSq6sDK1pmizLb7/9tiiKly5dSqVSoihKkmS1WmVZliRJ0zSqHIuiGA6H3W43L0E/xW3WfI7l5eXt7e2aptHE0jSiuCiKoijeuHGD1pyamtLPEkZbUZO7LMs1NTV2u53eNwiDz2C9ao5fNQyDs5HPme/q6lrXrPONjY3BYFDTNH7gAACwdYojx/P27VU7aj148MBqtY6Pj7/55pv8TUEQBEHQz9WdzwzWHLUnK4rCu86ZzebR0VFelKqqFRUV+t3p28mzpt+mZnb94OG1tbWMsYmJCf3u9PQJdXp6mv8CMA7DwKphrMn4zLN1TkYpy/L4+Pjp06f9fn95eTk61QMAbKniyPHG+vv7abZmfY5njI2Ojupz/Pz8/NbFsFl9zkuepmmRSMTv99fU1Ox0LAAAJa4UcvyqNE2rqKgwrmWKoph/5V5V1bq6Or6hvj5dAPrBcfToUfrT6XRmrWA2m/nryspK3uVtc8PQW9fZ4NbVVk/oYHE/HgBgq5Vsjh8aGgoGg9euXfv6668XFhYOHDhw//59nsPo8a2enh564G1paam/v5+GgjGZTIwxj8czPz+vb0JPJBJ+vz8cDlNnN6briM5+eD+eGDdEp1IpVVWbmpqWlpZW7XO3tLR07dq1eDxutVodDgdP5AZhOJ3OgwcP0muTyeTxeFh+bemrno01t2KM9fb2OhyO6urqdd1cp+aWlbcnAABgc5Vsjqcnypqbm4PBIGMsk8n09PTwpalUKhqNNjU10U106o5OQ8HQCl1dXYqi6PNQJBI5fPiwy+USRVHTtIGBAX361N+PJ2vebB4cHPT7/X6/n56dq6+v1y+dnZ2dnp6m3nP07NyaYfj9fj4Uj9lspm3zyfGrno18TE1NMV2/vHXZiifvAQBAb9fNH09jbe7xOTPocfZSvcFP4xBomvbw4UP9c/+wDfD/C2BPKdl6POxa1LRgt9vLysqqqqqQ4wEAtghyPOwAWZZ31YRAAAAlCTl+NyrVVnoAANhOmD8eAACgNCHHAwAAlCbkeAAAgNKEHA8AAFCakOM3XzKZzBrzLp9FAAAAmwv96rPFYrHZ2dlz584lk8mVM8189tlnNET8qvO37mbGx7WJBYqi+O677x4/flwQhHg8njXeXygUcrlcJpNJ07ShoSEajtCYQYGFLTLgdDp/+ctf1tfXm0ymTCYzNjbGJ9yjRTQB4KYET2MB6Vfu7e2lRwoFQbh48WJDQ8PKMNgWXEoAKFXI8dkMxlilOWAUReGzwhSRTR87NleBLS0tdrtdVVVBELIWBQIBr9cbj8fT6bTX6w0Gg1NTU2sOXG9QYGGLDPj9fsZYLBabmZlxu92SJKmqSqPx//a3v33y5Ek0Gp2ZmaHg9TMgFBA8uXHjBp9ieHx8nF709PSYzWYKw2q1er3e5eVl/vsAwwADQJ6Q43PiU71xp06dymQy0Wj0ypUrTqeTJydRFDs7O0VRpJHn9ZvkWsTrcOl0+u7duz6fz2QyJRIJXl3T13dv3brFJ30RBOHMmTM2m43njGg0SksNFhkfF2Oso6OjtbWV1yM3cqKGh4evXr26spLKGGtqalJVlXLV+Ph4NBptaWlZM8cbFFjYIgP6OvH8/LzD4VhcXKQ/L1y4wDP65ORkOBw+derUmjl+zTAmJiayzrkgCKIoJhIJunayLB87duzYsWMrt131UgIAcMjxOamq+uzZM/079fX1Dx48SKVSmqa9+eabPDl1dnaazeZoNLpyBrlci8bHx3t7e9va2vbt22e32yORyGuvvSZJ0tjYmCzLoVCI13etVqvf719cXKSfCGfOnPF6vel0muaIY7oJ3AwWGR8XY+zIkSOMserq6o2fKIO0R+3VjDH6haSqaj6zyBsUWNiiNYmi6HQ6m5qaEokE/2WmL7CysjLPotYMw263U/v/7du36Xo1NjYyxpaXl/k6mUyGzzakt+qlBADgkOOz8VnUZmZmVFXl7wuCYLVab9y4wRh7+PAhr1eJoiiK4o0bN6jWNTU1RV/Zxos0TZNl+e233xZF8dKlS6lUShRFSZKsVqssyzabbXR0lOq7sixbLJYTJ05QsrFYLIyxDz/8cOUw7waLDI6LdHV1rXcmeOMCV6Jp4xlj3d3dkiRFo1HGmNlszn+P24PXuRVFGRsbW3Udmh73yy+/3MiOjh49yhirq6tBkDqAAAAgAElEQVTLZDJVVVVer3dgYCAWi8my/MEHH1gsFkEQNE1zOp1ZZ2m9Zx4A9izk+Gy8tVzfy4kx5na72fOv9W+++cbhcIiiqChKbW0tY4zfUtVXnQ0W6dH7iqLQLhhjgiAIgqCfn55XB7/66itRFGOxmKIojx49Gh4ezmeRwXFx622lX7PALHxue8LbwHcbGkufetitOj+v0+l0uVyJRGIjTQWMsS+//PLLL7+kQgRB+Pjjj9955x36JReLxfx+P71WVTUrka/3zAPAnoUcny9qQW1paWlpadm/fz9jzOl0bvBb3sDo6Kg+x8/Pz9OLWCx2//79U6dO1dfXu1wuXvkzXrQbyLJMKfPy5cuUnE6ePLlrq6GpVCqVSiWTSbvdrs/xHo/ngw8+ePLkycbzq/7Do2nanTt3vF4v/RmJRFKpFP1GpHv/iURig7sDgD0IOT5fDQ0NjDH+LcwYe/3119nz7EvtrkzXIm28yJimaRUVFbkq1oqi8MpfLBbjzfjGi9a03rb6Amiaxu9xCIJgNpvv3bu3/WHkua+snvDUpdHr9eq7Rq6rwCzJZFJfVGVlpb4PHV1KURR//etfZzKZzz//PM9iAQA45Pi8OJ1Ok8mkrxZTtzjGGPUda2pqWlpayupYZ7BIFMXa2lqTycQY83g88/Pz+pb8oaGhYDB47dq1r7/+emFh4cCBA/wxre7ubt4bi27AP3jwgP40WLSm3t5eh8NRXV29sh/+egUCgcOHD1OvNIvFEgqFHj9+TMWOjIy0traGQiF6ds5kMunbKnKFYVBgYYsM9tXR0fGXv/yFzvnJkycZY/yWfDQaNZlMqqouLy/zgYz0z7uvN3hFUex2e0dHx8TEhNVqdTgcvLIuimJLS4vFYuFPZOTfYkSfzMIekQCAEoMcn5e33nqLMaavE9++fdvr9fp8vlgsNjg46Pf7/X4/fR3X19fz1XItamlp4U0CXV1diqLoczztqLm5ORgMMsYymUxPTw8tKisrkySJXmuaFo/H+/v711y0pqmpKabrzLURdruddwKnXoeKolBW6+/vLy8vp/sImqYNDAxk5aFVwzAosLBFBvs6cuRIa2srvVYURR8h/SAzm836HnD6HL/e4H/7299evHixqamJBrrRj5BTW1vr9XoVRUkkEp9//nkBt4SQ4AGAMfbCSy+9tNMx/MB/VfyYMfbK3J93OhCAohQOh6uqqnw+36pL8f8LYE/BePUApWZ6enqnQwCAXQE5HqCkiKKIHA8ABPfjAUoKH2UBAAD1eAAAgNKEHA8AAFCakOMBAABKE3I8AABAaUKO30miKHo8np2OAgAAShP61WeLxWKzs7Pnzp1LJpOKopw7d47eD4fDfMAyTdMePnzY19e36iyu+aPR7lYdkixXGIWhWdTq6+tpSLWxsTH9iOuhUMjlcplMJk3ThoaG+HB+giBcvHixoaGBthoZGeEDsWUt0hcoiuK77757/Phxmi1ePxIcAABsJ+T4bLOzs7kW0eRgjLGamhqHw9HT07PB1FtYGAXw+/2MsVgsNjMz43a7JUlSVZWP6+71euPxOI0hHwwGp6amaGDd3/zmN1arNRqNzszMWK1Wr9e7tLRE4+P29PSYzWYqkBYtLy9TOm9pabHb7aqqZs3pAgAA2ww5Pif9JGBkdnaW10q7u7slSaLhx1mOqrDH46HZVNPp9N27d30+n8lkoqnG+JQ2jDE+L8uqtd6VYTDGOjo6Wltb8593RP9bZH5+3uFw8Onbm5qaVFWl/Y6Pj0ej0ZaWFsrx+/bt44Ory7Ls9XppvH1BEERRTCQSfNGxY8f4hHLDw8NXr17lxw4AADsFOT4nVVWfPXuWa+nY2JgkSbW1tYqiUFVYUZRHjx7ZbLZgMLiwsCDL8vj4eG9vb1tb2759++x2eyQSee211yRJGhsbGx4eTqfTbrfb4XD09vZSmZOTk3mGceTIEcZYdXX1uo5IFEWn09nU1JRIJPQN8vF4nDHmdDpporyamhpaNDMzY7fbfT5fMpl89913GWNff/01Y6yxsZExxue4Y4xlMhl+I6OACVQAAGArIMdn4/OGzczMqKqaazUaTWx8fJwxJkmSpmlUVxZFMRwOu91uWZY1TZNl+e233xZF8dKlS6lUShRFSZKsVqssy4qiWK1WlmOKMOMwurq61jvPOq9YK4rC50vlU9pTs0Q0GmWM8XnVLl++3NHREQgEgsFgJpPhU+vKsvzBBx9YLBZBEDRNczqd+qnYAABgl0COz8b7jul7pZGqqiqaOJwm9k6n09Tnzmw2j46O0jqKoqiqWlFRkbUttX4ripLnUKMGYZD1Th4qy7Isy9T5jpK9LMsHDx7Ur8Mb8EkgEGhtbU0kEsvLy5WVlYFAgNonGGOxWMzv91PKV1XV4McQAADsFOT4dRAEgW6i0+zsn3766U5HtG6pVCqVSiWTSbvdTlmf8v3ly5fpx8TJkycpYQuC4Pf7qfcAbXvt2rWzZ89Sjo9EIqlUqra2ljE2OTkZDocTicROHRQAAKwKOX4dcj3DpqpqXV0dvRZFUV+tzwfvuLcu622r57K6u2uaxrvLCYJgNpvv3bvHGDt69Cj74U337777rry8nP+pKIqiKKIo/vrXv85kMp9//nkBwQAAwNZBjt8EiUTC7/eHw2Hqc8eed5UXRbG2ttZkMjHGPB7P/Pw8tdhzt2/f9nq9PT099EgefzJtTb29vQ6Ho7q6mnq2r6mjo+Mvf/nLwsLCgQMHTp48yRjjt+RHRkZaW1tDoRA9O2cymSh46n/ncrkeP35MD8g5HA7+20UUxZaWFrpnkclkYrEY/5kSCAQOHz5cWVnJGLNYLKFQ6PHjx3nGCQAAmwg5fhNEIpHDhw+7XC5RFDVNGxgYoBo2DXFD63R1dSmKkpXjU6lUNBptamqi1dLpdJ57nJqaYrp+eWs6cuRIa2srvVYUhUfIGOvv7y8vL3e5XF6vVx88Y+yf//mf33//fXrkL5PJJBKJjz/+mBbV1tbSowSJROLzzz/Xt0PY7Xbex14URWqlQI4HANh+L7z00ks7HcMP/FfFjxljr8z9eacDAShB+P8FsKdgvHoAAIDShBwPAABQmpDjAQAAShNyPAAAQGlCjgcAAChNyPEAAAClqQiej/f5fHzYFjxmDQAAkKciqMffv3//0aNHz5498/v9fJ40AAAAMFYE9XgaF93j8Vit1qx50gAAACCXIqjHE7vdnslkaL52AAAAWFPR5Pjq6mpVVWm+dgAAAFhT0eT4mZkZURS7u7s9Hs9OxwIAAFAEiuB+PPn444+Xl5ddLpckSYXNmw4AALCnFE2O/81vflNfXx+JRGKx2E7HAgAAUASKpq1+3759qqoiwQMAAOSpaHL83NycKIo7HQUAAEDRKJocT0/NrdrhLhQKJZNJ9MUDAADQK5ocvyZ0xAMAANB74aWXXtrpGH7gvyp+vNMhAJS4V+b+vNMhAMB2KJ16PAAAAOjtunp8AZLJZDwev3r16k4HAgAAsIuUQo4HAACAldBWDwAAUJqQ4wEAAEoTcjwAAEBp+qsXX3xxp2OAQnR0dBw6dGhiYmJnwwiFQr/61a9Onz49Ozs7NTW1s8EAAIBe0cxJsxVCoZDNZhMEgTF26dKlVCoVDocZY+fOndvp0P4/KyOk951OZ2trayaT2dmRfzo6OrxebyKRWF5e5rEBAMAuURw5PhaLzc7Onjt3LplMKorCc3DWn6FQyOv1ut3ufMqklRVFuXPnDmNsgxVij8fj9XqtVitjTNO0O3fubPxZPoMIU6lUOp1+8OBB/qXlOocbUV5ezhi7fPnyxosCAIBNVxw5fnZ2Np/VKisrNU3Ls0ybzaaq6qakOp/PFwwGVVUdGBhYWFhwu90ul2t4eFhRlI0Uaxzh+fPn11VanudwXW7fvu31egOBQCQS2fTCAQBgg4ojx3OZTMZgaV1d3cOHD+m1x+Pp6upijGma9vDhw76+vqz0LwhCPB433t1nn32WyWQoyxoU+M4776iqevHiRXpHlmVBEPjSUCjkcrlMJpOmaUNDQ3x6XLovMDMzI0kSYyyRSGRViFeNkCr39DqrOi6KYmdnpyiKmUwmFov5fL6RkZGVzQmrnsOOjo7W1tbe3t51Nf5T+/zrr7+e/yYAALBtiizHq6r67NmzVRcFAgFBED755BP6c3JykhJkTU2Nw+Ho6emhdCiKYm1tLa1TWVlJs9XNz8+vvJ0sCILZbE4kEsYFejweQRCi0aj+NwR/HQgEqL390aNHNpstGAwuLCzwPFpVVcUYi8fjFotFkiRVVSORiHGEw8PD6XSaMUY/OPQ6OzvNZnM0Gl1cXDx58qTJZMr/HB45coQxVl1dveomKwmC4Ha7GxsbGWN3797NcysAANhOxZHjZ2Zm+AtVVVeu4PF4fD5fOp3m6VNRFN5UTpVUqlu3tLTwerDD4XA4HLTyyhzf3t7OGBsbGzMuMCvCLJIkaZrGf16Ew2G3282DLP9/7N1vaBtXujj+8/1daGJ5Q+yYyV6boLWSmHtoWqtg7WoEodKQsqsxMekLqbkENoPcN1nJJCZ5IfdyFxMcbuQXLrjY13rTatVXqScv1iREYmmQXAKSIYYobmFK2tp3MNYls25ibOvab5bfi+fm3Kn+jGTJjmzl+bySNJozZ45G88w5c+ac5ma/369pGsdxsiwfP36cEGKcQ5aNvBhPKaWU3r17F5rNl5eXb9++XXkZDg0Nud3uyivxPT09gUBA0zS2RYQQQvvNwYjxrBG7sHtXW1vb+Pg4dHabmppin1NKL168CBVTqNH29PTE4/HR0VFovi41yn1bW1swGLRYLJTSdDrNwl6pBI1zbjab0+k0vFYURVXVlpYWtlRVVbhK0LcBlM1hUVD1Z/3yCi9ZDMoQ7KiVPh6Pz8/Pnz9/XpKk5uZmnCwAIYT2oQM/Bg7Hca2trdCifuHCBfbhp59++s477ywuLi4uLq6srOwoQVEUKaWEkGQyWWGClbdyNwxN06AG39HRUe+8IIQQKuLAx3hFUS5fvnzz5s10Os1ic09Pj8lk+vzzz6FO/P333+8oQZfL5fV6c7ncxx9/DB8aJBiPx3O5XG9vLzzFnkdV1VOnTsFrSqnZbH758mX1e1va2toaIeT06dPw1uFw7DQFuPG/I7AVvB+PEEL708Foq6/EX/7yF57n//SnP127dg0CHjwo397eDh2/XS7X0tJShc+zaZr24MEDj8cTDAZHR0eNE5RlWZKksbGxRCKRzWaPHDly8uRJaL5OJBKSJIXDYehzR3RtA9VxOBxHjx6F1yaTCQJzPB5PpVKqqvb29m5ubm5sbJw9e3ZHyYZCIZ7n29vbd3Rz/f333yfF7gsghBDaDxonxiuKEovFRFGEvmOxWMzpdPI8r6rq1NSU1Wrlef7FixeVP7M+MTHhdDqdTucXX3yRSqUMEoxEItlsVhRFSZJYZuBFJBI5fvy40+mklGqaNjk5WePIdJIkQVsFIcRsNkPPO0hzampKkiRJkuDZOeijUCEYhrZUz0Fje/HkPUIIodrh/PGNyefzSZIUjUb3tNM7jBlQagQChBBC9dU49Xjk8/ng6buOjg6r1app2v379/d0i9B+YLfbm5qa2traMMYjhNC+gvX4xhEOh6EZX1XVlZUVrFgjhNAbDmM8Qggh1JgO/LNzCCGEECoKYzxCCCHUmDDGI4QQQo3pn95666165wE1poGBgWPHjrEh9OslGAz+8Y9/PH/+/OrqKgwDgBBCbwisx9dNOByGKeT3SDKZDAaDe5c+CAaDsiwnk8lkMqkfQNfhcHg8nqtXr+51BowNDAyIopjNZhcXF3E8PoTQmwafj88ny/Lq6uqVK1eSyaSiKDAtLNE9mUYI0TTt8ePHB2uyNbfbLYoiDH63W/kPBoOiKCqK8vjxY6Kb9Y4QkkqlMpnMs2fPKk+tVMnXorm5mZSeag8hhBobxvh8BiOzQmgkhFgsFlEUNzc3JyYmXmPWquf1egOBgKqqk5OT6+vrLpfL6XTOzMxUPrJvUTabTVXVUsH42rVrO0ptL8bE/eabb0RR9Pl8OMk9QugNhDG+pFwul/fJ6uoqq/smk0moI5JXQ7oSQoqO6ur1evv6+sxmMyEkk8ncuXOnaKPxl19+mcvlWLwMBoNOp9NkMsHsOCxEQfN+NpsVBIEQkkgkWCWVUjo4OEgphfHq9Yl/9NFHqqreuHEDMhaPxzmOY5nUb2t6epqta7AtwHFcLBbL2xGo3MPrvOp4Xg69Xu/s7Gxhc0JhyRNCBgYGPB5PKBTa0YD/UNQwhxBCCL1pMMaXpKrq9va2/pO2tja4w22xWDRNm5mZgc+XlpYg1HV0dPA8PzIywgIbVKA1TYvFYocPH7bb7devX/d6vXnb4jjObDYnEgl4C2EyFotlMhmr1SpJ0sbGBgu9bW1thJBYLGaxWARBUFUVrgAGBwfNZnM0Gs2bd87tdnMcF41G9Vce7LXP54P2dpgZLxAIrK+vszhadFuU0s7OTvhCa2srzH23trYGAXVmZiaTyRBC4LpHT5/Dc+fOmUymCkueEHLixAlCSHt7e9FVCnEc53K5enp6CM5+ixB6U2GMz8fmXstms6qq6hdxHAc1VE3TZmdnWduyoiis0Ruqm6yW3NfXp2ma3++Htw6Ho2g/c7/fTwiZm5uDtzabLZ1OQwU3Ho9bLJazZ8+yGN/c3AwJchwnyzKMUU8ppZTevXsX4v3y8nLevHOl5pQTBEHTNLgooZSGw2GXy8VifNFtXbhwgdXUeZ7neR4KAWI8K428GF+Yw9u3b1dY8pAazChYdC8K9fT0wNUV2yJCCL1pMMbnY83RhR21WMsztDn/7ne/u3z5Mry9ePEiVDGhbtrT0wPRCGrnrNKc10oPDQMWi4VSmk6nWQDjOI7jOP1M8/ob56qqQoL6ejlUrNkFROV9yM1mczqdZltRVbWlpcV4W6Ojo3D9kUwmY7FYhX33yubQoOTBjlrp4/H4/Pz8+fPnJUlqbm4+WB0kEUJoV2CMr4aiKH/961+hZjk/P//pp59ubm5Cd7zW1la49c40NTWVSoc1DBBC9BGdEJJOp/WfrK2t1Zjnylu5G4amaZFIRJKkjo6OeucFIYTqAJ+PrxILmT09PSaT6fPPP4fa7ffff6//mqqq3d3dHMcVTURRFJfL5fV6c7ncxx9/zD7XNK2lpSWuU7ZeDhcBp0+fhrf6R9Xj8Xgul+vt7S2aDVVVT506Ba8ppWaz+eXLl8bbqo5BDisEN/53BLaC9+MRQm8mrMfvAOtzB73ncrnc/Pw8BC2Xy0UIaW9vhy7cLpdraWlJUZR79+4FAoFoNDo3N7e1tUUIef78ed7tYeg57/F4gsEgNClPT08HAoHx8fFHjx6tr68fOXJkYWHB+Dm3VCqlqmpvb+/m5mZenztCiCzLkiSNjY0lEolsNnvkyJGTJ0/CthKJhCRJ4XAY+tyRghaFnXI4HEePHoXXJpMJAjNcphjksKxQKMTzfHt7+45urr///vtkJ3cuEEKokWCM3wF907qqqlNTU5qmQZ95p9PJ8zx8aLVaeZ5/8eKFoijQUa6vrw8ePyOERKPRwpQnJiacTqfT6fziiy80TWNrBQIBQkgulxsZGSmbvampKUmSJEmCJ9O6urrYokgkks1mRVGUJAk+YVcMkUjk+PHjTqeTUqpp2uTk5I5uexeSJIkNFmQ2m6HnHaSZl8O8XoHGYBjaUj0Hje3Fk/cIIbT/4fzxqD58Pp8kSdFodE87vcPQBUXHLUAIoYaH9Xj0+vh8Pnj6rqOjw2q1app2//79Pd0itB/Y7fampqa2tjaM8QihNwrW49Hrw8b8V1V1ZWUFK9YIIbSnMMYjhBBCjQnb6nfHf7X8c72zgBBCqP5+8/K/652F/4PPxyOEEEKNCevxu2lfXb4hhBB6nfZhgy7GeHQAsNl7wU5nmEUIoTcTxvg3AswEr5/K/SBKp9MvXrwghCwtLdU7LwghdABgjK8nWZZXV1evXLmSTCbZpHZE94wZIUTTtMePHx+sadNK7VeNkskkVt8RQqhyGOPryWCMVQjthBCLxSKK4ubm5sTExGvMWk1w7FiEENoPMMbvC7lcLu+T1dVVVndPJpPNzc1Ed1s6k8k8efLE6/WaTKZEIsEmXA8Gg06n02QyaZo2PT0N494X+vLLL3O5HKte69d68OABDC5rvC2O4/r7+202G5vLruiotIX7RQgZGBjweDx4Tx0hhPYaxvh9QVXV7e1t/SdsjjuLxaJp2szMDCFkfn4+FApdunTp0KFDdrs9Eom8/fbbgiDMzc3F43GfzyeKoqIoMINcIBBYX18vjKMcx5nN5kQiAW+DwaAoirFYLJPJWK1WSZI2NjZkWTbeVn9/vyiKmUwGGhtIibndCveLEHLixAnyRs5njxBCrxnG+Hpis6hls1lVVfWL2Bx3mqbNzs5C67emafF4/MMPP6SUfvLJJ6lUilIqCILVao3H44IgaJoGtXNKaTgcdrlchTHe7/cTQubm5uCtzWZLp9PQZhCPxy0Wy9mzZ2VZNt6WxWIhhNy6davoYLQG+0UIGRoacrvdWIlHCKG9hjG+nlgbO3vBsK5qlNLBwcHf/e53ly9f1n8B6s2KosDU9YQQs9mcTqfZ6qqqtrS0sO9Dw4DFYqGUptNpFmI5juM4Tj9nfOFE9YXbevjwIaVUlmVoNpiZmdGvZbBfAAM8Qgi9Bhjj9ztFUf7617/WXvdlDQOEEH1EJ4Sk02n9J2tra2VTk2V5YWHhgw8+6OrqcjqdoihOTk6Wuv2PEEKoLjDGHwAV3rpWVfXUqVPwmlKqr9aTVw0DHMdFo9GPP/6YXS5omtbS0lLF1YOiKFB35zhOlmVo4a9wXWyrRwih1wBj/D7F+twdPnzYbrfncrn5+XlKaWdnp8lkIoS43e61tTV9T7dEIiFJUjgchj53pKC+TgiBnvMejycYDMI9+Onp6UAgMD4+/ujRo/X19SNHjiwsLCiKYryt4eHhra0teA335p89e1bhroVCIZ7n29vbC/vhI4QQ2kUY4/cpfdO6qqpTU1OapkFvdvhwaGhIURR93I1EIsePH3c6nZRSTdMmJyeL1pUnJiacTqfT6fziiy80TYPKd19fXyAQIITkcrmRkRFCyIULFwy21dTUJAgCvNY0LRaLVf74/vLyMtH1y0MIIbRHcP743QFTEeCcNHsEx6tHCO1/+zAQYD0eHQBLS0uxWEz/tn55QQihAwNjPDoAWP8+hBBClfv/6p0BhBBCCO0JjPEIIYRQY8IYjxBCCDUmjPEIIYRQY8IYjxBCCDUmjPGoGuFwOBwOV716MBiUZTmZTCaTSYfDUXuCZSWTSRg3sEKFOayC2+1OvlJ065RSt9tdXeKN54CWRtlfuTqvpzT2KPN13xZi8Nk5ZESW5dXV1StXriSTSTYVXo1gxnpFUWDu+R9++KH2NHfXbuVwfn4+FAoRQvQD+OjBYII4ng84oKVR9leuzuspjT3K/O5ui+O4GzdudHd3m0ymXC43Nzenn9AyGAw6nU6TyaRp2vT0NJs1w2Ath8Pxr//6r1arlRCStxbZm5NeHWGMR0Zg3vrdZbPZVFXdz/+c3cqhpmlwjn4NJ1BULwf6V36dma96WyMjI2azWZblbDZrtVpFUdza2oLpNnw+nyiKsVgsk8mIohgIBJaXl2HUbYO1/vznP//973+PRqPZbBbWgkk6YHN7cdKrI4zxqCK5XM5g6ZdffpnL5SAosnFnNU378ccfx8bGNE3Tf5njOP2gdbUnWBSldHBwkFKay+UKJ8TTX/s/ePAgb3acojk0yIb+eh++Vna0XWgqYKvDi1gsBucgY16vt6+vz2w2E0IymcydO3fYVAJF6zSQpUQiIQhCJpP5+eefBUFIJBJQrYFbJNlsFiYgSKfT+l0rVUnKW4ulZly8pdaqujQ4juvv77fZbBzHwSfRaDQSiTgcjtu3b8Nr+BxmQvJ6vbBrBmVYXcmXYnBslMp82dIoWrzs+MxkMk+ePPF6vSaTKe93qUKpA8CgNKr7w4KBgQGPx6P/+3AcRylNJBKwm/F4/MyZM2fOnIGlvb29qqpCyczPz0ej0QsXLqRSKeO1rl+/ziL60tJSOBz+4IMPCkfZMj7pHRQY41FFVFXd3t4uuojjOLPZnEgk4C0bd7ajo4Pn+ZGRETjBwUR28J3W1la415g3nd2OEjQ2ODhoNpuj0ejGxsbZs2f1i+AcCtf+VqtVkqSNjQ1Zlo1zWF02SpmZmclkMi6Xi+d5aMAklY3R6/V6A4EAzAMEcxJev37d6/WSV3UaRVFg4sFAILC+vs7OlceOHYvFYqIoRqNRRVEEQWBn/7a2tu3t7VAoBNUdv98Pi4wTbGtrI4TEYjGLxSIIgqqqcD4tVbwGa1VdGjBLUyaTgbsqhBD4sVKplKZp7733Hvtmd3d3JpNhAb5UGVZX8tUplXnj0ihVvNASfunSpUOHDtnt9kgk8vbbbwuCMDc3V3WDv8EBYFAatfxTTpw4QX45m3ZPTw8hhM1ySQjJ5XKUUnjNLscdDkcqlVJVtaOjo+xa+nDe2tpaKjMGJ70DBGM8MsJmh8tms6qqFv2O3+8nhMzNzcFb/bizcFXOcZymafqJ7Hie53kevlwY4ytMMG+iGsblclFKKaV3796FqLO8vAz33oDNZkun03DtH4/HLRbL2bNnZVk2zmGpbFRSjIUgNcjVjk7BfX19mqb5/X7YtMPhYN0FBEHQNI1dUYXDYZfLxRJfWVmB9kyYn5Cd7wghzc3N165dg5x0dHTY7fZKEmxuboZscBwny/Lx48fh81LFa7BW1aUB8xrfunWr8If49ttvBUGA38jhcJhMpidPnpQtw+pKvjqlMm9cGqWKF1rCP/zwQ0rpJ598kkqlKKWCIFit1qpjvMEBYFAatfxThoaG3G63PsPxePzq1Us1xtsAACAASURBVKsWi4X9lNByABuFF8PDw4IgRKNRQggsNVgrz/vvv08I+frrr9knlZz0DhCM8cgIq+oVtvjBDPcWi4VSmk6n2d+SUnrx4kW4Eofp53t6euLx+OjoKJyYkslk0WbYnSbIuvAUguo4O+nkXUZwHMdxHGsFJa+u641zWCobxgW466CFg50x9btmNpvT6TS8VhRFVdWWlpZK0tSfyFZWVtj1kHGCqqpCNgrvxRQtXuO1qvPw4UNKqSzLUNecmZlh2/rb3/4mCILL5ZJl+fe//30ul2Pt9gZlaKC6tarLvAHj4tXnTVEUl8tVSw4NDgCD0qjxn1L4TVmWJUmCy0RVVdnhevToUf3XNjY2KllLz+FwOJ3ORCKhL0ODk95BhDEeVUk/wz0743Ac9+mnn25ubkLzY2tra6nL59oTZF14qpBOp/VnybW1tbJ5q3q/dl1TU1O9Nl2hnRZv1WRZXlhY+OCDD7q6upxOpyiKk5OTcFqH5vqenh5Zlt95552nT5/qV6yuDHe35A0yb+y1Fa+xoqWxF/+USCSSSqXgwh1un8ONvHg8Di15N2/ehHh87tw5FstLrcW43e6rV6/+/e9/b4xYXgrGeFQl6EnEcVw0Gv34448h3Pb09JhMps8++wze+nw+aPF+zQnCWe/06dPwNu8Bd03TWlpadnR9UHk22EbzGNz2o5SWqsDltVsSQlRV7e7uLtr4qarqqVOnWJr6Spgx/Vm4tbWVdTWqLsEqildvR6VBdC3D0Pivvy/w7bff2u12SinHcdPT02wVgzI02FYlaxn8yqTYsWGQeVBYGjUWb9EyBIWZNzgASpVGhf8Ug4Iy+JUppf/2b/+Wy+W++uor+FzTNNaTDvrx6C/mSq0FvR1FUay9T+L+hzEe1QR69no8nmAwODo6CsEVWgjb29uh05PL5VpaWqpwcthdSRB63/T29m5ubhb2uZueng4EAuPj448ePVpfXz9y5Ij+yZmijLMBvZ+Gh4fJq+5CeTlUVZXn+eHh4a2trcOHD7PTyjfffCOK4sjICFR6Njc3JyYm2EahK3h7e7u+2/+9e/cCgUA0Gp2bm4MuRc+fP4cvJBIJSZLC4TD0kCK65hBjm5ub4+PjsVjMarXyPM/O49UlWEXxVl0aUKTwGm5vP3v2jC396quvBEEYHBzMe7bCoAwNtlV2raK/ssGxYZz5UqVRqnihxyi0jbvd7qK9WYvul0HmDQ6AUqVRyR+21N+hVA4ppRcuXIC7ePBTsqRmZ2fhXAF9TUwmE8uhwVrRaNRkMqmqurW1xUbjqeSRloMIYzyq1cTEhNPpdDqdX3zxRSqVisViTqeT53lVVaempiBsvHjxovIJ4HclwampKUmSJEmCv3dXVxdbBKf7vr6+QCBACMnlciMjI8ZZMs7GnTt3Dh06JAiCoijRaPT27dt5OZyamrp+/Tp7YEyfbDQa7e3thZsUmUxGv9Hl5WWi6wGUl3lIjRACXY0IIdCZzul0Uko1TZucnKywtre6urqysgLNnvDsXC0JVlG8oIrSaGpqYuUAfbz1lwVwCxm6dxTNYWEZGmyr7FpFf2WDY8M486VKo1Tx6nuMDg0NFe3NWnS/DDJvcACUKo1K/rCl/g6lctjZ2Qnd+xOJxFdffaX/409MTDQ3N8OdjrwcGqwFV0Jms1nfgtWoMf7//epXv6p3HhrBf7X8MyHkNy//u94ZQWhn4Jn1/TwkEUIHxT4MBDhePUIIIdSYMMYjhBBCjQnvxyP0RsNWeoQaGNbjEUIIocaEMR4hhBBqTBjjEUIIocaE9+PrRj+DJHk1agRCCCG0WzDG1w0b1AJGYqpvZhBCCDUejPF1E4/HYUimYDCIMR4hhNCuw/vxCCGEUGPCGI8QQgg1JozxCCGEUGPCGI8QQgg1JozxCCGEUGPCGI8QQgg1JozxCCGEUGPCGL9/BYPBZDLpdrvrnRGEEEIHEsb4/Q7GyUEIIYR2Cse5q5u88eoLWSwWTdNeW34QQgg1GIzxdcPGqzewsrLyGnKCEEKoIWGMrxs2Xn0plNJYLPba8oMQQqjBYIzfv3C2WYQQQrXAPncIIYRQY8IYjxBCCDUmjPEIIYRQY8IYj/7XwMAAjreDEEKNBPvcIUIIcTgcHo8nl8vhkDsIIdQwsB5fT7Ish8NhQkgymYQXhJDh4eFkMslxHPua2+1OJpNer3fvcpJKpTKZzIMHD3YltaL7tUcJBoPBBw8eJJNJWZYrLCJK6fDwsCzLyWQyGAzmLa0iQYfDMT4+nkwmd7SW8bZ2vQwRQm8gjPH1tLq6Wvjh3/72N/LLB+fsdjshRJblPc3MtWvXJiYmdiWpovu1Fwn6fD5RFGdnZ0Oh0MrKSiAQcDgcZVO7cOGC3W4vmmZ1Cf75z39ubW2NRqNsLUpp2bWMt7XrZYgQegNhW/2+kMvl2OtUKpXL5d5++232yalTp/SD4gWDQafTaTKZNE178OBBJBIhhLjd7qGhIUJIJpN58uSJ1+s1mUyJROLmzZuEEI7j+vv7bTYbax6IRqOwon5IXUVRrly5os+YflvT09PsOgNqltlsVhAEQgjbkMF+MQMDAx6PJxQKVXFfIC/B3t5eVVVHR0cJIfPz89Fo9MKFC6lUyjiRmZmZ0dFRVmK1J3j9+nVFUeD10tJSOBz+4IMP2CelVLitomWIEEKVwHr8vqCq6vb2Nnv79OnTd955B15zHGc2m589ewZvISRD5e/x48eSJEEb7/z8fCgUUlX10KFDdrs9EokkEglBEKAbXX9/vyiKKysrsVdYLJmZmQmFQqFQqDBXUNFUVRWG2wsEAvpOeW1tbe3t7bFYTFEUQRB8Pl/Z/QInTpwghLS3t9deUBzHfffdd4QQh8OhaZqqqh0dHWUTMYi+tSfY2tpa9vs72lbRMkQIoUpgPb6estkse6GqKvv8+++/53meUqooyvnz5wkhX3/9NSyy2WzpdBoqf/F43GKxnD17VpZlTdPi8fiHH35IKf3kk09SqRSlVBAEq9UKXyOE3Lp1q3CSG0VRIEQVVmoFQdA0DWr2lNJwOOxyuVjlu7m52e/3a5rGcZwsy8ePHy+7X2BoaMjtdu+oEl80QdayPTw8LAhCNBolhJjN5sqTzbMrCb7//vtE93tVvS3jMkQIoUpgjK8n1r6d19B9//59SZKgvfdf/uVfNE1jNUWO4ziOSyaT7MuFtVKooyuKwm7qP3z4kFIqy7KiKIuLizMzM2VbkgkhZrM5nU6zraiq2tLSwpaqqgpXDIXXDaX2i9lpK33RBI8ePar/zsbGxo7SLFR7gg6Hw+l0JhKJssVbdltlyxAhhMrCtvr9CIJ6V1cXIaS7u/vbb7/VL02n0yEdqAIak2X5ypUrd+/e3d7edjqd4XB4T3vpvx7sQuHmzZsulwv6CtRS5a0xQbfb/ec///nvf/97JVF51zOPEEKFMMbvU99++21XV5fD4TCZTHNzc+xzTdNaWlriOmV7hAFFUSYmJq5duyZJEiHk7NmzZVdRVfXUqVPwmlJqNptfvnxZ1d7k263BdjRNO3PmDLyGjguFs/HuaFvVJchxXDAYHBoampubu3z5ctGUC9eqZFsIIVQLbKvfp+bn5z0ejyRJeePSTE9PBwKB8fHxR48era+vHzlyZGFhQVEUSmlnZ6fJZCKEuN3utbU1fewfHh7e2tqC13BvnnXiczgcrN3YZDJBKIItJhIJSZLC4fDi4qLNZiOE6O8RVC0UCvE8397eDh37azE7O+vxeILBYCaTEUXRZDLl5bDotnw+3/Hjx6FznMViCQaDz58/hy9Ul2A0GjWZTKqqbm1tsQfuoc+EwVplt4UQQjXCGL9PpVIpTdMopfqn5sirp+T7+voCgQAhJJfLjYyMEEIuXLjAHoEbGhpSFEUf45uamuAhN0KIpmmxWIw9Ci9JEnuY22w2Q887iPGRSOT48eNOp5NSqmna5OTkroyCt7y8THR9ymoxMTHR3NzsdDpFUSyaw6LbstvtbJcppdC3EaJvdQnCpZXZbNZ3mtPH+KJrld0WQgjV6P/96le/qnceGsF/tfwzIeQ3L/+73hlBCCFUH/swEOD9eIQQQqgxYYxHCCGEGhPGeIQQQqgxYZ+73QQ3YxBCCKH9AOvxCCGEUGPCfvUIIYRQY8K2+l/wer3nzp0jhMzNzdU+QgtCCCFUR//01ltv1TsP+8g//vGPX//61yaT6Q9/+MP3338PQ5cghBBCBxHW438BJlp1u91WqzVvZjCEEELoYME+d0XY7fZcLjc/P1/vjCCEEELVwxhfRHt7O5scHSGEEDqg8H58ET09Pb/97W9/85vfNDU1/fDDD/XODkIIIVQNfHauCI7j+vv7nU6nyWRyuVz1zg5CCCFUDYzxRYyPj3d1dUUiEZjIFSGEEDqI8H58EYcOHVJVFQM8QgihAw1jfBEvX76klNY7FwghhFBNMMYXAU/Nud3uwkXBYDCZTBZdhBBCCO0rGOOrEY/H650FhBBCqAwc5+4XHA7H73//+3feeafUGDgWiwWfm0cIIXQgYIz/haNHjx47duzbb7/96quvSsXylZWV15wrhBBCqAoY438hHo8bt8NTSmOx2GvLD0IIIVQ1fD4eIYQQakzY5w4hhBBqTBjjEUIIocaEMR4hhBBqTDjvXP0NDAwcO3YMJ7hDCCG0u7AeX2cOh8Pj8Vy9erXeGdkdbrc7+UowGKx3dvbQTncwGAzKsgwl43A4qtto2eKllOIgjAghBp+dyyfL8urq6pUrV5LJpKIoV65cIYQEg0FRFAu/HAqFahzzLpVKZTKZZ8+e1ZjDWpRKkOM4v99vt9tNJpOmabOzsxMTE8ZJzc/Ph0IhQsjQ0FCNuWL02cjlck+fPh0bGztYIxHB8aMoyuPHjwkhVbfZlC3eCxcuiKJY9Jjc9cMGIbT/YYzPt7q6WvhhJpOBF62trTzPp9PpFy9eEEKWlpZq3+K1a9d29P2iOaxFqQT9fr8gCLFYLJPJuFwuj8dDCDEO85qmQYDZxRjf398vCMLdu3d/+OEHq9XqdDrPnz8fiUR2K/3XwGazqapae1itpXh3/bBBCO1/GONLyuVy7DUbG8ftdvM8n0wm86pKwWDQ6XRCfXd6eprNSxsOhwkh2WxWEARCSDqdZnVQfdtAYb3K6/X29fWZzWZCSCaTuXPnTiqVMsghMzAw4PF4qmtg0CdIKRUEIZFIjI6OQgmEw2Gn0wkx3mC/jJUqKErp4OAgpTSXy8my7PV6Z2dnYdMWi0VRFNhuPB6HDwkhPp9PkqRPPvmElUwoFOJ53uv1apqWl8NEInHz5k2WjUqKN09eDg3268GDB3mXIBzHFQ6d5Ha7IVRrmvbjjz/qC1Bf1Yavlf1B9YdTMpmEF7FYjBUXU/SwQQg1JIzxJamqur29Xck3fT4ftMQuLi7abLZAILC+vs7OyG1tbdvb26FQyGq1iqLo9/sh2MzMzEDzQGGdzOv1BgIBTdNisdjhw4ftdvv169e9Xm8lOTxx4gQhpL29fed7/IsE3333XULI3NwcW7q4uEgppZQqimKwXwYMCmpwcNBsNkej0Y2NjXPnzplMJrbWy5cveZ53u915Qe7+/fter/fChQssPJ86dSqTybBI2dbWRgiJxWIWi0UQBFVVIfRWWLx59Dk8e/asfhHEV2jwsFqtkiRtbGzIskwp7ezshO+0trbCnfK1tTXI8NLSEgT+jo4OnudHRkZqqejD4eRyuXieh/Z8UqKdqfIDGyF00GGMz5fNZtkLVVUrWUUQBE3T4ARNKQ2Hwy6XiwWk5uZmaI2Px+MdHR12ux0+VxQFgmVhjO/r69M0ze/3Q7hyOBz6O7jGORwaGioMh1Xs8smTJ/O+lslkRFHs7OyEbJfaLwOlCgouHe7evQsxeHl5+fbt22ytsbGxsbGxoaGhS5cuJRIJVkXWNO3p06fd3d3w1uFwcBz34MEDtmJzczOUIcdxsiwfP34cPi9VvKxincflchXm0Gq1si/YbLZ0Os0aPCwWy9mzZ2VZhrvj8B2e53meJ4QoigIxnh0A5FXrC8dxVfczgNQgV0V//SoObITQQYcxPh+rjJatlTJmszmdTsNrRVFUVW1paWFL9efTlZUVfWwwSDCRSLDTfV4zctkc7rSVvopdJtXuV9GCgsouu47J219N0y5fvuzz+QRBkCRJEIQbN25A4SSTSZ7nfT5fJBJ5//33CSH379/X5xC+lhc4SxUv69FWyDiHHMdxHMdayGHvCCGjo6MQ+JPJZGGzOaX04sWL0OIC7RY9PT17N21xdb8yQuhAwxi/TzU1NdU3Az/99FPeJxDFd6WbYRUikUgkEoGq9o0bN6DCHY/HP/744/fee48QcubMGX1DvbGixct6tFUhnU7rY/za2prx9zmO+/TTTzc3N6GnfWtrK3QOQAihXYTPx+8CVVVPnToFrymlZrP55cuXbKn+3N3a2lpJjydVVbu7uzmOqy4/u/KE9MLCAiFE3wJvsVg0TWPNy2X3q7W1Ne+TUgUFEfH06dOwyODx8Xg8ntdMMjs7a7Va3W632Wx+8uRJJbtWRfEa51DTtJaWlrhO2R58PT09JpPp888/h7r+999/X+qbbKN5CouXoZQabx0h9IbAevwuSCQSkiSFw2HoSkZ0HZsJIZubm+Pj47FYzGq1wnN38LnD4Th69Ci8NplMEJihHnnv3r1AIBCNRufm5ra2tgghz58/r/BpMehb3t7eXuPTZYqipNNpQRC2trYymYzdbs+bV7fUfgFVVXmeHx4e3traOnz4MLQPlyqoVCqlqmpvb+/m5mZhjzb4PvRPtFqtZrNZn42vv/7a4/FcunSJ/LKh3kAVxWucw+np6UAgMD4+/ujRo/X19SNHjiwsLLCLoaLgosHlchFC2tvboSnC5XItLS0pigJ994aHh8mr7pNskUHxEkK++eYbURRHRkageWBzc7PskAYAug3WPt4DQmhfwRi/CyKRyPHjx51OJ6VU07TJyUn9iXJ1dXVlZQXaluEZM/hckiRW3zKbzazxmRACj2b19fXBc1+EkGg0WmFmlpeXia6DVS3Gxsb8fr/T6RRFEXqh6+8ol9ovMDU1df36dfbcGnxoUFBTU1OSJEmSBE+m6e/uv3z50mazQee1wmywiFh5Q311xZuXw66ursIEA4EAISSXy42MjBinlkqlYrGY0+nkeV5V1ampKbhUevHihaIod+7cOXTokCAIiqJEo9Hbt2+zRSwzhcULyUaj0d7eXiguNq5DhTDAI9RgcP74vQVPaTfemGJ7ul/w4Hs0Gq2wKQK+j3XQWoTD4ba2trIPECKEDhasx6N9wefzwbNtHR0dVqtV07SyDe9ut9vlcnV0dEB3fQzwNVpZWal3FhBCuwxjPNoX4H4/IURV1QpHzbNard3d3aqqVl7jR6XkdbZACDUGbKtHCCGEGhM+O4cQQgg1JozxCCGEUGPCGI8QQgg1JozxCCGEUGPCGI9QeW63O/lKMBisd3YQ+l87PSCDwaAsy3AkGwwabazs34FSuisjaqPa4bNz+WRZXl1dvXLlSjKZVBRFP8yL2+0WRRGGYNM07fHjx3kziR1QXq+3r68Pxp9XVfW7776ry34ZlHzdE2RT0hWdfBahAwFGLFYUBYY61s9YvSNl/w4wq3LRISt2/W+OjGGMz7e6ulr0c6/XGwgEVFWdnJxcX193uVxOp3NmZsZ4WPL9D2Yuz2Qy9+7dg/06c+ZMLROZV61Uye+HBNmUdBjj0cFls9lUVa09rNbyd9j1vzkyhjG+pLyJ1D766CNVVdnM5fF4XB8Ig8Gg0+k0mUyapk1PT8MA5uTVmK/ZbJYNLc6mD+E4rr+/32azsQnQ2Fgu+itcmE0VBmqF14lEQhCETCbz888/C4KgT1OfjQcPHkBqsBYhJJPJPHnyxOv1mkwmWIvjOAjw165dgxTYpbfBWsa7XCrzhaVRaqybolPzwbVIdQPWFiZY4e9V4Wg8BglSSgcHBymlMMq91+udnZ0t20xS6tiAUXs/+eQTNq8dTEHk9Xo1TTM42MgvW2symcydO3fKTo5nvNYBPeaN97fU71XHv4NxDvOWFi0NhuO4wpGO2K5pmvbjjz/q82CQ+VKgqYCtDi/y5pgAlczAiWqH9+NLUlV1e3sbXrvdbo7jEomE/h/IXvt8PlEUVVWF/08gENDfi2pra2tvb4/FYoqiCILg8/ng8/7+flEUV1ZWYq9Ucs4lhBw7dgxme1NVFdKEz+HfNTs7GwqFHj9+LEkSDD8ODWuqqh46dMhut0ciEThjut3u8+fPE0KKDnBmsFbZXTbQ1tZ27NixUCgUi8V4nvf7/YXf0Zc8c+LECfJqEradykuw7O9VNod5DBIcHBw0m80Qyex2u8lkqiTDpY6N+/fv53K5CxcusG+eOnVKPxlPqYMNWqGamppisVgikejq6rp+/XrZbBisdXCPeeMNlfq96vh3MMghTFfIlCoNuDsOWWptbYXX7Gb80tIS/BYrKys8z5edTsnYzMxMKBSCWShDr8zMzBR+s+jfHO06rMfnYzO2ZbNZVVWLLsojCIKmaXC1SykNh8Mul4td7TY3N/v9fk3TOI6TZRlGZSeEWCwWQsitW7d22iq+srKSyWREUYRp3NjkdTabLZ1Ow/VyPB63WCxnz56VZRka1j788ENKKVQBKaWCILC53SCrbrebfTI6OmqwVjweN95lA83NzdBmEI/HOzo69PPTG5Q8IWRoaMjtdu+oEl8qwbK/V6kcllIqQUoppfTu3btQnVpeXr59+zaswipPeWC22VLHhqZpT58+7e7uhrcOh4PjuAcPHrAvlDrY+vr6NE2DRbAi3Is1zkaptSopw/18zJfaZYPf63X+HQx+lMIc6mdoLFUacHccvsPzPM/zhBBFUeACS1EUdsMRWstquVUHqUGuipaA8d8c7TqM8flY41vZZj0G5kSB14qiqKra0tLClqqqCn+YvL/Nw4cPKaWyLCuKsri4WPutfY7jOI7TT11fmCD7V8NJXN8n1mq1shNBXsNa3lqk3C4b0P+rV1ZW9GeosiW/01b6UgmW/b1K5bCUUgl2dnYSXc8mfZ2V9VoqyuDYSCaTPM/7fL5IJPL+++8TQvST95Q62Mxms74ViuXEOBul1jLYZeNs7IdjnuO4Urts8HsZJEh2++9g8KMY57BUaYyOjsI/OplMFjabU0ovXrwILWTQbtHT07N3MzxVcYJFtcAYvwPVNRSXIsvywsLCBx980NXVBXO0T05OFt5g25F0Oq3/h6+trRl///nz54QQqB/DiUB/Ow3tHdZrqSiDYyMej3/88cfQSHvmzBl9Q72xpqamnWaj1FpV2w/HfNldrrtacrjT0uA47tNPP93c3ISe9q2trdD3AjUMjPEVicfjV69e7e3tvX//fuEpVVXVU6dOwWtKqf6i3hhrJYMmTWhYy/vO6dOnK8ykpmktLS07OjukUilJkko95WKgwl0uzLz+DNLa2rqjfjc7basvxTjzZXPY2tpaYYJwhmWFsKPHkQ2OjdnZWY/H43a7oZ5dSWqqqnZ3d++0DdZgrYN7zBuo+vd6bX8H4xxWURo9PT0mk+mzzz6DtXw+H7TkV5J5lu1SiVNKD/pjRw0AY3ylZFmWJGlsbCyRSGSz2SNHjpw8eRJavRKJhCRJ4XB4cXHRZrMRXYdSA8PDw1tbW/Aa7lM+e/YM3mYyGavVOjw8TF41HrhcrqWlJeMEp6enA4HA+Pj4o0eP1tfXjxw5srCwoCgKpbSzsxNa4dxu99raGmviUxQFug6xtdg/1mAt410ulXn4t29ubo6Pj0P/KZ7nKwwM5FUH8vb29tqnkTX+vYxzqKoqz/Pw2x0+fBjaG0slmEqlVFXt7e3d3Nzc2Ng4e/ZshTk0ODYIIV9//bXH47l06RL5ZUO9gXv37gUCgWg0Ojc3Byk/f/68bEkarHVwj3kDBr/XPvk7GB9RpUrDIEG4aICbDu3t7dA+xHJonHlS4u9ACPnmm29EURwZGYHmgc3NzYmJCeNdQ3sEY3ylIpFINpsVRVGSJPiEHejQD8jpdFJKNU2bnJys5FK6qamJdQ/WNC0Wi7G/wZ07dw4dOiQIgqIo0Wj09u3bPM+/ePEik8kYJAj1ob6+vkAgQAjJ5XLQRVbf42ZoaIj1tQE3b95UVVUQBLYWbMV4LYNdLpV5KK7V1dWVlRXoUgQPC5UtKLC8vExKd3vcEePfyziHU1NT169fZ0+FlU1wampKkiRJkuBJp0ru7hPDY4MQwk6+lTfUs2ODJRuNRmtZ60Af8wZK/V775++Ql8Ourq6ypWEglUrFYjGn08nzvKqqU1NTcLUBOTTOPCnxd4Bko9Fob28vFJrxj4j2FM4fj14feCB4P49stac5hKfb2RPhtSdV3WgBqEK7+HsVtf//DqgBYD0eoT3k8/ngybGOjg6r1appWoWt60W53W6Xy9XR0QF3fDHA77rd/b0QqjuM8QjtIbvdDg9zq6pa+ah5pVit1u7ublVV965y+Ybb3d8LobrDtnqEEEKoMeFYtgghhFBjwhiPEEIINSaM8QghhFBjOgB97rxe77lz5wghc3Nz2M8IIYQQqtA/vfXWW/XOQxn/+Mc/fv3rX5tMpj/84Q/ff/89jIWCEEIIIWMHoB4PA1zDzKdHjx6td3YQQgihg+HA3I+32+25XG5+fr7eGUEIIYQOhgMT49vb29mk1AghhBAq6wDcjwc9PT2//e1vf/Ob3zQ1Nf3www/1zg5CCCG03x2Yce44juvv73c6nSaTCWZCRAghhJCBAxPjx8fHu7q6IpEIzJ+IEEIIIWMH5n78oUOHVFXFAI8QQghV6MDE+JcvX8J8UAghhBCqxIGJ8fDUnNvtLlwUDAaTyWTRRQghhNAb68DE+LLi8Xi9s4AQQgjtIwdgnDuHw/H73//+nXfeKTUGjsViwefmEUIIMNP0SQAAIABJREFUoTwHIMYfPXr02LFj33777VdffVUqlq+srLzmXCGEEEL73AGI8fF43LgdnlIai8VeW34QQgihA+HAPB+PEEIIoR1pnD53CCGEENLDGI8QQgg1JozxCCGEUGM6MPPONbCBgYFjx47VfTK9YDD4xz/+8fz586urq8vLy/XNDEIIododgH71jSEYDNpsNo7jCCGffPJJKpWCzx0Oh8fjyeVy9R3DZ2BgQBTFRCKxtbXF8oYQQuhAOxgxXpbl1dXVK1euJJNJRVGuXLkCn3Mc5/f77Xa7yWTSNG12dnZiYqLGbbndblEUrVYrIUTTtMePH4+OjtaYZjAYFEVRUZTHjx8TQvRV9lQqlclknj17VnlqpUqjFs3NzYSQmzdv1p4UQgihfeJgxPjV1dWin/v9fkEQYrFYJpNxuVwej4cQUkuY93q9gUBAVdXJycn19XWXy+V0OmdmZhRFqTpNQojNZlNVtVQwvnbt2o5SK1Uatfjmm29EUfT5fJFIZNcTRwghVBcHI8YzuVyOvaaUCoKQSCSgnh2Px8PhsNPphBjPcVx/fz9rHieERKNRCGCU0sHBQUppLpeTZdnr9c7OzkIiH330kaqqN27cgAH14vE4x3FscL1gMOh0OqHNYHp6mk10Gw6HCSHZbFYQBEJIIpHIqxBzHFc4Sg9U7uF1XnXcIIelSoMZGBjweDyhUGhHjf/QPv/ee+9VvgpCCKF97oDFeFVVt7e34fW7775LCJmbm2NLFxcXKaWUUkVR+vv7RVHMZDLQPE5ehTFCyODgoNlsjkajGxsb586dM5lM8Lnb7eY4LhqN6kfMZa99Ph+0ty8uLtpstkAgsL6+zuJoW1sbISQWi1ksFkEQVFWNRCKU0s7OTvhCa2srzIy3trYGOZmZmclkMoSQoaGhvN0slUOD0mBOnDhBCGlvb6+kPAkhHMe5XK6enh5CyJMnTypcCyGE0P53MGJ8NptlL1RVhdcnT57M+1omkxFFsbOzU1EUi8VCCLl161beEPdwEXD37l2o0y8vL9++fbvotvIIgqBpGtS2KaXhcNjlcrEY39zc7Pf7NU3jOE6W5ePHjxNCLly4wGrqPM/zPE8IURQFYryiKHALIC/GV55DfWkwQ0NDbre78kp8T09PIBDQNI1tESGEUGM4GDGeNX1X3ins4cOHlFJZlqHmze6pQ8Wa9XqrvA+52WxOp9PwWlEUVVVbWlrYUlVV4WJCf0kxOjoKDezJZDIWi1XYd69sDsuWxo5a6ePx+Pz8/Pnz5yVJam5urr2DIUIIoX3iAI+B89NPP+V9Ap3hl5aWCCGyLF+5cuXu3bvb29tOpzMcDnu93kqSrbyVu2FomgY1+I6OjnrnBSGE0K45wDF+YWGBEGK329knMJE86wOvKMrExMS1a9ckSSKEnD17lhCytrZGCDl9+jR8x+FwsNXj8Xgul+vt7WXd9PRUVT116hS8ppSazeaXL1/uxX4Z5LBCcON/R2AreD8eIYQaycFoqy9KUZR0Oi0IwtbWViaTsdvt+klmh4eHt7a24DXcm4dn0FOplKqqvb29m5ubGxsbEPgZWZYlSRobG0skEtls9siRIydPnoTm60QiIUlSOByGPneEkGQyWUv+HQ7H0aNH4bXJZILAHI/HjXNYVigU4nm+vb19RzfX33//fbKTOxcIIYT2vwMc4wkhY2Njfr/f6XSKoqhpmv6ed1NTEzzJRgiBRey5+ampKUmSJEmCJ9OghR9EIpFsNiuKIlT9CSGsVSASiRw/ftzpdFJKNU2bnJyscWQ6SZIopfDabDZDzztI0yCHZcEwtKV6DhrbiyfvEUII1cubPn+8z+eTJIk9Or8PvZ4cut3uoaEhTdN+/PHHsbGxvIcREEIIHUQHux5fHZ/PB8+2dXR0WK1WTdPu379f70z9wuvPIbQf2O32pqamtrY2jPEIIdQA3sR6fDgchkZyVVVXVlb2YbV1/+cQIYTQ/vcmxniEEELoTXCAn51DCCGEkAGM8QghhFBjwhiPEEIINSaM8Q1oYGCgiqHu3lherzccDhcd3LC6RQghtE9gjN8vkslkMBisPR2Hw+HxeK5evVr5KpTS/XZNsFulUYmPPvpoe3u76JML1S16nXZaUMFgUJblZDKZTCarGCYZuN3u5CtFt74Pj6g6wtJAddTIz8fLsry6unrlypVkMqkoCkwLSwjhOM7v99vtdpPJpGna7OwsGwJPvyiXyz19+lT/3JrX6+3r6zObzYQQVVW/++47GFaPPeqm53K5qs65PsGdjkuTSqUymQwM3FshmAO36LB9pcqwarueYI28Xi/HcZ9//vluLdrPgsGgKIqKojx+/Jjo5jbcqfn5+VAoRAqmRWYMjqg3UBWlwXHcjRs3uru74UQ0OzurnxAyGAw6nU44fU1PT8uyXHYt4wT3278S7aJGjvGlRmb1+/2CIMRisUwm43K5PB4PIQTCfH9/vyAId+/e/eGHH6xWq9PpPH/+PAwwNzAw4PF4MpnMvXv31tfXXS7XmTNnOI5jU8rCeXO3sAQ7Ojp4nh8ZGan8j3ft2rXdysauj26734bLPXfunKqqRc+/1S3az2w2m6qqtZ/BNU2DfS8V41GN/v3f/91qtUaj0Ww2a7VaRVHc3NyEc5TP5xNFEU5foigGAoHl5WWYacJgLYNFZP/9K9EuauQYz+RyOfaaUioIQiKRgMvYeDweDoedTicc7haLBWarg0X6q2AI8Cx85p3fV1dXi868Hg6HCSHZbBYGz08kEmzSd0rp4OAgpRQGpc9bUZ/g8PCwIAiUUhg8v9RVPNTS4HXexXipbOhXYVPsFJ3qXl+GDFz3hEKhKqJdXoIGpWFQhhzH9ff322w2dl88b9Bf4xw6HA5KaTQarX2RQdWqVA7zdtnr9ebVrooyPmz02Xjw4EHe+Mccx7FJmxgYxpgUazHS1+rga2V/68qPqEL6drJMJnPnzh02SVLR4oUsJRIJQRAymczPP/8Mf204PPIOm3Q6rd+1Ur+XwcFmULy1/L+KHqKHDh1SFAXSj8fjoih2dXXBot7eXlVVIYX5+floNHrhwgUoKIO1DBbpFf2bowPtjYjxqqpub2/D63fffZcQMjc3x5YuLi5SSiGCvnz5kud5t9uddyI7f/48IaTw/FiJtrY2WNdisQiCoKoq/NMGBwfNZnM0Gi07udzc3JwgCJ2dnYqiwFW8oigw/V0gEFhfX4fczszMZDIZUqJ2VTQbsIrL5eJ5HlpfCSFLS0uFq+vLkDlx4gQhpL29fceFUpCgcWmUKsP+/n5RFDOZDGtEyZs6zziHFy5c0DSt6EQAO1pk8KMY5FC/y+fOnTOZTKVL6/8YFBREFKjhWa1WSZI2NjZkWaaUdnZ2wndaW1vh3vDa2hrkZGlpCQ7sKlqMClV+ROXxer2BQACmjzp8+LDdbr9+/brX6yWGxUsIOXbsWCwWE0UxGo0qiiIIAovKbW1t29vboVAIaq5+vx8WGSdY6mArVbwGa1VSGkUP0Ww2a7fbvV5vMpm8ePEiIeTRo0ewiF2oORwOmKOyo6Oj7FoGi/SK/s3RgdbIMZ7NvZbNZlVVhdcnT57M+xo0eUEEHRsbGxsbGxoaunTpUiKRYOdxGD0ezgJut5tNBMeux9va2ljno+fPn+sDQHNzs9/v1zSN4zhZliEpuKq4e/cufHN5edlgcjm4tT8/P08IEQRB0zQ4C1NKw+Gwy+WCjCmKAhX9ojG+aDZgFdh00fpZ0TJkhoaGCq+HjBVNsGxpFM08eTVr8K1bt0p1VjDIIaWU5/mi1207XWTwo5TKYeEu3759GxaxinUel8tlXFA2my2dTrMGKovFcvbsWVmW4X4wfIfneZ7nCSGKokCMZ4cNeVWnZHegqlD2iCqlr69P0zT4lQkhDoeDdRcwKF5CyMrKCvyFYWZIfc+Y5uZmaHiLx+MdHR12u72SBEsdbKWK12CtSkqj6CF68+bNgYEBn88XCARyudzk5CRsiHWThLY9aEyClg+DtYwXkXJ/c3SgNXKMZ5fz+tY2Y5qmXb582efzCYIgSZIgCDdu3Mg730GdAF7rG/P17eT6GK+qKrtnzz6EehU7ixVO3M4uGiwWC6U0k8nA6mazOZ1Osw2pqtrS0lLJrhXNRllly3CnrfRFEyxbGqUy//DhQ0qpLMtQJ5uZmWHhqmwOL1y4kMvlvvjii9oXGfwopXJosMusR1sh44LiOI7jONYmTF7NjDw6OgoHajKZLGw2p5RevHgR6pHQltDT0/P6uxqYzeZEIsF+X/2u1XLMs9crKyvsesg4wVIHW6niNV6rEoWl7fP5PB5PIpHY2tpqbW31+XzQ0nD06FH91zY2NipZy3gRqepUiQ6KRo7xRf300095n8A/X9+AFolEIpEIVKdu3LgxNDT0/PlzQghcbsMZU3+njRTc/64du2iA1sui8QbJsrywsPDBBx90dXU5nU5RFPMqKKVwHOd0Op8+fVp4Rq5u0S7mkPVoq0I6ndYHobW1NePvcxz36aefbm5uwq2E1tZWVil8/Zqamuq16QrttHirw3GcJEn6rgDj4+Mff/xxPB6Px+PQxnPz5k1YCt0/jdcyWLQX+Uf7yhsX4xcWFgghdrudHd8Wi0XTtKL1v0uXLsEFfiqVkiRpFx8HgrPD6dOn4W3hk8qlLhpUVT116hS8ppTqayQ1Yn36dmSnbfVFlS0NA6ypGdpI9c2nBjk8f/68yWT6y1/+UphgFYuMf5SiOaxul43X0jStpaVlRz9HT0+PyWT67LPPWG0PWvILsY3maW1tLZW4wRFV+KOoqtrd3V30NkHVx7z+eqW1tZV1KKsuwSqKV6/y0oCi3traYp/8z//8T3NzM8vGmTNn4DXHcWaz+enTp8ZrGSeIGtsbF+MVRUmn04IgbG1tZTIZu91OKWW3V8Ph8OLiIvRcs1qtZrMZFimKAt13x8fHHz16tL6+nndq09+PB8YdiaGzTG9v7+bmZtk+d3qJREKSJMinzWYjuv66DoeDNeWZTCboWlXJKembb74RRXFkZAQqc/qHaoyFQiGe59vb24v2Tatc1aUxPDzMzlxw5ztvYIBSOezt7c1kMkXPuVUsMvhRSuWwul02Xmt6ejoQCLBD9MiRIwsLC8bXbXDRAB0+2tvb33vvPXi7tLSkKAp0LhseHiavOoWxRbC6qqo8z8M+Hj58mFUTjY+ooj/KvXv3AoFANBqdm5uDEmP9WgyK19jm5ub4+HgsFrNarTzPs0BeXYJVFG91pQG/stPpfP78OTzqps/87Oysx+MJBoPQC8FkMkHmDdYyTrAsaLOs7vEZVHdvXIwnhIyNjfn9fmg4hZZwFo9fvnxps9n0jeRs0c2bN1VVFQQhEAgQQnK5HFwKAP39eFD2YaGpqSlJkiRJgoegij7KUgg6FjmdTkqppmmTk5PsjydJEutwZDaboU2vkr9lKpWKRqO9vb2wC/r9Mra8vEx0HXZqUV1pNDU1wdNK5NXvlXd1UjSHuz7ujcGPYpDDvF026HSpZ1BQ0IDR19fHDtGRkRHj1FKpVCwWczqdPM+rqjo1NQUB4MWLF4qi3Llz59ChQ4IgKIoSjUZv377NFrHMXL9+nT0wpk/W4Igq+qOwzLPiYk8nGhSvsdXV1ZWVFfgjwLNztSRYRfGCKkrjP/7jP/70pz95vV4YsiaRSPznf/4nLJqYmGhubmanL33mDdYyWFQhDPAHFM4fj9444XDYZDJdvnx5txbVzufzSZKU93A/qgU8s45DttUuHA63tbXBc4zowHkT6/HoTcZxHLsdsyuLqubz+eAJq46ODqvVqmna/fv3dzF9hHbLyspKvbOAqoT1eITqg81KoKrqyspK5VMSoEpgPX63FH3kEh0UGOMRQgihxoRzyyKEEEKNCWM8Qggh1JgwxiOEEEKNCWM8Qggh1Jgwxh88lFIYw25HixpbMBiUZTmZTCaTSeNxYd1ud/KVvKEJEUKowTTy8/GyLK+url65ciWZTOqHf897FKT2Z2w4jvP7/Xa73WQyaZo2OzvLxjLTL8rlck+fPtU/IuX1evv6+mBUbVVVv/vuu6Lzg+XlEKYKLTrslMEiA263WxRFGGdN07THjx/v3XMypX6UWsBYm4qiwFihbFq2otisbkXnb0UIoUbSyDF+dXX19WzI7/cLghCLxTKZjMvl8ng8hBAI8/39/YIg3L1794cffrBarU6n8/z58zCWGczVnclk7t27t76+7nK5zpw5U8vU3dXxer2BQEBV1cnJSciG0+ksOknrrtiLH8Vms6mqWuHlApvVDWM8QqjhNXKMZ9h8U2VxHNff32+z2TiOg0/0w4sGg0Gn0wmV9QcPHsDnlFJBEBKJBNR94/F4OBx2Op0Q4y0Wi6Io8BrmpWUbggB/7do1+KSSyrd+Qls2iwbU+A0WkVctAdlsFgYDh7G74WLio48+UlX1xo0b8BZmomTXGfpdnp6eZlO65SWon7bSYJFe0R8Frnt2OvsFx3FsViEGpgYmhGia9uOPP1Y4wkwVBwBCCO1bb0SMV1V1e3u7km/29/eLopjJZKDVlxCSSqXgBQRRqKxbrVZJkjY2NmRZfvfddwkhc3NzLJHFxUVKKUwl+fLlS57nC2fSPH/+PCGkMDIZm5mZgaYCnuehwZkQsrS0ZLwItLW1bW9vh0Ihq9UqiqLf779586bb7eY4LhqN6uMfe+3z+aANHKbnCgQC6+vrbEfa2tpgFywWiyAIqqqymGewiCn6o5w4cYK8muKsLEppZ2cnvG5tbYWOCGtra/CTLS0tQfF2dHTwPD8yMlJJRb+KA6CSrCKEUF00coxnUzlls1lVVStZBWb/vHXrVmGdz2azpdNpVlm3WCwwEfjJkyfzvglzPnZ2diqKMjY2NjY2NjQ0dOnSpUQiwUIdDFQO8dLtdrM5x1hF32KxsB5hbW1t0MQNM5HDl/MuGgwWgebmZmgziMfjHR0ddru9sKDyCIKgaRqERkppOBx2uVws8ebmZr/fr2kaTIsOe1R2kfGPMjQ0VPmE9ND5AF7zPA8TnyuKAlGZzdpOXjUPVHIfpIoDoJKsIoRQXTRyjGdNxEXbiot6+PAhpVSWZai86m9LcxzHcZx+nulK7lhrmnb58mWfzycIgiRJgiCwVnEGKtbwmsV4aAlg36n9NrY+oK6srFQyk6nZbGaTTCuKoqpqS0uLPkHYkcJwaLCo7I9SeSv96Oho0S6KgFJ68eJFaBIwmUyEkJ6enrKJ7/oBgBBCddTIMb4KsiwvLCx88MEHXV1dMEPz5OQkq6ul02n9KX5tbY0Q8tNPP+UlAuFT304eiUQikQjcIb5x48bQ0NDz588JIVBnhVilv6FOdLfSyas73HunwrbxA4TjuE8//XRzcxOa3FtbW+HhhbKqOAAQQmjfehNjfC6XgyZZwFrCAWvjhXZm1h6raVpLS0thRXBhYYEQYrfb2SKLxaJpWmElLx6PX7p0CarCqVRKkqQqnnNj4H5/5Yv0Qa61tRW6vMXj8atXr/b29t6/f79odfzUqVMsTX21fu9U3lZvoKenx2QyffbZZ5CUz+eDlvw8ra2thR/u9ABACKF9602M8U+fPoWOaS9evLBYLBzHPXjwABYNDw9vbW3Ba7gOePbsGbydnp4OBALj4+OPHj1aX18/cuTIwsICxIN0Oi0IwtbWViaTsdvtlFLWmS4cDrN5x61Wq9lshkWKoiQSCUEQWIJF401R33zzjSiKIyMjUEnd3Nxkj+MbLNrc3BwfH4/FYlarled5Fq1lWZYkaWxsLJFIZLPZI0eOnDx5EpoQEomEJEmwCzabjeh67O+RUCjE83x7e3uNXdahhu1yuQgh7e3t7733HrxdWlpiVz+qqvI8D7/44cOH4d5BFQcA2yi0xOz0oQCEENo7b2KMHxsbu3HjRnd3NzwEFYvFWERpamqCJ74IIbCIxUiozPX19QUCAUJILpcbGRlhCfr9fmjahbVYM/vLly9tNhs0wuctunnzpqqqgiCwBOFSoKxUKhWNRnt7eyFZ/VoGi1ZXV1dWVuBxMnh2Dj6PRCLZbFYURUmS4BMWtyKRyPHjx51OJ6VU07TJycm9jl7Ly8ukdB/AyqVSqVgs5nQ6eZ5XVXVqagqubF68eMH2bmpq6vr16+wBP/iwugNADwM8Qmj/wPnj3wi1j+WHygqHw21tbV6vt94ZQQih/4Xj1SO0a1ZWVuqdBYQQ+j8Y4xHaHZRSjPEIoX0F2+oRQgihxoT1eIQQQqgxYYxHCCGEGhPGeIQQQqgx/dNbb71V7zw0joGBgWPHjv3www/1zghqfPv/YNv/OUSo4WE9ftc4HA6Px3P16tXKV6GUwoyoyEA4HK5uxP4GLt79f7BVkcPXpuojatcTbOBDFO0TjTzOnSzLq6urV65cSSaTiqKwEWD0A7LmcrmnT5+OjY2VnXW0rFQqlclk2NCnlYDZUXdrZLRwOKyfqo78cmKb10afDU3THj9+/PrzAAyKt9SxUbVdT9BY3Q+2sqrI4RvodR6i6M3UyDHeYD5WmDmUENLa2srzPMwFV/sWYYL2epmbm1tcXLRYLJTSdDr94sWLCgfH3XUQ2gkhFotFFEX9sPn7RO1z9e51gmXV92CrxP7P4X72+o8o1JAaOcYzMMea3uLiIqtcwjwobFEwGHQ6nTCU/YMHD9hQ9pTSwcFBSmkul5Nl2ev1zs7OQiL6aWHzrrg5juvv77fZbBzHwSfRaDQSiehXYe0K+mp30WzA7LSEkEwm8+TJE6/XazKZEokEzKcC3wkGg5TSZDLJKgewFkyBk8lkfv75Z0EQ2FosTU3TfvzxR32ThsEuGxQUIWR1dZV9LZlMNjc3s9esfGC7+hlcvF5vX18fzI+XyWTu3LmTSqUKf80vv/wyl8uxQi6ajbLFyxQeG4SQgYEBj8dT3ewy+gSNf69SmScH4WAzUCqHr/84NDY8PCwIQl5L3kE5RBGq0BsR41VV3d7eruSb8MeLxWKZTMZqtUqStLGxAZORDA4Oms3maDS6sbFx7tw5k8nE1pqZmYEac2FjQH9/vyiKmUwG6rWEEDgpwCoulwtmwINFbMr5UtmYn58PhUKXLl06dOiQ3W6PRCJvv/22IAhzc3Nlo9GxY8disZgoitFoVFEUQRDg3Lq0tART4XV0dPA8PzIyws5NBrtsUFCEkLa2tmAwSF5NszszM1O25L1ebyAQgGlgDh8+bLfbr1+/Xjj2O8dxZrOZTSFTKhvGxatX9Ng4ceIEIaS9vb1sto0TNP69GvVgM8gheb3HoYG2trbt7e1QKHT69GmPx1NJS96+OkQRqlAjx3g2fVk2m1VVVb/IYrFAEIK2ejbRqs1mS6fTcCkdj8ctFgtMH04ppZTevXsXrsGXl5dv377NUmMzjheeJmB+0lu3buXd74dVrFYrKTZTWalsaJoWj8c//PBDSuknn3ySSqUopYIgWK3WsjF+ZWUlk8mIogizybFb5izz5FX9leM4TdOMd7lUDmEpx3Fsqr3Z2dlKWh37+vo0TfP7/VBQDoejaH9sv99PCJmbmzPOhnHxEsNjgxAyNDS002nsiyZo/Hs16sFmkEPyeo9DY+xWwokTJ7q7u8t+f18doghVqJFjPGtULGxdhBMHvM5kMmyiVY7jOI7Td8qD805nZychhP2lizbQFfXw4UNKKfylFxcXZ2Zm9DOOl1IqG3qQB0VRYJb0qlFKL168+P+3d34xbV3Zwt/V5YbgCAVCTlIQ4+AEOmeaFIfare07pPaZRi1GoGTu4NuK3hvX5OFmIOpE5QF6545QRFvIA5FSpcUvt45H85DGeQhKFVtVK5uqkc1MkHBIpDMKKegIQZoDBURwEo1u9D0sZX/n2j7bxvwzZv2e4PzZe5299/I6a5299wKfFTwkg8EQCATYj8yWkEY7Icr6+uuvnzhxgi0GuD7UOMVVB4EBOtWA/iam01BJYYwNYLlR+pQFJvbXFhxsDNZiHDJQvnfOzc0pYwNqZNsQRZB0yGUbzwC+e3Ec5/V6Hz9+rPR7IpGIUiEXFhZWUpHP5xsdHT169GhVVRUkmP/888/T8TNWVww1OI47f/780tISRHeLi4vhW2M6pCOhKIrXrl1L0y0uKChgyJn48TJ9MbKWLTXYGKz1OGSzffv2NK/cgkMU2exsURsPyLI8NDQkCALP8/ByLctyUVFRojUCtaysrIR/LRZL+rXQICTHcT6fLzGWSGtXCpZUjFXHYDBoNJrPPvsM6nK5XHT6IfuR05dQ7as2LRmQJKm6uhrCs4kXQ2AA3slOnjxJ601HjMTmTYflxuozYKsNNgbrMA7V4DjOZDIlXYGS5UMUQdJhK+5z9/7774+Njd28eZMQ8tNPPzU0NOzevfvbb7+Fs/X19TU1NYWFhVqttqam5tmzZzMzM5OTk7/5zW/0ev22bduqqqrq6+tffPFFWojFYjl06FBlZWVtbW0sFnv8+HFlZSVEF7u6usxmc21tbW1t7b/+67/u3r37hx9++Otf/wp1PXv27OjRoyaTaf/+/bW1tTU1NfRUUjF4njcaja+++urOnTsfPHjAcdzk5CR9LpfL9fbbb+t0ut27d+fl5RkMhsLCwrGxMRBsbGzsp59+qq2tvXTpUm1tbVVV1aVLlziOO3r0aF5eXl5e3pEjRw4fPvziiy/m5eVNTk6OjIwwHllNQkJIQ0NDSUkJPNHRo0ffeuutf/zjH1988UUsFqupqTl06NC+fftsNtuBAwdAzsnJyZmZmby8vF//+tcNDQ2VlZXQYi+99NLIyAgUSAj5+uuvY7FYcXHxa6+9tnfv3pRisJuXTW9v77vvvvvCCy+AABnD7i814TfFYGOgJuE6j0MGDQ0NGo3m8ePHR44c+c///E+NRvPJJ5/AXZtliHZ0dHzyyScPHjzAbQQRNlvajyeEiKIYiUTMZjO8SoPT09jY2NbWRgiJxWJeL0VcAAAgAElEQVTd3d1wZX9/v9PpdDqdsIAHJssATqeTft3XarUw1Qje3AsKCgRBgFMwI1e5UjwcDnu93vr6eojyUWdCTQzYMQOu6ezsFEVR+VHQZDJRMagbxHYgwuGw3++3Wq1ms1mSpP7+fr1ebzab5+bmRFFkPDKjocj/jVtCseD6XL58OT8/XxAEURS9Xm9PTw+tixZIm8vr9SYKfPHiRavVarVav/zyS1mW2WKoNW9KwJjRSU8Zw+6vTT3YGDAkVGONxiEDEAwWzn366afUjd4sQxTY2OgLsinA/PGZ4HK5nE4nLD7eaFnWiS34yFlCFrY8Xcsex9rNyKOk2RobKOH64Ha7S0pKElfuIUgcW92PTx+Xy7Vnzx5CSFlZmV6vl2X566+/3mih1pYt+MhZQpa3PCydX7fqMmiNdZZwQ5iamtpoEZBNANr4dKGRcEmSIpHIqmxxn+VswUfOErK85WHp/LpVl0FrrLOE6w/P87BlEIKwwVg9giAIguQmmFsWQRAEQXITtPEIgiAIkpugjUcQBEGQ3GQr7oGDrCKnT5/etWsXbsSRA2BXbhTY8sjagX78Vsftdrvd7szutVgsTU1NH3zwQdxxnufr6upWt67lsinqUmuo9UetKxHKGo2obFYiBpmJserC54DqrTW5vHbO5/PNzs6eOnUqFArRTGiEELfbTffhAiBFzTqLx3Fca2uryWTSaDSw31ZWLZECzaGNBoRCoWAwSBNhhcPhaDR67969uHthi7RlLV6CpB2QQ6Wrqws2GourfbVQDgBZlm/durX+vQ8wGkpt9GYMu0C1rkTWmlVUIiR91lP1NpZctvFqacuHhobGx8dpFsi5ubnlbiG5KrS0tAiCcPXq1bGxMb1eb7VaGxoasmcvM/I8xWccT548Uf5Lk3CvnFgsZjAYfD7fgQMHYrHYahWbFDDthBCdTme325eWlpTbvmYDaqN37Qpcxa5ElgW2fFax6qq3seSyjafEGQywox0dHTzPh0Ih+ioH+18Gg0FBEKLR6M8//ywIAnVb6e6Ysizfv39f6XNDlnSe52E/bYfDMTg4SF3Djo4Oq9Wq0WhkWb5x4wa14jqdThRFMC2BQCDOlVS7S00MejwajY6MjDgcDo1Go/S5HQ5HY2MjpOyMRqOXL19Wbj8OrjMhhN4yPj4Oe2hbLJY33nhjYGCguLiYEPLjjz+CeHQzc+WrrvI4zacZFyZJrAu4d+/egQMHOI7TarV+v1+n07EfmRDCcVxLS4vRaOQ4Do6o7XL65z//ORaLUTlnZ2epSKFQaMeOHfRv+jhQb29vLx0h7DZUqytpV6bTUEDS153Tp083NTUpZUufuALVunKd1YEBu5c3XFMYQNvabDb4w+FwGAwGOqjWQomSknFXZqxfbED4uODlZlG9TceWsPGSJD19+jTNi3ft2uX3++12u9frFUVREATQhImJCdhYqqyszGw2d3d305F05swZrVbr9XofPXr05ptvKt1fGE9+vz8ajer1eqfT+ejRI0hTMT8/bzabk+YwZdylJgZs3tnc3Jyfn28ymTwez8svvywIwtDQUCAQcDgcbW1tkKdk+/btJpPpww8/pJtdl5SUzM/P9/b22mw2QRAkSVKq8RtvvGG322moY3FxkRAyMDAAR+J2BYfjNpvNbDbTzUQnJiboBYy6pqamqqqqWlpa4vJsMlq+paUFZAOnnBCSVPPhvSEYDCrF6OjoIITodDpZlgcGBhLvioPdhmp1qXVlyoaiJB295eXlRD1vL5u4AtW6Elg3dWDA6OWs0pREotGo3W7nOG779u2yLBsMBkioMzw8zGj5lSgRgwy6MmP9YlBSUvL06dPe3t7Kysqmpqb29vakA09JVqnepiOXbTzNGzY9PS1JUpp3TU1NgWZ6PJ49e/bQD7c0Mzd57kVBJmme53mev3r1KqjZ5ORkT08PLc1oNEYiEXhDDAQCOp2OpvTu6+vr6+vr7Oxsbm4OBoNKLWXcpSYGbN55/Phxnuc/+uijcDjM87wgCHq9PhAINDY2yrLc2toKr8wWi0U5iXfHjh00OVgoFIK9wcFft1gsZWVloijq9Xo4AspAxYjTTzgOP2RJXcykdVHu3btntVpv3LhBHWvGIxNCwNf/+OOP2fMYWltbCSFDQ0P0CM2MJ8vy4OBgOtE5dhuq1aXWlSkbij16Ozs7l5vhXq1Ata4E1k0dGDB6ORs0JSUGg6G0tPT+/fv0nQwKXyMlUmO5XUlWoF9s6LeJ8vLy6urqlNdnleptOnLZxtMQVspYVjrwPP/OO++AloJrYjAYAoFARUUFIYSOubj3XI7jOI6jESFCCFUnWZZPnDjhcrkEQXA6nYIgtLe3wyBm3KUmhrJSkEEURZplC15vqaLGCZl0HIO/vnPnzvz8/Onp6e3bt+/fv18pSWawdebevXt6vX54ePiNN96gBxmP/N133/E8D3o7Pj4+MDCgFA+cdTrxQtlKNCoIgeXXX3/9xIkTbMnZbahWF6Mr2aQcvcuN0me5OjBg9HI2aAoD8NcJISUlJd99993+/fu3b9++Qg3KQAw2a6FfDJTv03Nzc0kn/cSRbaq3uchlG7+KcBx3/vz5paUliFkVFxfDl6F0iEQiynG2sLCgPOvxeDweD3x/Uoatkt61EjEKCgrSvBKAn6fCwkKe569du3b8+PHx8fG1nvZ/8eJFmKBAbTz7kX0+3+jo6NGjR6uqqqxWq91uh5n59N7ED29xiKJ47dq1NN1iRhsy6mIPgM3I2qlDUti9vOGawgD0Bczn4uJiWVlZfn5+VoV/11q/2Gzfvj3NK1H1MgZtfFoYDAaNRvPZZ5+BGXC5XGazGU7BuKmsrIR/LRaL8kZZlouKilIaj0Ag0NzcXFRUxL6LIQYbSZKqq6tpCC4d4MqXX345FotNTEzAV7RlzTjleX7lLkvKR6aRRo7jfD6fMvYLzjrHcV6v9+TJk2q9oPZVm/YpwG5DtbrSGQCZNdRyY/WryFqrQyJqvZwNmsJGluVf/vKXs7Ozw8PDx48fJ8vMCbsqSsRgHfRLDY7jTCZT0jVNWa56m4utaOMhHTV8arLZbHq9PhqNsocC/HJBQK+0tPTw4cPw78TERDgcliSpvr5+aWnp0aNHtbW1yhuvXLnS1tZ24cKFH374YXFxsbCwcHR0FEaV2+0eHx+HIa7X62EyOfsuhhiEkIqKCgh81dXVLSwsKCNa169fb2tr83q9Q0NDsPjt4cOHKefpyLJ84MABSZJEUeQ47vHjx3Nzc3DKYrHs3LkT/tZoNLCbBG3D77//3m63d3d3g3OwkpVpjEcWRbGrq4uu5YMOTVxnDFNqm5qaOjo66NRZOucOpvDEYjGIW8D0nK6uLvLc9tO60mnDxLoYA2AlDdXb22s2m0tLS1e+2JLdlUlZC3VgwOjlLNEUBrOzs2VlZffv35dlGVxk+sF43ZSIwRrpFwN40tLSUlgX0N/fD8c3i+rBVL7MlrRsCFvRxtN01IQQ+tLK7rBwOOz3+61Wq9lsliSpv79fr9ebzea5uTlRFPv7+51Op9PphMVCMJsDgHfexsbGtrY2QkgsFuvu7oZT8/PzRqORzvxSLt5Qu4shBiGEBqw6OztFUVT+ctECQa8IIV6vN2VDzc7O8jwPbyHwC3X37l045XQ6aRtqtVo6A4g2l9frra+vB5FWsv0Au+ULCgroE0EbJlXUixcvWq1Wq9X65Zdf0hkPtLmgWDh++fLl/Px82IHH6/X29PTQutJsw7i6GANgJQ01OTlJFJODVgK7K5OyFurAgNHLWaIpDJ4+fcrzPCiOJEk8z9NeWzclYrBG+sUAnhQWzn366afU6G4W1QM2i4EnmD9+1XG5XE6nU20VKYJsKdJUB7pEOw46FS6byRLhUYz1we12l5SUJK7cy1q2oh+/6kDwnxBSVlam1+tlWf766683WigE2RgyUAdYs74u0q0+WSI8irFuLGtGxYaDfvwqQPc/lyRpamoqq7adR5B1BtUByWFCodCG5DfJGLTxCIIgCJKbYG5ZBEEQBMlN0MYjCIIgSG6CNh5BEARBcpN/2rZt20bLgGxiTp8+vWvXrqQpIpAtDo6NjQJbHqGgH7/Vcbvdbrc7s3stFktTU9MHH3wQd5znedi0axXrUkOtrlVnLYRf9brWrTVSojY2EMoajagtpZUMMnuuVW+NDdflXF4f7/P5ZmdnT506FQqFaJ4xoljbQ9mQtRAcx7W2tppMJo1GA7s+ZdUqIxiXtNGAUCgUDAZpOqZwOByNRhO3tzx27Jjdbl+fraDU6oJcFJBCo6urC/bPinuc1UI5omRZvnXr1kYtrWG0vJo6ZAy7QLWxgaw12ayVSPqsli7nso1XS6AyNDQ0Pj5OcxHOzc2t0T6RbFpaWgRBuHr16tjYmF6vt1qtDQ0NWbU7XtK0j3T/aoCmgs5CYrGYwWDw+XwHDhyIxWJrWheYdkKITqez2+1rtLv4SlhWPqFVKTCbx0Zugy2f2yxLl3PZxlPift/BjnZ0dPA8HwqF6IsS7MIYDAYFQYhGoz///LMgCNRtpXs0yrJ8//59pc8NOch5nocNuh0Ox+DgIPXkOjo6rFarRqOBrAnUiut0OlEUwRIEAoE4z0/tLjUx6PFoNDoyMuJwODQajdLndjgcjY2NkBUjGo1evnxZuU03eLqEEHrL+Pg47ORssVjeeOONgYGB4uJiQsiPP/5InidmgHuVL5LK4zSrY1yYJLGuxEe+cuUKTW+lfFeFx4SEECnrunfv3oEDBziOg3w/kFSD3ZUcx7W0tBiNRo7j4IjaPqx//vOfY7EYffDZ2VlabygU2rFjB1v4dDpFra6kYyOdlgeSvu6cPn26qakps0wbcQWqjY111i8G7F7ecNVjAG1rs9ngD4fDYTAYkmpE1mplUjIeGxkrLBtojbjw6mbR5Ti2hI2XJCn9nM27du3y+/12u93r9YqiKAgCjLOJiQnIC1dWVmY2m7u7u2k/nTlzRqvVer3eR48evfnmm0r3F3rL7/dDViWn0/no0SPQk/n5ebPZnDRDKOMuNTFgC8nm5ub8/HyTyeTxeF5++WVBEIaGhgKBgMPhaGtrg6wSkGntww8/pFsul5SUzM/P9/b22mw2QRAkSVIqyRtvvGG322moY3FxkRAyMDAAR+L2pobjNpvNbDbTLS0h2Re7LpfLZbfbRVEcHx83Go1tbW2Li4tse5OyrqmpqaqqqpaWlrjMZoyubGlpgYcFp5wQklRR4b0hGAwqnwsS2el0OlmWBwYGGJID7E5Rq0ttbKRsDUpSdSgvLyfqaXbZxBWoNjaAddMvBoxezirVSyQajdrtdo7jtm/fLsuywWCAlD+QNXFTaCWDDMZGxgrLAPJo9/b2VlZWNjU1tbe3Jx3JSrJKl+PIZRtP8ztNT09LkpTmXVNTU6BIHo9nz5499DsrzaNMnjs9kM+Y53me569evQpaMTk52dPTQ0szGo2RSATevwKBgE6nowmY+/r6+vr6Ojs7m5ubg8GgUrcZd6mJIctyIBA4fvw4z/MfffRROBzmeV4QBL1eHwgEGhsbZVlubW2FF1KLxaKcc7tjxw6a8yoUCsFm4+CvWyyWsrIyURT1ej0cgaFGxYgb/XAcfneS/hYkrYsQIgiCLMugujzPu91um83G/jVJWRch5N69e1ar9caNG9SxZrQheZ5A8+OPP2ZPjGhtbSWKJKFEkchOluXBwcF0gmnsTlGrS21spGwNtjp0dnYuNyG9WoFqYwNYN/1iwOjlbFC9lBgMhtLS0vv379N3Mih8s2ilGssdG2QFCsuGfuwoLy+vrq5OeX1W6XIcuWzjacQpZQQsHXief+edd0CpwJMwGAyBQKCiooIQQns07i2S4ziO42i8hRBCB6ssyydOnHC5XIIgOJ1OQRDa29tp5lO1u9TEUFYKMoiiSHM9wcsjVYM4IZOOEvDXd+7cmZ+fPz09vX379v379yslyQy1EanVaiORCPwtiqIkSUVFRSupCLh3755erx8eHn7jjTfoQUYbfvfddzzPg5qNj48PDAwonxecdTqTQ9nsNIgHgeXXX3/9xIkTbNnYnaJWF2NssEmpDsv9Rc5y/WLA6OVsUD0G4K8TQkpKSr777rv9+/dv3759hSrJEGONtHK5rIXCMlC+oM/NzSWdlhRHtumykly28asIx3Hnz59fWlqCiFBxcTF8d0mHSCSi7MWFhQXlWY/H4/F44OuOMiiU9K6ViFFQUJDmlQD8mhQWFvI8f+3atePHj4+Pj2fPtP80uXjxIsx4oDae3YY+n290dPTo0aNVVVVWq9Vut8PMfHpv4neyOERRvHbtWppuMaNTGHWxR9RmZO30KynsXt5w1WMACgjWbnFxsaysLD8/P/0PkZuRtVZYNtu3b0/zyqzVZbTxaWEwGDQazWeffQa/2i6Xy2w2wynolcrKSvjXYrEob5RluaioKOVvfSAQaG5upu/IancxxGAjSVJ1dTUNcKUDXPnyyy/HYrGJiQn4RrWs+Zw8z6fvYUiSdODAAXqj0oFQQts547pStiENDHIc5/P5lLFfcNY5jvN6vSdPnlTrVrWv2nHCsztFra50RtSyWp6y3Fj9KrLW+pWIWi9ng+qxkWX5l7/85ezs7PDw8PHjx8kyU51mp1YyWAeFVYPjOJPJlHTVVZbrspKtaOMhvzV8yLHZbHq9PhqNshsafmgg/lZaWnr48GH4d2JiIhwOS5JUX1+/tLT06NGj2tpa5Y1Xrlxpa2u7cOHCDz/8sLi4WFhYODo6Cn3mdrvHx8dhAOn1epj7zb6LIQYhpKKiAsJKdXV1CwsLynjR9evX29ravF7v0NAQLH57+PBhyhnIsiwfOHBAkiRRFDmOe/z48dzcHJyyWCw7d+6EvzUaDezVQNvw+++/t9vt3d3d8OqdzkKyYDDodDqhTYxGI1G88MKElK6uLvLcfMIjQzMuty5GG4qi2NXVRRcHwghJXGcMM2Cbmpo6OjroTFc65w5m3MRiMQiEMIRPp1MS62KMqMxaHujt7TWbzaWlpStfvckeG0lZC/1iwOjlLFE9BrOzs2VlZffv35dlGTxa+n1382olgzVSWAbQdKWlpbDQoL+/P+UjZ5Uuw1Q+Oud/K9p4k8lEZ3PQV0L2b1A4HPb7/Var1Ww2S5LU39+v1+vNZvPc3Jwoiv39/U6n0+l0wtoemCsBwBtlY2NjW1sbISQWi3V3d8Op+fl5o9FIJ2opl0ao3cUQgxBCw0GdnZ2iKCp/aGiBMGoJIV6vN2VDzc7O8jwPbyHwg3L37l045XQ6aRtqtVo6YYc2l9frra+vB5HS2X4AZtlYrVae52VZ/vzzz2lply9fzs/Ph01svF5vT08PbfkM6mJ3ZUFBAW0i6JSkenXx4kWr1Wq1Wr/88ks6hYK2PxQLxxnCp9kpcXUxRlRmLQ9MTk4SxVyelcAeG0lZC/1iwOjlLFE9Bk+fPuV5HjRRkiSe52mvbV6tZLBGCssAmg4Wzn366afU6G4WXQZoT2H++FXG5XI5nU61NZoIgqyENPWLrqiOg06Fy2Y2tfAMsuS5skSMtcPtdpeUlNCVe1vRj191IPhPCCkrK9Pr9bIsf/311xstFILkCBnoF6xZXxfpVp9NLTyDLHmuLBFjTVFO0UA/fhWg25VLkjQ1NZVV284jyGYH9QtB0icUCim//KKNRxAEQZDcBHPLIgiCIEhugjYeQRAEQXITtPEIgiAIkpv807Zt2zZaBmSVOX369K5du5ImRUAQhJL9mpL9EiJZDvrxuYbFYmlqavrggw/Sv4XnedgSC2HgdrvdbncGN2ZJ826UGKFQCHYAJCtow7Ug+zUlAwnXjVXvys2uX1lLLq+P9/l8s7Ozp06dCoVCNC0Y7POXeDHd+S8DlEkFotGo3++nRdFlP4QQWZZv3bpFlzQo74I9lVZlUVA4HI5Go4kbOjI4duyY3W5frb3KlY8MKBdyrBuMll9nGM2bdIiuBEaBq9vLOcCGa0pKMpBwC7Ke+rUZyWUbnzSBCt0RsLi42Gw2RyIR2I0S9p3OGMhsCHuV6/X6wsJCmhcBDAwhRKfT2e125bbDcBcVRpl3biXQ5McbwtDQ0Pj4OE2kODc3t5KdLFcCo+WzhGXl+NmQAnObjdWUdMh+CbMZVAeS2zaeEovF6N+BQADe+Orq6sxmcygUoi+AsMdhMBgUBCEajf7888+CIASDQcjRC3Gk6elp2JE4Eoko3e7x8XFwEzmO++KLL/7t3/6N2vjZ2Vml775jxw4qDL2LPE8KQk91dHRYrVaNRgOZDOjOnZCenOd52Lvb4XAMDg5CIcoQRdxLK8dxLS0tRqOR4zg4AruBKm+hcQWl251UDLoZZDQaHRkZcTgcGo2GNhRc09HRwfN8+s1Ly5Rl+f79+8q2ZTwyo6EYLa98qYd6lVEch8PR2NgI2T6i0ejly5fjskEDf/7zn2OxGG3kpGKkbF6KcohSTp8+3dTUlFmESVkgQ4yVjHk14vor8YKuri5BENKMXbEHG9nMmsJATcL1VyI2Sbtys+jXFmFL2HhJktJPsbxr1y6/32+3271eryiKgiBQhYT8qr29vXq93m63t7a2JuqqLMuDg4NNTU0WiwXGLs1IptPpZFkeGBhIKQOMXb/fD5mOnE7no0eP4OfyzJkzWq3W6/U+evTozTffhGxXwMDAAHjMicGAlpYWu90ejUbBryWEgGxwi81mM5vNdH9HGtJQEwM2g2xubs7PzzeZTB6P5+WXXxYEYWhoKKU1UmveiYkJSLtXVlZmNpu7u7upejMemdFQmbW8w+Foa2uD5BYQlfnwww/pzs8UjuO0Wm0wGGSLwW5eJUmHaHl5OVHPVMtGWWBKMVY45uNQ9ldcmjhlgZWVlU1NTSljV+zBlquawpCQrK8SMVhuV5Is068tQi7beJqOaXp6WpKkNO+ampqKRqN2ux1yLik/Le/YsQNCZ4FAoKyszGQyJS0BJsHSJI80IxmYf2X4SKfTgRGiHw7guNFojEQi8DYaCAR0Oh0kReZ5nuf5q1evwmvs5ORkT08PLY3mUU7UNMi6+PHHH8f5THALJPJK/NFRE0OW5UAgcPz4cZ7nP/roo3A4zPO8IAh6vT6ljVdrXio8ee6/QjJm9iOrSZiy5dVobGyUZbm1tRUaymKxJJ3S3NraShQ5PdXEYDcvSTVEOzs7l5vTPWmBKcVY+ZinJPaXMk0cQOPP5eXl1dXV7ALZgy1XNYUhIVlfJWKzrK4kWaZfW4RctvHU4UjpeaSJcpRMTU0l/nglhYatIFz2+uuvnzhxAk6B7sHf0Wi0r68P/uY4juM45aQ8UN2Kigry/B2CPPcw0uG7777jeR60Ynx8fGBgIGWObYYYSkAGURRXmLWJ5/l33nkHfFZwMgwGQyAQYD8yW0JGy6sB3gP9fY+rDgIDdKoB/VlJp6GSknKILjdKv+FjPuUQVb5pzc3NKR3KlCQOti2oKQzWQokYZNCV2aZfW4FctvEbhVpwVRTFa9euKZ0z+HTEcZzX6338+LHSdYhEIsoxvbCwsBKRfD7f6Ojo0aNHq6qqrFar3W7//PPP03lVX10x1OA47vz580tLSxAgLS4uhs916ZCOhIktz6CgoIAhZ+L3v/TFQOLYvn37ygvZUprCYK2ViE36XYn6tc6gjV8GSp0pLi5OOo+D47j6+vpYLJbUliQ1/7IsDw0NCYLA8zy8n8qyXFRUlFgCjOzKykr412KxpC88jeNxHOfz+RLDcbR2pWBJxVh1DAaDRqP57LPPoC6Xy0WnH7IfOX0J1V68aMmAJEnV1dUQ4Uy8GAID8E528uRJWm86YiQ2bzosN1afkuWKkc6YV5L+EOU4zmQyrXDNxVbTFAbroERqMLoyy/VrK4A2fhksLS1duHDB7/fr9Xrl53Py/Ms6zCLRaDRer5eeojO/4GwsFhseHo4r+auvvhIE4f3334fPb1euXGlra7tw4cIPP/ywuLhYWFg4OjoqimI4HJYkqb6+fmlpKXFCk8VioZMANBoN7AsBitHV1fXkyRMqKiFEuej2+++/t9vt3d3d4AHQNWZqYvA8X1FRAaG5urq6hYUFZcwNsn1DLTabTa/XR6NRtn7CbxDEMEtLSw8fPgz/TkxMsB9ZTUJ2y8PMna6uLvLc9kNdoihev369ra3N6/UODQ1Biz18+DBumjHM7G1qauro6IBvhGwx1Jo3JbDUorS0NP15zgwyE4Mx5pPC7i/yfGSWlpbCXP3+/n52gezBtqk1hQFDQjXWSIkYqHXlZtEvmMq3kp1RNgVo45fB7Ozs1NQUmGFYR0RP0S/rcXvgkP8bgJIkqb+/P/EdVhTFSCRiNpvhbRT8hsbGxra2NkJILBbr7u6GK/v7+51Op9PphDUwyu+jTqeTft3XarUgJ0hSUFAAekgIgUmtSjUIh8Ner7e+vh7kpO/jamLAphNwTWdnJ/yk0tJMJhMVg3oSbC0Kh8N+v99qtZrNZmgisChzc3OiKDIemdFQjJa/fPlyfn6+IAiiKHq93p6eHloXLZA2l/J1jXLx4kWr1Wq1Wr/88ktZltliqDVvSiYnJ4li3tAKyUwMxphXI66/qqqqlGdhZMJqq08//TSlLWEPtk2tKQwYEqqxRkrEQK0rN4t+Ablt4Anmj08fWCucVTsluVwup9MJ63c3WpZ1Ygs+8gaiNubpOuw4Mp5NtuoFxpGFw2atH5lBmq2xgRKuD263u6SkJHHlXo6BfvwmAyLhhJCysjK9Xi/L8tdff73RQq0tW/CRsxxY9p3NBZKsHzZr8cgMMmiNdZZwQ5iamtpoEdYctPGbDBoJlyQpzX3HNjtb8JGzHFj2nc0FkqwfNmvxyAwyaI11lnD94XketgzKbTBWjyAIgiC5CeaWRRAEQZDcBG08giAIguQmaOMRBEEQJDf5p23btm20DAjy/zl9+vSuXbuSZln7o3QAACAASURBVKpAEARBlgXOq0eSo1wdG5eSmXEqswIpFoulqalJbSdgBEEQZFnkso33+Xyzs7OnTp0KhUI0BRkhhOO41tZW2HQWNmlau3U1yrogwyndNosthsPhaGxshN3CJUm6e/cuGEW32003wJJl+f79+2skPF0dm7gPBuNUZgVSwuFwNBpV7h66EtQGQGZwHNfe3l5dXQ39NTg4mObLDYIgyEaRyzZeLV94S0uLIAhXr14dGxvT6/VWq7WhoWGNNsBqbW0VBMHv90ejUZvN1tTURAgBM88QA3I/R6PR69evLy4u2my2gwcP0kQOsizDzsxlZWVms7m7u3stdt+jq2MTTTLjVGYFKqEZqVdOOgnj0+e///u/9Xq91+udnp7W6/V2uz39nbERBEE2hFy28ZS4ZFk6nU4URfh1DgQCSaPQcS6yxWLp6elR7v4I+UIcDgdc0NHRYbVawVm/ceMGXMbzvCAIwWAQqggEAm6322q1QtVqYnAcBwaeWru4wPXs7Cy9uKuriyasUxOeHo9GoyMjIw6HQ6PRBINByKmsdtdKSNoaKW+hO3vH+dwcx7W0tBiNRo7j4Ah0BEgeDAYFQYhGoz///DO0dmKu6KTZ0uBFKv2MFPn5+aIowrMEAgG73R63EzuCIEi2sSXm1UuS9PTpU/rv/Pw8z/OQyimOiYkJv9/v9/unpqbARYbj4XBYlmVI5QRUV1dHo1Fq4O12++DgYG9v761bt5xOJ+yB/MorrxBChoaG6F3j4+Mcx0GwXU2MhoYGQkiaGzBB4RUVFQzhIUguSVJ+fr7JZPJ4PGAXoWq1uzJGrTXYDAwM9Pb2Jt07s6WlxW63T01N+Z+jTOyxa9cuyIomSZIoijTXhZK4AQCUl5cT9ZyziUxPT2u1WofDwXHc6dOnCSE//PBDmvciCIJsCLnsx9OEXdPT05Ik0eN9fX19fX2dnZ3Nzc3BYFDpZdLU0eS5n0cj5Hfu3BEEAf61WCwajWZkZASuNBqNkUiEOus6nQ5yTu/fvz9OpGg0arfbKyoqRFFUEwO2lQbnsq6ujmaISvr1F/JDQMpUNeEhSH78+HGe5z/66KNwOAwBBr1eHwgEGI+cGWqtwb6LipEYyYcUnx9//HFSqaampqBVPR7Pnj176GQFoj4AgM7OzmVlZz979uzp06ddLldbW1ssFvv8889TPhSCIMjGkss2nsZs44K3siyfOHHC5XIJguB0OgVBaG9vB/vB8/w777wDvh1kfTYYDGAGvvnmG0EQbDabz+d76623YrEYtcocx3EcFwqFaBXpZF9miEGB777wN7XxNC26TqfjeZ6GExjCU8ADFkWRJo9K565lkVlrMPjuu+94nvf5fKIojo+PDwwMpFmg2gCgLOsxXS5XU1NTMBh88uRJcXGxy+VaXFzE+f8IgmQzuWzj2Xg8HvpNt729vbOzk+O48+fPLy0twYy24uJimNYOQLjeYDD4fL5Dhw7dvn1bWVokElFatYWFBULIjz/+GFcpOOUTExMMMR4+fEgIARfz3Llz586dU36rJoq06JDf+ssvv4SDDOHVyOyulCRtjYzx+Xyjo6NHjx6tqqqyWq12u339fWiO45xOp/Jj/4ULF06ePIk2HkGQbGbr2nggEAg0NzcXFRURQgwGg0aj+eyzz+CH2+Vymc1m5cV37tyB9E0cx125coUel2W5qKgo8ed+dHSUEGIymegpnU4ny3KiG6oUIxwOO51Ou92uZj+SLgNLKXxS0ryruLhYrYTEU2qtkWaBSaGRfI7jfD5fOsH/dEg/Vl9ZWUkIefLkCT3y+PHjHTt2rFwGBEGQtWMr2ni32z0+Ph6NRgkher1eq9XCBDdwNyGIXVpaCjPsbDbbxMQEGJivvvpKEIQzZ87EYjGljbly5UpbW9uFCxd++OGHxcXFwsLC0dFRMEuRSEQQhCdPnkSjUXg/oJPp1MQQRRHmxNEC07GIDOEJIRUVFRCHr6urW1hYoHPWUj4yIUSSJLPZ3NXV9eTJk+3btyvj3klPqbUG+y6LxbJz5064QKPRwHxAMMBwJZyCb/OrsoAeVkaUlpamM+0/HA5LkmS1Wh8+fAhr58xmcyQSUV4D4Zb0J+ojCIKsNVvRxs/PzxuNRmW4Gz51h8Nhv99vtVrNZrMkSf39/fBTPjc3ByZKFEVJkniej/txB3vf2NjY1tZGCInFYnR2el9fX2trK0SYlXUxxCCEnD17VpIkQRBogfAqwIAhPCGEhvo7OztFUaQ2PuUjE0L6+/s//PBDmK8eDAaVlSY9xWgNxl1Op5NOl9NqtTDzDoxlQUEBnS0PDbUqq9InJyeJYl5eSj799NPf//73sPIwFosFg8Evvvgi8TI08AiCZA+YPx5BVge3211SUpLOQkEEQZD1YUusj0eQ9WFqamqjRUAQBPn/oI1HkNWB53m08QiCZBUYq0cQBEGQ3AT9eARBEATJTdDGIwiCIEhugjYeQRAEQXITtPEIgiAIkpugjUcywe12u93ujZZivVFLSYwgCJKd5PI+dz6fb3Z29tSpU6FQSLnHO8dxra2tJpMJNiy7fft2X1/fSrKpMlDWJcvy4OAg3aONLYbD4WhsbIQMMZIk3b17F3bBW0/hM8PtdisTvBJClFv4rSdqAyBjjh07xsgjgCAIkm3kso2fnZ1NerylpUUQhKtXr46Njen1eqvV2tDQkM6m5RnQ2toqCILf749GozabrampiRACZp4hBuRxj0aj169fX1xctNlsBw8ehLTu6yl8ZgwNDY2Pj0Pe20gkMjc3l3Ij3jVCbQAgCIJsEXLZxlNisZjyX51OJ4oiGFrI30pPQY5XQogsy/fv36cussVi6enp8Xq91JpCRhOHwwEXdHR0WK1WcNZv3LgBl/E8LwhCMBiEKgKBgNvttlqtULWaGBzHgYH/wx/+AEeUjiNDeDUxGM9Fj0ej0ZGREdiMXZlBVRlOiEajly9fpnvdE0K6urrotvP0Fqi0o6OD5/lQKESFh7og3U40Gv3555+hceBGNQmhGc+cOcPzPKQCcjgcg4OD9MHVHpkxAAB4kUozhYwyvS9NmwvxCXYbKkMIcKWyxnSERxAEyZgt8T1ekqSnT5/Sf+fn59U+rE5MTPj9fr/fPzU1ZTabaTIVSB4PadmA6urqaDRKDbzdbh8cHOzt7b1165bT6YRNy1955RVCyNDQEL1rfHyc4zgIZauJ0dDQQAih6eniYAivJgbjuYaHh3t7eyVJys/PN5lMHo8HbDCU73A42traCgoK/H5/MBisqqr68MMPaXUlJSUFBQW9vb2QW8/lciUVOI5du3b5/X69Xi9JkiiKNNmMmoSEkDNnzmi1WnjBgo8U6TyykrgBAJSXlxNCSktL0xF7YGAAnpQQ0vucgYGBlG3IIE3hEQRBMiaX/XiaUmx6elqSJHq8r6+vr6+vs7Ozubk5GAwqnSeap5w89/MgQk4IuXPnjiAI8K/FYtFoNCMjI3Cl0WiMRCLUWdfpdJDgfP/+/XEiRaNRu91eUVEhiqKaGHv27CHPffe6ujq9Xg/HoXyG8GpiMJ5LluVAIHD8+HGe5z/66KNwOAyxB71eHwgEGhsbZVlubW2lwYyxsTFa3Y4dO2h2uFAoBGKnZGpqChrB4/Hs2bOHfrlXk5DneZ7nr169Ck86OTnZ09OTziMT9QEAdHZ2pp8/HsSDvoi7hd2GjDLZwiMIgqycXLbxNHqsTHlOCJFl+cSJEy6XSxAEp9MpCEJ7ezuYMZ7n33nnHfDtwF80GAzwS/3NN98IgmCz2Xw+31tvvRWLxah95TiO4zgawiWEKNOlq8EQg6LX62mIGIwB4y6GGIznokAQXhRFSCdPCNFqtcFgkIqkjNITQhKt5kpQk7CiooIQQt8t4mRgt7zaAKCs+uy5xDZkkNmwQRAESZ9ctvFsPB6Px+OBT6Tt7e2dnZ0cx50/f35paenWrVuEkOLiYvgODUC43mAw+Hy+Q4cO3b59W1laJBJR/lgvLCwQQn788ce4SsERnJiYYIjx8OFDQgi4mOfOnTt37pzyY7DaXQwx2M/FpqCgIM0rV8JKJEz6yJuFTS08giDZz9a18UAgEGhubi4qKiKEGAwGjUbz2WefgXvncrnMZrPy4jt37phMJp7nOY67cuUKPS7LclFRUaJTODo6SggxmUz0lE6nk2U50V1TihEOh51OZzprtJR3McRI+VxqSJJUXV1Nv1asHQwJwexVVlbCvxaLRXmj2iOnSfqxeiU8z2fmcNOnAFYoPIIgSEr+adu2bRstw3rjdrsPHjxYWFhYWVn5u9/9zmg0/u1vf7t58ybHcUePHs3Ly8vLyzty5Mjhw4dffPHFvLy8ycnJmZkZQshPP/3029/+trKyUqPR/PGPf1SWWV9fX1NTU1hYqNVqa2pqnj17NjMzMzMzw/P8kSNH9u7dW1hY+N5777322mvff//9zZs3GWLMzMzs27fPbDbTAn/1q1+Vl5dfunSJcRdDDMZz7d6922g0vvrqqzt37nzw4AHHcZOTk/Sh8vLyfv3rXzc0NFRWVprN5tra2pdeeglmIcDEwK+//hqufP/998fGxkAMl8v19ttv63S63bt35+XlGQyGwsLCsbGxysrK2trasbGxn376qba29tKlS7W1tVVVVZcuXWJIODIy8pvf/Eav12/btq2qqqq+vv7FF1+kdak9cjrDoLe39913333hhRfovIqUPHv27OjRoyaTaf/+/bW1tTU1NX/96195nme0YU1NzaFDh/bt22ez2Q4cOABtQkcUW/iOjo5PPvnkwYMHymkQCIIg6bMV/fj5+Xmj0QjRb1mW6Q4t4XDY7/dbrVaz2SxJUn9/v16vN5vNc3Nz4LeJoihJEiz7VhYI86QaGxvb2toIIbFYjE4L7+vra21ttVqtdrtdWRdDDELI2bNnJUkSBIEWSJeYM+5SE4PxXIQQ+hWgs7NTFEXlB29aIJ397vV6UzYvhDrgb+qOs71Vdsv39/c7nU6n0wlr5+gkRHbLpwQsMZ2Xlw7hcNjr9dbX10OjQafAxjhwQWIbXr58OT8/XxAEURS9Xm9PTw99rjSFR0cfQZCMwfzxyGbC5XI5nU7lRgU5jNvtLikpwQV1CIJkzFb045HNhcvlgoV5ZWVler1elmX6jSDnmZqa2mgREATZxKCNR7IdGvyXJCkSiWTb/vxrB8/zalshIQiCpAPG6hEEQRAkN9kSe9kiCIIgyBYEbTyCIAiC5CZo4xEEQRAkN9mKe+Ag68Pp06d37dqF+7cgCIJsFDivPgfp6OgwGo0cxxFCIBNaOqdWF4vF0tTUFIvFcAsXBEGQjSKXbbzP55udnT116lQoFBJF8dSpU3Cc47jW1lbIRC7L8uDg4MWLFxNPxWKx27dvK1dqORyOxsZGSJciSdLdu3dhjzllWpHEuzLA7XbTreJkWb516xbdzC4lkMBGFEXI76J0oxmnlgu7oQgh4XA4Go3eu3cv4yqUqHVlZkCOu0OHDnEcp9woEOjo6LBarTA2rly5okz2uuqnEARB1pRctvGzs7NJj7e2tgqC4Pf7o9GozWZramoihICZb2lpEQTh6tWrY2Njer3earU2NDTAlmqQ1DwajV6/fn1xcdFmsx08eJDmaxFFcXx8nBBSXFxsNpuVueAyA0w7IUSn09nt9qWlJfoiwsZoNEqSlNQKMk4tF0ZDUf7whz+svCJArSsz49ixYyaTSZIkiGcocblcdrsdxobdbm9ra5ucnIRox6qfQhAEWWty2cZTYrEY/ZvneUEQgsEgeG+BQMDtdlutVrCgOp1OFEX4G1K7wl0cx4GBp3YrLgQ9Pj5OL+7t7VUmdlO6cTdu3FBmne/u7uZ5HrZhdzgcg4ODtJDZ2Vn6dygU2rFjB/2bOrKQW7a3t1cpDPimSdtB7VRSCaFwQkg0Gh0ZGXE4HBqNJhgMQi52tYYiz6MF8Hecz62MTwBKN1qtoZQou5ICr19x7cBgYGDg3Llz9AGV1NfXS5IEIg0PD3u93mPHjoFJXvVTCIIga82WsPGSJD19+hT+fuWVVwghQ0ND9Oz4+DjP85AwdH5+3mw2J6YchTRrGWw6BgYP3Di9Xu90Oh89egTR2u7ubq1W6/V6p6enIeitvLGkpKSjo4M8T0c7MDDArojn+YqKCvi7uLi4rq6OELKwsBAOhxmnGBIODw/39vY2Nzfn5+ebTCaPx/Pyyy8LgjA0NBQIBNQaihAyMDAAyVoSLejQ0BBEOwghBw8e1Gq1P/74Y8qGUqLsSkp5eTkhpLS0lN1EFEZmWPoaZLFYwuGwJEllZWVrdApBEGStyWUbT1OKTU9PS5IEf+/fvz/uMgiiVlRUiKLY19fX19fX2dnZ3NwcDAapKwn7pYM9q6uro6nPqA+q0+nAJEOsniamMxqNkUiExgx0Ol1tba3P54O3Cr/fD1UMDw/T3G4Ax3E0udzg4GDKYLUy+5nZbIZAAuRAY5xiSCjLciAQOH78OM/zMDsPQiB6vT4QCKg1FJQMRjTRxtPLIIIdiUSoFVcTg9GVlM7OzswywcdBk9N3dXUJggBJ9mD6xaqfQhAEWQdy2cZDVFn5R0pkWT5x4oTL5RIEwel0CoLQ3t4eN3tOr9dTk0ltPNhs+Dsajfb19cHfHMdxHKeclAf2DxxrmjE2cYIejXLzPH/mzJnXX3/9xIkTDMnPnTtHJwDGzSNjnGJIqATeBkRRtNls6TeUGhaLxeFwRKNR5UsAW4yUXbkqs/d37typ/PfRo0drdwpBEGQdyGUbnxQaHKaAUz4xMUGPeDwej8cD32th9tzDhw8JIeAsgslUfnUmz78rcxzn9XofP36stHaRSERpuhYWFpYlsCiK165dWy1XNSkZS5jYUClvsVgsf/rTn2ZmZj7++OPVEmO1CAQC8Ahnz56Fl4k333wTwgarfgpBEGQd2HI2fnR0lBBiMpmovYQP3onOayAQaG5uLioqIoSEw2Gn02m329lWVpbloaEhQRDg6z4cKSoqSrwLDFhlZWU6Mqt9aU7zdjZqEqaPsqHYcBz3+9//fmlpKdHpX6EYq/UCJMvywYMH4W+O47Ra7e3bt9foFIIgyFqz5fa5m5mZ4Xn+yJEje/fuLSwsfO+991577bXvv//+5s2bhBC3233w4MHCwsLKysrf/e53RqPxb3/7282bN2dmZvbt22c2m2tqagoLC7Va7a9+9avy8vJLly4RQt5///2xsTEo4aeffmpoaNi9e/e3334LNdbX19O7ampqnj17NjMzMzk5aTabjUbjtm3bXnzxxffee0+n09FCGhoaSkpK9u/fX1tbe/To0bfeeusf//jHF198EYvFampqDh06tG/fPpvNduDAgd27d+fl5U1OTs7MzEB1SmHiUDuVVEKe541G46uvvrpz584HDx5wHDc5OUlvUWsoQojFYjl06FBlZWVtbW0sFnv8+HFlZSWsxe/p6fnlL385NjYGZ2trawsLC+ky/aRipNOnvb2977777gsvvDAyMpLO9S6X6+2334Ye/N///d+DBw++9NJLcO/evXstFguMjZMnT/7iF7/4y1/+AhKu+imgo6Pjk08+efDgAW4IiCDIqrPl/HhCSF9fX2trq9VqtdvtsiwrP1HPz88bjUY62U156uzZs5IkCYLQ1tZGCInFYvRruhJRFCORiNlsBlceZo01NjbSu7q7u+HKP/3pT93d3U6nE9bOxZVD59wRQiRJ6u/vB8f38uXL+fn5giCIouj1ent6esxm89zcHGOuOBs1CZUz9To7O+kcvZQN5XQ66dQErVYLwWpwsvPz8wkher2eTlqkpxgNlRJ4+aDz8lJCE9KT5xMpRFGE+YAXL17csWMHHRuff/45DQ+s+ikluBsggiBrAeaPzxaSTohDch63211SUuJwODZaEARBchDMO4cgG8zU1NRGi4AgSG6CNh5BNhKe59HGIwiyRmCsHkEQBEFyE/TjEQRBECQ3QRuPIAiCILkJ2ngEQRAEyU3QxiMIgiBIboI2HkEQBEFyk1ze587n883Ozp46dSoUCtE0boQQjuNaW1shZXssFrt9+3ZfX1+aOdOWi7IuyBJ78eLFdMRwOByNjY2Qh1SSpLt378L2OOspPBu15s2Yjo4Oq9UKDXXlypXEvf8S4Tiuvb29uroaWmNoaCj9HIMIgiA5Ty7beLWc6y0tLYIgXL16dWxsTK/XW63WhoYGZQb0VaS1tVUQBL/fH41GbTZbU1MTIQTMPEOM06dPNzU1RaPR69evLy4u2my2gwcPchwny/J6Cs8mZUr7ZQEZ5aGh7HZ7W1vb5OSkcvfcpHR3d2u1Wp/PNz09DTl/nzx5gnsFIgiCALls4ymxWEz5r06nE0URDC3kiqWnIE0qIUSW5fv371MX2WKx9PT0eL1eak17e3vNZrPD4YALlD7ojRs34DKe5wVBCAaDUEUgEHC73VarFapWE4PjODDwf/jDH+CIcjNzhvDk/3r/0Wj08uXL1Ewm9ZLp80aj0ZGREYfDodFogsEg9YaTPhe7eQF4Tent7U1zJ/b6+npJkuBxhoeHvV7vsWPH2Dae4zie54PBIEgVCAQOHjxIk7whCIIgW+J7vCRJT58+pf/Oz8/zPF9XV5d45cTEhN/v9/v9U1NTZrOZpkUJh8OyLB8+fJheWV1dHY1GqYG32+2Dg4O9vb23bt1yOp2w/fgrr7xCCBkaGqJ3jY+Pg2ViiNHQ0EAI8fv9SZ+FIbzD4WhraysoKPD7/cFgsKqq6sMPP4RT4CVLkgTFtrW1QQnDw8O9vb2SJOXn55tMJo/HEwwGBUGAs2rPxW5eoLy8nKhnxU2E47i7d+8SQiwWiyzLkiSVlZWxbzEYDISQJ0+e0COxWAzebxAEQRCS2348TUQ2PT0tSRI93tfX19fX19nZ2dzcTL1AQBRFmsANPFGIkBNC7ty5IwgC/GuxWDQaDc1kajQaI5EIddZ1Ol1tba3P59u/f3+cSBCIrqioEEVRTYw9e/aQ5757XV0dTdEG5TOEb2xslGW5tbWVxh5oulJBEGRZhk/mPM+73W6bzRYIBGRZDgQCx48f53n+o48+CofDEHvQ6/WBQEDtudjNC3R2dqaf091iscAfXV1dgiB4vV5CSEprHQgEPvjgA51ORzsFDTyCIIiSXLbxNOAcNw9LluUTJ064XC5BEJxOpyAI7e3tYBd5nn/nnXfA+9RoNIQQg8EAhuqbb74RBMFms/l8vrfeeisWi1H7ynEcx3GhUIhWkU6mV4YYFPjGDH+DrWXcpdVqg8EgLUEZ6NZqtZFIhMomSVJRUVGcPHC9KIo2my2d51JrXkr6+VJ37typ/PfRo0dp3ujz+ZxOJ7x2SJKU+KqBIAiylcllG8/G4/F4PB74IN3e3t7Z2clx3Pnz55eWlm7dukUIKS4uVvqFEK43GAw+n+/QoUO3b99WlhaJRJS2cGFhgRDy448/xlUKTvnExARDjIcPHxJCwAk+d+7cuXPnIGbOFh6OFxQUrLxlUj7XqhMIBOARzp49C28Mb775ZjoG2+PxhMPhiooKQsjExITb7Q4Gg2shIYIgyGZkS3yPZxAIBKhTazAYNBrN//zP/4Bl/fvf/x538Z07d6qrq3me5zhueHiYHpdluaioKKAAfOLR0VFCiMlkolfqdDpZlhO9fKUYcG+cUU8pPCFEkqTq6mqO4xKvlCTpwIED8DfP81qtdn5+PmX5as+VJkknDTDqotPlOI7TarWJ2diSFiiKYiAQmJiY+K//+q9YLPbVV1+lXymCIEhu80/btm3baBnWG7fbffDgwcLCwsrKyt/97ndGo/Fvf/vbzZs3OY47evRoXl5eXl7ekSNHDh8+/OKLL+bl5U1OTs7MzBBCfvrpp9/+9reVlZUajeaPf/yjssz6+vqamprCwkKtVltTU/Ps2bOZmZmZmRme548cObJ3797CwsL33nvvtdde+/7772/evMkQY2ZmZt++fWazmRb4q1/9qry8/NKlS4y7CCF5eXm//vWvGxoaKisrzWZzbW3tSy+9BJMGioqK/uVf/sVsNh88ePDf//3fd+zY8Ze//GVsbIzneaPR+Oqrr+7cufPBgwccx01OTqZ8rnQaube39913333hhRforAU2e/futVgs0FAnT578xS9+ARKyC+R5/uTJk//xH//x/vvv//M//7PP5/v222/TqQ5BEGQrsBVj9fPz80ajERxlWZb9fj986g6Hw36/32q1ms1mSZL6+/v1er3ZbJ6bmwPPG75k8zxPv20D8D24sbGxra2NEBKLxeiE/L6+vtbWVqvVarfblXUxxCCEnD17VpIkQRBogdFoNOVdVAxBEOAITF4jhHg8nj179litVp7nZVn+/PPP4WP5sWPHaMCgs7NTFEWlp854rpTAuwKdl5eSixcv7tixgzYUlZBdYEVFhd1uF0UxGAx+9dVX6UyDQBAE2Tpg/ngEQRAEyU22+vd4BEEQBMlV0MYjCIIgSG6CNh5BEARBchO08QiCIAiSm6CNRxAEQZDcBG08giAIguQmm2B9vMPhePPNNwkhQ0NDG5IoHUEQBEE2I5tgn7tnz57t3btXo9G8/fbbf//73+M2YkMQBEEQJCmbwI+HfK+QZTUuQRmCIAiCIGpsmu/xJpMpFospM8EgCIIgCMJg09j40tJSSZLi0qsjCIIgCKLGJvgeDxgMhtdee23fvn0FBQXKdGQIgiAIgiRl0+Sk4TiupaXFarVqNBqbzbbR4iAIgiBItrNpbPyFCxeqqqo8Hg8kPEUQBEEQhM2m+R6fn58vSRIaeARBEARJk01j4+fn53me32gpEARBEGTTsGlsPKyaq6urSzzV0dERCoWSnkIQBEGQLcumsfEpCQQCGy0CgiAIgmQRm2CfO4vF8tZbbx06dEhtDxydTofr5hEEQRAkjk1g43fu3Llr1647d+589dVXarZ8ampqnaVCEARBRxtC0wAAACpJREFUkCxnE9j4QCDAjsPzPO/3+9dNHgRBEATZFGya9fEIgiAIgiyL/wd3kgjwnEiqpwAAAABJRU5ErkJggg==;" vertex="1" parent="1">
          <mxGeometry x="40" y="130" width="381.75" height="390" as="geometry" />
        </mxCell>
        <mxCell id="8VEX9xsHEz11RR5ykymF-3" value="Text" style="text;html=1;strokeColor=none;fillColor=none;align=center;verticalAlign=middle;whiteSpace=wrap;rounded=0;" vertex="1" parent="1">
          <mxGeometry x="380" y="410" width="60" height="30" as="geometry" />
        </mxCell>
        <mxCell id="8VEX9xsHEz11RR5ykymF-4" value="UseOplogSync： 旧的服务器需要同步到新服务器里面，所以打开旧的服务器的开关&lt;br&gt;MetroEndpoint：使用新服务器的metro地址，用来同步数据过去&lt;br&gt;KafkaConfig：配置旧的服务器的kafka，旧服务器注册一个，就写入一个到kafka，同时data-sync取到kafka数据，再注册到新服务器上" style="text;html=1;align=center;verticalAlign=middle;resizable=0;points=[];autosize=1;strokeColor=none;fillColor=none;" vertex="1" parent="1">
          <mxGeometry x="20" y="70" width="730" height="60" as="geometry" />
        </mxCell>
        <mxCell id="8VEX9xsHEz11RR5ykymF-5" value="" style="shape=image;imageAspect=0;aspect=fixed;verticalLabelPosition=bottom;verticalAlign=top;image=data:image/png,iVBORw0KGgoAAAANSUhEUgAABCAAAABfCAIAAAC2tSE1AAAACXBIWXMAAA7EAAAOxAGVKw4bAAAAEXRFWHRTb2Z0d2FyZQBTbmlwYXN0ZV0Xzt0AACAASURBVHic7b1/cFNHnuj7xRBsjiG2LI7BDggL48m5wCB27YmkHW5kLWSepTtc51VJIZuqNxolb24B4hIe1BuTFFkXZSqY3YJdciF27b6No6lb9wHyVi2bXKQ3Q0qCYtbyLL4TmQx7ZvlhcyAYODbG2D7YBMj745v0nJF1WrL8Q7LTnz9cx+rT3/PtPt2n+9v97e45q/5s453OdtCmpqZm7969jY2NoVCIctukUFdX53A4qqurxwa53e7XXnuN53lZli9evHjo0KGMqDFeeJ6vrKwEgL179waDQbXalKCpgOf5PXv2rFu3juM4RVHOnTtHnigIwpYtW9auXcvzfIqa0JVvbm4GgK1bt6anasL8r6urMxqNW7duxQKZyttJT40JKp+QhCma5gKgpUa28Ytf/MJgMESj0b1796Yeazo/U9NDc3OzIAhxP6by7gKBQF9f39atWyORiCiKpCRPpGBjyRFFsaurCwA++ugjWZYnIjCV9xWJRFKsFzOiYFNImBupZO/Ro0evXLly7NixKVdxxpKpspF66QWN+pXGQ5O2KePNDSyZY38/fvx4IBCga6Lub7S3t+/fvz9hkLorQomFYF+lvLzcYDC43W7MpdQFqoMo9WtsqjPVsqRXerWagOln3tdff52pZ6dOTU2Nz+cLBoOxWMxkMjkcjnv37rW0tGRar+TIsozlcmwtpQRNBfv27TOZTH6/v6enB/NweHgYW6ba2lqz2SxJEs/zKUqbZuXVLFq0aJqfOEVkMA+zFkEQDAaDKIrl5eWZ1iXz4GDKeGP19fVNuiZVVVWSJGWwoWIk5O233860CoxJYLLq1xS1KcTyAQCbzTY8PEy3LgCgoaHBYDAEAgHS3xgZGcHOPaUrQokFAF6v1+PxoD7BYFCv16OBQRFICUpKa2vr1atX8bqjoyONfMsUU9EEpEeaBgax8GKx2Oeff+52uzmOC4fDxNysq6uz2Wwcx8myfOrUKXVxTBiEhhreEIlE8IKY4A6HIxqNHjp0yOv1Xr9+PRqNrl+/ngh0u92bN282GAyoz4kTJ9ra2uhqoPHa09Njt9sBgGhOUWMiSU4PtcAzZ86gQZVUDS1yc3NFUUQhoVDI4XBUVFRg0OnTp9UJnCzq6+vjshcABEHYtWuXIAiKogQCAbfbrR5USAiOypSWlnIcV1NTU1lZKctyTU3NeEcUfvGLXyiKgh9xtWWfcPgQlVcUpbOz8/Dhw2Q8KeFLQRKWQ3rBTg96HibUMG014mpKNBrVyo1JKfObNm1SFMXv9x88eNBqtZKKPOlo5eG4qrm6ANAzKj36+vomUk4URaGEqqsDSbUsy9euXRurOc5t0h83LoEJiXsp6iAtgfSCnZ4aPM+/+eabVVVVZMDF7/e3tLRg/+add94hxbKxsdFiseBIqlabglAaKToJP0TqVMeNUI6d+EqlmmslGa9TLPPqJKcnUAt8j+Fw2G63x2Kx+/fv2+32pLVymltzSulNmuSE9YtSepO2X2OZSEvU1dWFtwmC4HA42tv/4POSsGDzPC8IQjgcJv2NNWvWrFmzBqNodUXosWpqajweTywWO3DgQFwtpvRtKEGIVkMPAFevXk29j0EpomQWAi/cbndlZSW+MrR5KEEoPO59UQTGKUxvAqaBeelF6+joaGxsfOONN3Jzc81mc0tLy+rVq+12e3t7eygU8nq9ZL6vqqrK5/MNDg5iyrWCTp8+HYvFqqurLRZLY2MjPqW7uxsvTCbT8ePHSYdVFEWiidvt9vl8siwHg8G8vDyz2bx792632015FkbU6/UAEAwGjUaj3W6XJKmlpYWiRtpJTg8sOmTSxuPxDA0NBQIBuhoUgT09PWaz2e12RyKRLVu2AMCFCxcwSJ2fk4Ver3/w4EFjY2N1dTXJXgDYtWuXwWDw+/1DQ0MbN27kOC6pKKw8eK2+GFf28jxvMBjC4XCKyo+OjjY2Nq5atcrlcu3Zswefq/VSQLsc0gt2elDyUEvDiahBcgM/edu3b8dmeNLLPABUVFRcuXKlra1NluWXX3556gwMrTyk1y9KAQDtjMoUkiSNjo4mDIqrDt3d3di/KS0ttVgsDQ0N2HcRBKGsrAzv0el0NTU1ADAwMDD2vaQokI76pWzYsEEdpCWQXrDTU+PNN990OByxWIxMH2F6P/30U7fbXVtbS5JfXl4ei8VIpyRhmwLURoqO1ocIUw2JBqrb29vJYPOaNWsMBsP169fTTjJQP3qUJKctkEJRUVEwGHQ4HH6/XxRFu92uHhYc10dvKlpzSunV0pBev9IrvVqk1wSgDljYAGDTpk0A8Mtf/hL/1SrY6KY1MjJC5CiKQuxera4IPZbD4VAU5cCBA3hbd3c36bdQ+jaUINCuX4jZbDaZTABw/vz5FFuihEU0Fos5HA6e5/Py8mRZrqysRLE4K6IV1N3drfW+6ALVUJqA6SFNAwNn4l599VVBEHBERxAEu91uMplCoZDdbpdlmTRRzc3N1dXVWD+1gkRRFEURsymuJmMJi0QiXq8XxwUbGhpI6ObNm2VZ3r59O37lrVYrmdWiqAEA+fn5GIvn+UAgUFxcDAAUNdJOcnpUVVXhpA1qYjQaN2zYEAgEKGqAxsQoOvDt379/x44dXq/X5/MpipLUh3KC5OfnozKhUCgSiWD2CoIgCEJrays2Qrdu3Tp48GBSUaFQKBQKNTc34zhKfX19SUnJeD+127dvBwD10Asd4nuwbNmydevW4bXWSwHtckgpUelBz0MtDSeiRn5+PuZGKBQqLS01m834explXmuWDIsoz/Mmk6m1tRUArl27RsauJh1KHtKrOaUAgHZGaUHPDQDQ6/V1dXV4nbpTaE9PD7mQJCnhPXHVAYsHXu/YscPlcuFqt9raWjKKZrFYLBYL3jy2uU1RIEXtsS8FiytdIL1ga8Wi57zRaASAsQOlsix3dnaSr4HVauV5/syZM+SGhG0KUBuppCT8EJF0jU0FKSTYS45Go1g+00syUD96lCSnITBpdbh9+zZ2rVpaWoqLi0nXM42PXnqtOUVDeunV0pBev9KoRBQouUFJl1oHAHjppZdkWSbVX6tgh0KhnTt3Go1GVNhqteIUB6LVFaHHMplMsVjs8OHD5EcSkdK3SdrtSVi/Vq1aBQDl5eWKouj1eofDgRHTLqIAUFlZWVJScu3atZKSEvyFvMqEQfhxozTZFIGpNAHTw7xnz55NUASpDCSXcY0mXouiKElSYWFh0iAt0MSXZZnjuEgkIstyV1cXfr9QYDgcJjmrbvnoz5IkCWOlUWPHleT04Hme53kyNQaJ5hni1OB5nli6Y/F6vS6XKxwOj4yM6HQ6r9c78fFmCgmLNb5K0riOa3zaYDB88cUXAFBSUkLqT1Kwi2Y0GgVBiEajKaZX7cLY399PhrcpL4VSDicXeh6mUmzGi/pV3r59mzScaZR5HDjUCsVifPbsWQD4/e9/b7FYBEGYium1FMvh2GpOz16tjNKCnhv4OLUnTIoGBpk2GTt/olUdcOkkNlRY2isrK0Oh0KFDh7BXpLVidbwCKWrTX0oaAimx6Dn/2WefCYKAPdSurq7Tp0+TtxyJRCwWi9frbWlpefnllwHg008/JRG12pS0Pw5aH6KkWK1Wt9sdi8VIfyjtJCct8wmTnIbApNVBiwl+9FJvzSkapvdZptev9Mp8GqSY89jjxwEghFKwA4GAx+PB3rwkSepvI6UrQokFADqd7v333xdFkef5Dz/88LXXXsM7KQLp3R6t+nX27NmzZ8/iO1I/K70iSiYW9Hr9Z599tnLlyry8PFLmtYLSE4hQmoBpZt6cOXMyq8HEWbBgQaZVmBKi0aj6kzQwMEC/nyzwGgvP8x6PR+1jevTo0bfeemtGbLlDhg1cLpfL5QIAHG1KZWsFdRdNnZmpk5eXp/6X8lKypByOt9hMJ5QiCt9OkdfW1tbW1mK2W63WqTAwJsIkZi89N2CMe/3ESVgdeJ4/cuTI8PAwerPodDr1wOE0C9R6ShoCKbHoOR8IBC5durRp06aKigqbzUbGLwEgFAq99dZbuAJwzZo1av8oOhP/OMR9iChYrdb33nuvt7f3wIED5Me0kwxplfk0BCatDhSm56M3nRpOeiWikGK6fvSjH8G3A0AErYLd0tLS1taGdld3d3dzczP6T9K7IlqxkN/97nfYHODuF/jloQgcV7dHXb/UjY76WekVAPxEoKE4ODhYWlqam5uLnkuUoPQEZhtTYmBIkkQ2gcFtYch4ACWIEDdsiVWR53lFURwOR0dHB5m+QIHr1q1LOHWYyrMojGv0NJVn6XQ6rehjg2RZLiwsnCwDAKf81N6Njx49ys/PnxThlHTFga8SlQEAq9WaSiwcNti7dy/u6rBz587Ozs4UrQXsovE87/f7tb4sRJ+x8DxvNpuJByrlpVDKIYFSoiYrD1MpNuOdFlA3bDqdjqwbm2D9GgvOUJMOKwCo93KYRNIrh5Ase7UyKntIWB0qKys5jvvggw/ImB+6akyzQMpLSVFgXMGeYLrI+GUgEFA7BZ07d87lctXU1KS+piuVjwOduA8R/c5t27YNDw/v2bNnXI/TSnLaLdGkC9Ri0j96aXzZJv5ZjiP10qvVflHalPRmhteuXStJUtz8FaVgYwEQBOHdd99VFOXkyZOQQlckYayxKSIfWIrA1Ls9cfUrEomozZKJf8xlWX7xxRf7+vo6OjpeffVVALh9+3bSIMLY95VKrGwgzTUYuDgJZ5Rqamrilv2Fw2GPx4NO81VVVaAa3KIEAcD58+cdDkdDQwNa7bihGEqurKxsb2+32+0460qifPLJJz6fz+/3t7e3Y0kizsr0Z1FIqEbaSUYkSbJYLPX19SMjI3l5eeqpq4RBp06d8vl8R48evXDhwuDg4KJFiy5duoQVj6KGFm1tbZIk2Wy2e/fu4X5tFouFfDS9Xm9xcTHWXqPRWFdXl7rDNyVdWmo4nc7h4eGxK+G0kGUZP984a7l3795IJDKujzVu3OFyuerq6nAaGhfb1dfXw7cjAdXV1WTdGG5XVVJSgpsKNDU1oRytlwLUcggaJWoq8pCiYVI1tBgeHj569GgwGIwrNmnXr4RYrVaO49TDnOptTyYXSh7S6xc9e7UyKm3UazCQSTksJa46YOXC+cCSkhI06tTVYXoEUl5KUoEJC3ba6cKaiNc4mHXlyhUSevbsWZfL9cYbb8Af+0dRoH8cKGh9iKxWa0FBgfoe+NZRe9++fQaDIRaLvfnmm3hDLBZL+rWkJJle5qdNIIU0PnoTbM3HMpHPckLopZfefoF2m5JeEwAAbrcbxxHUP1IKtiAItbW16DyJ22qhbvSuiFYsAIhGoxaLpa6uDtNusVjQvKcIpD8LtOuXKIpms3nHjh1Xr15VPytt+vr6SktLr127JssyjkOR5WqUINB+X/RY2cO8nJycNKKpFyft3bs3btkfLnCx2WyCIMiyfPz4cfKBowQBQFtbm9/vdzqdKJwYlJIkVVdX7927V5Kknp6e7u5uYsuSJbZYRACA1AH6sygkVCPtJCNNTU27d+8m2/klDSLp8vl8AKAoCi5tp6tB4f3339+2bRvux6coSjgc/vDDDzHIbDaT1Ui4WC11h29KurTu93g8Ho8HPx9J/dQRbE0n0ggdO3bMZrPZbDY8w+jEiRO5ubl2u10URdwU1WKx9Pf34yMMBsPevXtx6zp0+kQhWi8FqOUQtAs2yZPJykOKhknV0KKvr+/27dvopYa7LODvadevhOD8u3oFHn5b3W73VOxGoJWH9PpFz16tjEobtQMSMlmnMaqrQ1tbWzAYtNlsFotFkqSmpiZsU0l1mDaBcS+FbCiZVGDCgp22GgsWLCC1GHfIUXfCSPcudf8o+seBgtaHyOPxkC823gPfGhi5ubkAYDKZ1J+FpBWTkmR6mZ82gRTS+OhNsDVPiFbpTS/J9NJLb79Au01JrwmAb/1X4yxqSsEuKyvDnbjC4fDJkyfVNY7SFaHEOnz48J49e9DdDksU+RhSBFKCQLt+vffee3v27HE6nRhr4sfgjo6OCoLwu9/9DgAkSRIEgawjpQSB9vuix8oe5lT8cFNPjDbSFrdwPiMnGuJuaK2trSdPnsQNK9Kea2ZkD7ivPNkfPW7EeuaeyzudxOXhpDMV55pPBRM5yXtS8nCmZFSWMKNPXscCM4nKz+jcYDAYjITMe/LkCf0Oshkz+XdqNUpEIBBYuXKl0+nENb6TvvaRMW2gOxYAlJaWmkwmWZbJoEjqoynfcSh5yEgRloeM8VJTU1NdXV1aWopO+cwYYDAYDApzVlrs977410yrkSrobJq6czAj2yAHzUqSdPv27YmfdvwdZDrzcKYMzONx7x0dHSlmxaTn4UzJqCxhvO8rG8DDmCVJam9vn9wJw5mYGwwGg0FnTrn1z+9e+k2m1WAwGAwGg8FgMBizgZyvv/460zowGAwGg8FgMBiMWUJOertIMRgMBoPBYDAYDMZYcp49e5ZpHRgMBoPBYDAYDMYsIWcqTvJmMBgMBoPBAAC3293c3MzzfKYVyV527NiBe9gwGLOG765/lCAI2VyfT6//4en1P0w7+sGKdf/y0sYrG5xXNjhrFi+duMCkRCKRuFOH6dTV1QUCgUgkEolErFZreg+tqamJfEvCp2f5W2YwGIxZz2uvvTY6Osr2yNLCarW6XK6dO3dmWhFG9jLeLtZYmpubcbfDaWPedD4sq8CzPGflXuYHK9a5liy7PDRwrl8GgH8bephpjeLBM/VEUbx48SIAXL16NT05HR0djY2NAKA+C1JNem8Z96PkOE6W5VOnTk3FSdIMBoMxoxEEYcuWLWvXruV5nnLasdvt5nn+H/7hH8YVK4NEIhFyjcc8T/V26m1tbbFY7MqVK1P3iOmHNaMpUldXF4vFQqFQ6gduWq3W119/3WQyAUBc9lKCpp95bA3G7MOm46URpfbzX2daEU2qqqokSZr4oQGyLGNV1DIw0sDr9TocjmAwGIvFHA6Hz+e7detWW1vbZMlnMBiMWUBtba3ZbJYkie77tHHjRkmSSJ8pxViZRRTFrq4uANDpdBaLZc+ePZPYxCTk7bffnlL50wxrRlPEarU6HI7h4eFxxXrvvfd6e3v9fn9PTw9m76VLl/B0OErQ9DMv6RoMt9u9efNmg8EAALFY7MSJE6SUJLRQ0QgLh8N2uz0Wi92/f99ut4fD4f3798O3x1H19PTY7XYAiEaj6rEBLZM3LhaRNjbWmTNnyBFIWrFw+BzvIWMV2TmUQvisqnroyVdoM2xZuvzAqu8DgPx49PLQQMP1yzdGFPXN/Pzc1ru3JlFgQgRB2LVrlyAIiqKMNZG1Xso3GvK8+nh4BEsOAMiyfO3aNXXBiEQi5Pj2FK38tN+y0+mUJAlv6+jo8Pv9tbW17MvIYDAYak6fPn3o0CHy3U6I1WoVBMHv948rVsbp6uoiLUVjY6PFYsFrSktE6aVQgtTtFJGcNFZc4+t2u8+dO5dVHRjWjKYInvea0ImD0sXavXs3sRm6u7ubm5s3bdqEv1CCkPr6+oQd6alg3ty5cynBbrfb5/PJshwMBvPy8sxm8+7du91uN3xroaKhX1VV5fP5BgcHSZ+vqKgoGAw6HA6/3y+Kot1uJynR6/Wjo6ONjY0mk8nhcGzfvh2D6AL1ej0ABINBo9Fot9slScI+K9ZPNJRNJpPH4xkaGiIvI2Gs06dPx2Kx6upqi8WCDjYA0N3dPclZO3msyOMMedyZ3h78t/uRgvaDcUG+raiYn5+LdoK5QF+2gMN7+Ofmb1m6HAAGnnwV6r2TnkA6u3btMhgMfr9/aGhow4YN6iCtlyIIQllZGd6j0+lwdcTAwAB+d7q7u9HqKC0ttVgsDQ0NE5niSPstE+PHarW2tbVJklRaWpq2GgwGgzErSWVYtLa2VpZl9QBTpgZTpwGtXgolCNsp0JiE14qlbnw3btzIcdx0JTFVWDOaIjh2n3C0lNLFUlcinU6XYhAA6PX6Bw8eNDY2VldXxxXRqSCJi9TmzZtlWd6+fTuOJVutVmJp2e12WZaxCygIQnNzc3V1Ncmm27dv49RYS0tLcXExWmlIfn4+zgaGQqHS0lKz2ZyKwPz8fFSD5/lAIFBcXIy/V1VVRaNRNJRDoZDRaNywYQMxMBLGEkVRFEX0UZsRazB2l70IAP/yoBf/bR/oax/ow+t9K1d7SstW5HE3RpRXi19wLVmGv9uKim1FxQBweWhgrIGRokCtQabq6mpBEARBaG1txdJ569YtzE9E66Xgigi8x2Kx4LCQKIpoYOB7wdAdO3a4XC6e59P2fKW8ZUq6yHJztPJx4A0/AQwGg8FIHUEQLBbL2Mnq7MdoNOKCWnSRikajqcTS6qVQgkirl7BJShhrbON78ODBCad4MmHNaOqUlJRIkjT2d3oXS83LL78MAGfPnk0lKD8/H0taKBSKRCLqIjoVJFnkbTAYwuEw6eSpZ7gMBgOpdaIoSpJUWFiYyiPVuXn79m2Sa3SBkiShGnE9Tp7neZ5Xr8pSG3BasWYE/Py8gxXrVucvWr2w4Nz9eyfv3MTfzQX6N0oMZXkcACyc9xwAWAr1N+4o71zpfOdKJwBc2eBsvXsLrycikCyhHgtORBBrM27qU+ulHDp0CK2OSCQy1lsJF/+VlJQAAA7JVFZWToUFSElXQUGB+t+hoaFJfzqDwWB8F6itrVUU5aOPPsq0IuMGu3d4HYvFDh8+nEosSn8jva5Iwlj0xjcbYM1o6giCkNB8TfEtW61Wm80WDofHTgwmDEpozEwdyXeRWrBgwTToMRGi0ai6LzswMJA5XSYTfn4umZH41f27eLEij/u7NVXDT57gDlH8c/MNealOj45XIFlCnQbjfSk8zx85cmR4eBj3ldLpdFM34EFJVygUQvt+//796LmHKxSnSBMGg8GYlfA8b7PZOjs7Z+LoHo5/8Tzv9/sfPXo0E5OQQVgzmiJkqgfdxVetWoV/U9z/oKamZufOnb29vWOXUlCCppN5X3/9NSVYkqR169Yl9FSRJKm8vByvBUFQzz/QUXccdTqdoigTESjLcmFhYdr9YEEQstYl9PLQQO3nv16Rx/3zn/7Htw3fwwkHS6Gey5n7vnQZ/9294kV0hZpmgWgwYH0AVT1B0ngplZWVHMd98MEHGMvr9ZJ1dXGQh8Yx1t2QMK63LMvymjVr8JrneYPB0NkZPxfEYDAYDAo//vGPOY77+OOPM61I+siy3N7ebrfbE7YgWi3RVENvfLME1oymAs6SEXdxxOVyXb16lf6WeZ5/8803HQ7H2IXalKDpJ4mB8cknn/h8Pr/f397ePjIyAgD37t1Dn7BwOOzxeJqbm3FNNvzx7tEUhoeHjx49GgwGTSaT2rsxPYGnTp3y+XxHjx69cOHC4ODgokWLUtyT6/z58w6Ho6GhAYfMh4eHjx07lor+08yNESVw56antOxgxbp3rnQOPPkKAF4pWgIAL+RyLxUU4b/djxSyjmIaBOKyLafTOTw8PHYFUhovBatTdXU1AJSUlKxfvx7/7e7uFkURF4vX19djqDoIo0uSZLFY6uvrR0ZG8vLySL1K4y2fO3fO5XLh1tQOh4PjuBQLNoPBYHx38Hq9xcXFOLKDixZI9wAAnE5nLBYb+9mnx8o2Tp48abfbf/rTn+KQfNKWaLxYrVbiUMRxHI5k08fm6I1vlsCa0VRoaWlRl/y4fckob9nv93McJ0nSyMgIOX0Pfc4pQdNPEhcpXC29efNm3NYKAMh+c7h622azCYIgy/Lx48dTHLHu6+u7ffs2VlfcpnYiAomGPp8PABRFaWhoSEWNtrY2v9/vdDpx2THu5JCdHLh+2bm4xMmXNN+8Guq903r3lpMvsRUVSyPKX3eLlc/rbEXF8lePUzQwJktgU1OTx+PxeDy4h1pFRQUJSuOltLW1BYNBm81msVgkSWpqakL7s7+/XxTFEydO5Obm2u12URT9fv/BgwdJEFFm9+7dZPM1tdjxvuVjx47l5+fbbDaHwzGugs1gMBjfHcxmM1mogIsWRFHEDlPc4XopxspCRFGMRqMWiwX1TNoSjRePx0Nyw2AwkAW49Fhxja/W8t8MwprRiUPpYuEiVYPBoHYIQiuCEjT9zDGaq+XfXZy25+HWzhM/YY3BYDAYDEYW0tzczHHcT37yk0wrMvvxer0ej8fv92etkcb4zpL8oD0Gg8FgMBiMVOB5vqurK5udAmY66GYGAKWlpSaTSZblTz/9NNNKMRjxJFmDwWAwGAwGg5Eisixn1anSsw/iZiZJEvqZs32uGFnIdLtIMRgMBoPBYDAYjFlMDnORYjAYDAaDwWAwGJNFTqYVYDAYDAaDwWAwGLOHnJwcZmMwGAwGg8FgMBiMySHn6dOnmdaBkSb7Vq7esnR5prVgMBgMBkMTt9vd3NzM83ymFcleduzYgafsMRizhvGtwYhEIuRowFSoq6sLBAKRSCQSiaR9oH1NTU3kWxI+XRCE2VczT6//4en1P6TcULN4qae07N2Vq6dNpZmIuUCfERvsygbnwYp1qd9/sGLdv7y08coG55UNzprFS9N76Jaly1GC1tMzlRtZSNL6lQ2w98WYHbz22mujo6NspyMtrFary+XauXNnphVhMCaTKTwHo66uzuFwiKJ48eJFALh69Wp6cjo6OhobGwEAD7kcS21trcPh+K6dExnqvdPxsP+LoYFMK5LVvFr8gmvJspN3bmZaERoHK9a5liy7PDRwrl8GgH8bepienOiDvn1XLwHAgVXfT3jDeHNjy9LlCUX9VZf4919ep0Rckce9t3L1Dwr1XM5c5dnTyP17b4u/TRh0Ru5550pn0liIuUD/Rolh7cICQx636WLkxogyLoHqoHGlet/VSxkpQjOi9DK+swiCsGXLlrVr1/I8HwwGtbamjTvVO8VYGSQSiZBrRVE6OzunVeZR6QAAIABJREFUeh/Ytra2WCx25cqVqXvE9FNXV2ez2TiOk2X51KlTgUAg0xplKXV1dbFYLBQK1dTU7N27t7GxEXuzPM/v2bNn3bp1HMcpinLu3LksrCx0pvAcjKqqKkmSJn5otyzLmN1aBsZ3ltc72zKtAmMSsOl4aUSp/fzXE5RzY0S5cUcBbQMjPS4PDVweHsRrJ18y/OQJ3boAgA+EPynjFvq/7P5yVFm/SOdaskypeIqd+0PfM1U+r2u6eY0EDT99cuD6ZXosANi94sVty8tRn9a7t5bmLkADgyKQEpQU/+3uK8o3qY4+6Esj3xiM2U1tba3ZbJYkie77tHHjRkmSyAhgirEyiyiKXV1dAKDT6SwWy549e6a6+/H2229Pqfxpxuv1OhyOYDAYi8UcDofP57t161ZbG+uxxGO1Wh0Ox/Dw8Nigffv2mUwmv9/f09NjMpnwtmPHjk2/kmkzjx4sCMKuXbsEQVAUZawBqrZQz5w5E3dSPY5PxEVBEw0AZFm+du2aemAgEomIoogGSZwlpwVOkpDoeJGdgyLpcVT4E+fiEuXZ03990Ndw/TL2qHDAG2+4PDSg7pieXv/D1QsL1BJa795KOmq7Io/bunyVTcfz83Pxl6ab147c+D1eH6xY5+RLuJy58uPR1ru3yO/oYdI9ojgXlwDAmd4e9Sh1GgK1wBHlM709zsUlHQ/77z4ecS4uUT8uoUB1Ll3Z4FTnBhmi7njY/5uB+54XyricuVoCW77sStqfBgBzgf5do7B6YYHy7Kn/y+64UHqS+fm5rXdvJUw1AMiPRy8PDZC3j8kh7x1vSzrETsmNpEm7PDyIt5kL9K4lyyIP75Ggn72w8vUSgyGPA4COh/0f3+4K9d5ZkcetXlhwprcHk3nyzs2XCopeKijCKAtyci4PDZAg15JlaxcWAAA91paly7ctL+942F/37zGSD3SB9CAkYf36JpeUwfFO9SQsopjzFRfO4MWmixFLoR5fGdo8lKBvNPnj90URyOY6GNPJ6dOnDx06RNr0hFitVkEQ/H7/uGJlnK6uLtKLaGxstFgseE3ppTQ3NwNAT0+P3W4HgHA4vH//foxFCVL3YYjkpLHiOmZutzvbhredTqckSahSR0eH3++vra1lBsZY8MDEhA4+ubm5oihivzoUCjkcjoqKCvi24IXDYbvdHovF7t+/b7fb1cUje0jiIrVr1y6DweD3+4eGhjZs2KAOwoqBFqrJZPJ4PENDQ4FAQBCEsrIyvEen0+HqiIGBASxb3d3daHWUlpZaLJaGhoaJTHGcPn06FotVV1dbLBZ0o8JHpC0wq+Dn5z169mzf1UsV3CJPaRkA/J+XLwLAP9378vPBfkg0UH2uv5cMNr9UUGTI464rQ0kftHX5KteSZR0P+9FFBwB+/aAXL7AT03r31ueD/esX6bYtLx988hXpcPPz8wCg9e6t1fmLnItLbqxQsDOXtkAKS+bntd695VqyrOnmtctDA87FJW/DbykCMZdeKVpiKypGxyEA6H6kwLeuRP9lWfmCnBybbvGxG1fWLipwLi75l6W9J+/c3L3iRXRYujw8aNPxPzcKD59+lbTr9q5RKOMWNt28Nvjkq436JeogLQ3NBfqyBdw3OfncfPS2H3jyVaj3DqqKVodxQb6tqJifnzuRKQ5KblBAHbCwAcAr+iUAEOztwX9/9sLKnxsFNJm4uXOri4r/cuWaUO8dS6EeABTV7hFDT74idm/3iFJdVPyzF1b+su/O/1FaBgCf9d0FAHqs/714mfLsad2/xyyFegvoux8p7QN9dIH0INCuX8ifFS5ev0gHAOf67+EbSUrCIvr5YL9rybIVeRw3d678eNRSqEexOCuiFdT9SNF6X3SBDMa0IYpi0ntqa2tlWVYPPqYSa4ai1+sBIBgMGo1Gu90uSRJJuFYQ9mFAw0FDK5a6Y7Zx40aO46YrialCxpetVmtbW5skSaWlpZlWKhsxGAwAkHAkvaenx2w2u93uSCSyZcsWALhw4QIJLSoqCgaDDofD7/eLomi327PRwKC4SAmCIAhCa2srlulbt26ZTCYSWlVVFY1G0UINhUJGo3HDhg2BQABXROA9FosFTX9RFNHAEEWRfF927Njhcrl4nk/buxGloVazcg0GcYIqy+N+UKjH6/aBPuxdjTUwyND47hUvGvK4c/fvYd9dy5m+4sIZAFidvwgAxo4NA4BNx5+7fw8HsE/eubk6f9FG/RJiD+TPm/cXnb+9MaKsyOPOVlWT+Yo0BNI1BICuR8PYtTpy4/f8/FzS9dQSiLmEfa848wBdid5Yali9sOC/iv8r1HvHXKB3Li5Zv0h38s7N/8SXyI9HsTdvLtD/9++bXylacvLOTYqG5gL96oUF/tvdmP83R5XK53VJk4we9t/cU1RsKyoGgMtDA9idJW8ZAPatXO0pLVuRx43NzxSh5AYlXWodAMBeVCw/HiW97ddLDPLj0b/obEOtahYvxdUjJ+/cfHfl6tX5i1DhmsVLy7iFRMjb4m/3rVy9Y0XFz42C8uwpWc5Bj1X5vK7jYf9Ha1/C2RJQrQPREkgP+iYJiepXBbcIANYuLBh68hU/P8+1ZBlGTLuIAoClUF+Wx10eGngh9xv9b4woFtBrBd0YUbTeF0Xg2NsYjAwiCILFYhnryJD9GI1G3FEGXaSi0WgqsfLz87dv3y7LMs/zgUCguLg4aRDpESU0MBLGGtsxO3jw4IRTPJmQHX3q6+vtdjvOX2FPmhFHSUmJJEkJg/bv379jxw6v1+vz+RRFOX78uNqN6Pbt2+h+1tLSUlxcjDMh2QZtBgMnIsjcTdz0Fs/zPM+rl0NhPTl06BBaHZFIZKy3Ei7wKikpAQA0uysrK2elbTBx5Mcjf7j+6jGXMzfFiDWLl3peKOt42E9GZMny34R8KvesXlhwtqoah+3/6d6XpFvJz8+1FRUTJw0AuKxaVt6tDGG3Jq5zk4ZAuoYU6BomhfTmSTcRDTO8bh/ok0YUNJwoGuJEBHHZjxvw1tLwnSudaHVc2eAc662EC5rL8jgAWDjvOQCwFOpxicXkkmLO1yxeasjj/Le7yS+GPO5Mbw959epU+7/s3ra8/GxVNQBII0q3ahpt94oXPaVlZ3p7lKdP+efm71hRQSaIKLEAgJ+f++6VS+0DfSvyuP93ndX7ghGtBYpAShBo169f9d39Vd9dLLHqZ6VXRMnEAj8/71O5ZyW3kJs7l5R5raD0BDIYWUVtba2iKB999FGmFRk32InH61gsdvjw4VRiSZKEo6Vjx0wpQeMVSO+YZQMFBX/kiTo0lNyN4juLIAha5qvX63W5XOFweGRkRKfTeb3ewcHBmdVbntAi72g0qjYwBgaSNHI8zx85cmR4eBj3ldLpdMyoTRFu7jisi0PfM/U+Hq379xj5kSz/Tcjff3m9c2jgFf2StQsLnHwJGbLF0HP37/3q/h8cSwaefJVUhzQE0jWkk4aGaTCdGq7I4/5uTdXwkyfoY8Y/N5+M3E86KabLsbgEAH6lcjECgHwNo/fIjd//+kEv2l3dj5T//n3zmd4eAFiRx21bXq5e7nJinfVtw/ew068VC/nNwH3s9N8YUc71yzj5QxFIf1Yc6vqlnrRRPyu9AoAGGM4zPHz6lXFB/oKcnEfPntGD0hPIYGQPPM/bbLbOzs6ZuDstjo3yPO/3+x89ejQTk5BBQqEQTsjs378f/XZwoX+m9co6yFQPLiVYtWoV/sX9Dzwej3plxdGjR996663ZY2CgwYBpBlVeILIsFxYWjiu1lZWVHMd98MEHGMvr9ZK1U3GQh8ah0+kS/g4AgiDMVufOFXlcdVFxx8P+VO78v8uE4SdP3vziN+NymSDOMOjsRPyg5Mej/PzcNBaPTrpALVIRaC7Qq3uNdKQRhTi3mAv06gkNLdBgQNcaAIg7yCKNJFsK9VzO3Pely2QkHh2oxkIeGgf/3Hwt4ePKDcIPni+SRhR1RGlE+UGhXstxCwuAuUD/fsX3lWdP/0ePBAD/YeHzMGahRf68efRYY1PEPzdfefaULjDpswhx9evKBqfaLCHPShv58ejq/EXy45Hog743lhoAoOvRcNIgwtj3lUosBiOz/PjHP+Y47uOPP860Iukjy3J7e7vdbk/Yu9DqpUw19I5ZliDL8po1a/Ca53mDwdDZmXxDke8aOEtGlhIgLpfr6tWr+JZHRv4wzf7o0aP8/PzpV3IizMvJydEKw6U5TqdzeHh47CLvU6dO+Xy+o0ePXrhwYXBwcNGiRZcuXaJ38THLqqurAaCkpGT9+vX4b3d3tyiKuFi8vr4eQ9VBGF2SJIvFUl9fPzIykpeXRwy78+fPOxyOhoYGnBiZcTt5abFw3nNbli5/IZf7T3wJAPzNjX/H32sWLy2Y95z6HvjWUfvQ90yGPK7jYf/W5d98fT4f7E/atT0q/Anph+HyCXK8RsuXXT83CifWWT/ru/vw6VfPz32uc2ggafd00gVSoAs813/PtWTZ37y4HqcCcJdSXF2Nfkdbli4n66qR/yn3bFtefnr9D3GRNwCoJx8SEuq9I40o7qXLladPxy7yTiPJaLG8UrQEAF7I5XAzpVeKluDi5o6H/ZXP644KfwIA6ENFgjC6NKLYiorxLXBz55K+csLcSCWTf/bCSn5+btPNa+ofT/RIPzcK//yn/zFy/x6+bvnxKK5CMRfoXy1+YXX+IrKtFuqGGeXkS+THo7h1rK2omNhvWrEA4Nz9e7ai4oMV63ChvK2oGCc3KALpzwLt+nV5aKC6qHjfytVXlEH1s9JGfjxi5BZ+MTRwY0TBhSXn+nuTBoH2+6LHYjCmB6/XW1xcjKN+uGjh3r17ZFmz0+mMxWJjuwT0WNnGyZMn7Xb7T3/6UxyST9pLGS9Wq5U4FHEchyPZ9HFbescsSzh37pzL5cITHhwOB8dxam8XBtLS0qIu+XH7kkmSZLPZ7t27h9vUpr4WKHtIsk1tU1OTx+PxeDy4GxpukoXgcpPNmzf7fD4AUBSloaGBLq2trS0YDNpsNovFIklSU1MT5lp/f78oiidOnMjNzbXb7aIo+v3+gwcPkiCizO7du8mWbWqxfr/f6XTi4nLck2EWYMjjDqz6Pu6hid7n+Pu2ZeVkiB3vgW8NjAU5OQBQ+bxOvcg4qYGRnzMXt5oFANwUiPQ7cdrh9RLDz40CAOBOPkk1n3SBFOgCQ713mm5ecy1Zhl4uOEqtXl19YNX3ybpqBFfoOvmS1QsL5Mejf9UlpjL58Nfd4rZl5duWl2PPGIfP005yqPdO691bTr7EVlQsjSh/3S1WPq+zFRXLXz1uH+j7+HbXgpwc5+KSy0MDTbeu/TfhT0kQUeYvV64h2wfTcyMVzAVFAPCPd/8oH0i6yLsmFkjZAg534jrT2/M/eiS1NfXulUv/14rv4dbAyrOnZ3p7jnT/PmmshuuXAQDd7bBEkSUrFIGUINCuXzvF3763crV76XKMleJmvhQePXu2Oo/7zcB9AOhWhlYvLPhyVEkaBNrvix6LwZgezGYzWaiAixbIrppxh+ulGCsLEUUxGo1aLBbUM2kvZbx4PB6SGwaDAc2YpI4hcR0z9e47WcKxY8fy8/NtNpvD4ZBl+fjx4zPLtycbeP/997dt2+Z2u/GgvXA4/OGHH2ZaqfExp9z653cv/SbTajAYDAaDwZgNNDc3cxz3k5/8JNOKzH68Xq/H4/H7/VlrpDG+sySZwWAwGAwGg8FIEZ7nu7q6Zo0rQRaCbmYAUFpaajKZZFn+9NNPM60UgxHPnJUW+70v/jXTajAYDAaDwWAwktDc3IyOVZIk3b59+/Dhw2yfK0YWwgwMBoPBYDAYDAaDMWnkUA7aYzAYDAaDwWAwGIxxwQwMBoPBYDAYDAaDMWnkTOQkbwaDwWAwGAwGg8FQk/Ps2bNM68BIkx07duC5PAwGg/FdgOf5uro6cnQAY0bgdrubm5t5ns+0ItkLa80Zsw/NY7wTEolE6urqUr+/rq4uEAhEIpFIJJL2gfY1NTWRb0n4dEEQZl/NbG5ubm5uptxgtVpdLtfOnTunTaWZSKbKxmytKVc2OA9WrEvlTnOBHs+YZzAmkTfffNPhcGzbti3TijDGwWuvvTY6Osp2OtKCteaMWckUnoNRV1fncDhEUbx48SIAXL16NT05HR0djY2NAICHXI6ltrbW4XB8186JbGtri8ViV65cybQiWc2MKBuzsqbgcempHII+g6ipqYnL28bGRnV+CoKwZcuW8vJyg8HgdrtlWR4bBTl+/HggEEhbk7q6ulgsFgqFUH6cGgnheX7Pnj3r1q3Dc2Hb29v379+vvmGs8mmrRyFpHtI5f/680WgMBoNToBpjfGCBWbt2Lc/zwWDw0KFDCW+LO9U7xVgZJBKJkGtFUTo7O6d6H9hZ2ZrX1dXZbDaO42RZPnXq1EQ+d7MYq9X6+uuv41nscRmV/TUlKfPmzp07RaKrqqokSdq6desE5ciyjM2PVrfpO8vbb7+daRUYkwCrKTOL1tZWYgR2dHSQ3/FIXQAQRTEYDOr1etIpEUWxq6sLr2022/Dw8ESaW6vV6nA4hoeHxxWroaHBYDAEAoGenh6TyeRwOEZGRkijRVF+KtDKw6S0tbW1tbVNjVKM8VFbW2s2myVJovs+bdy4UZIkYkOmGCuzkAqr0+ksFsuePXum+qM6y1pzr9frcDiCwWAsFnM4HD6f79atW6zmjuW9997r7e31+/09PT2YUZcuXRJFEWZITaEzj77IWxCEXbt2CYKgKMrYFlFtoZ45cybupHq0uuKikOErWZavXbumHhiIRCKiKGI3K8VhORz6JdHxYoaaegmpr6+32+1xgyjqVJMcQ8j5O4RUcoPn+TfffLOqqoqUY7/fT96m1ltGD66enh673Q4A4XCYDIimJ1ALLAzhcNhut8disfv379vtdvXjEgqklA1SCGOx2Oeff+52uzmO0xKY4tDLbK0p5gL9u0Zh9cIC5dlT/5fd6qAtS5cfWPV9AJAfj14eGmi4fvnGiAIAByvWuZYsw3uubHDiRevdW+9c6aTEorMij9u6fJVNx/Pzc/GXppvXjtz4/e4VL25bXv5fxf8V6r2Dv/8/q6tsRcWbLkZujCin1/8QALpHFOfiEgA409vztvhbIvNnL6x8vcRgyOMAoONh/8e3u4gQOlevXh2b2zU1NR6PJxaLHThwYGzXvKurC7NaEASHw9He3k6C3G735s2bDQYDAMRisRMnTpBmWCsI67jWTFfCWDzPC4IQDoex7IVCoTVr1qxZsyYV5SkaahFXHdxu97lz59SFbWwe8jx/+PBhAPjJT36CEo4cOXLlyhXS8VKPK5Oim/TjwJg6Tp8+rf6cJsRqtQqC4Pf7xxUr45AKCwCNjY0WiwWvKd9eSoNICaK35lqxktavjON0OiVJQpU6Ojr8fn9tbS0zMMaye/duNCcAoLu7u7m5edOmTfiLVk2ZQR+9JC5Su3btMhgMfr9/aGhow4YN6iCsGGihmkwmj8czNDQUCAQEQSgrK8N7dDod+nwPDAxg2eru7sa+VGlpqcViaWhomMjA7enTp2OxWHV1tcViQecQfETaArMKvV4/Ojra2Ni4atUql8tFBlEw1ZBooLq9vZ0MlK5Zs8ZgMFy/fj3pg9CtORaLoYsOAJAPgdZbJhoCQDAYNBqNdrtdkiTsvqQtkEJRUVEwGHQ4HH6/XxRFu92O1UlLIKVsoCvRG2+8kZubazabW1paVq9ebbfb29vbQ6EQDr3gCFZVVZXP5xscHEzqwjFba8q7RqGMW9h089rgk6826peog7ofKa13bwGAcUG+raiYn59b+/mvAeCf7n35+WD/K0VLbEXF+65eIjfTY9HZunyVa8myjof95/q/6f7++kEvAPzj3ZueF8pcxcuIbbB6YUHHw35itPDz8wCg9e6t1fmLnItLbqxQjtz4PQD87IWVPzcK8uPR1ru3uLlzq4uK/3LlmhQNDLPZjDPa58+fJwXb4XAoinLgwIHKykoA6O7uxkYC3yNWWADYtGkTAPzyl7/Ef91ut8/nk2U5GAzm5eWZzebdu3e73W56EPb1E5ZJrVio1cjICLlTURQyGKGlPF0NCurqsHHjRo7jkuahLMtNTU0HDx6sq6s7dOjQrl27hoeHDxw4QKKQcjv2u6f1cWBMKaSQUKitrZVlWT2kkkqsGYpWg0gJorTmlFhJ61fGIaNmVqu1ra1NkqTS0tJMK5WNqKuDTqfTChrLjPjo0WYwBEEQBKG1tRXL9K1bt7BJQKqqqqLRKFqooVDIaDRu2LAhEAignzfeY7FY0PQXRRFbEVEUSa7t2LHD5XLxPJ/2XDxKQ62y3M8+Pcjo3bJly9at+2ZxLcnDsZ8k8jnDXnI0GsW+u9ZwUXV1NQAYjUYASDh4qfWWMTQ/P3/79u2yLPM8HwgEiouL8fc0BNI1BIDbt2/jZGtLS0txcTHpG2kJpJQNdCV69dVXBUF455132traBEGw2+0mkykUCtntdlmWsTcvCEJzc3N1dTVxdk+o4YyuKZR0mQv0qxcW+G93Y6f85qhS+fwfvoDtA33tA314vW/lak9p2Yo87saIgr+vX6QDgLFrMLRikZmNOCounAGA1fmLAKDu32Nx0x03RpR/fdD3g0L9N2lZvJSfn4sGDJI/b95fdP72xoiyIo87W1VNJkBeLzHIj0f/orMNBdYsXvpvQw/puQEAq1atAoDy8nJFUfR6vcPhIEspTCZTLBY7fPgw9v7h21UW6vcIAC+99JIsy8Qs2bx5syzLWIkAwGq1knkJSlBJSYkkSWOVpMQKhUI7d+40Go1YiqxWK9GTojxF4Liqw8GDB8kNlDxsa2vDJjMvL08QhMbGRnWBJ+V27HO1Pg6MzCIIgsVimYkLZoxGI+6TgS5S0Wg0lVhaDSIliNKaa8Wi169sgOxTgi4YOH+l/uAwEvLyyy8DwNmzZ1O5eUZ89GgGBg6vklYtbnqL53me59XT1lhPDh06hH2pSCQy1gcDl62UlJQAAJrdlZWVs9I2mDh9fX3kur+/P/VRCqvV6na7Y7EY+WaR5b8J+eyzzwRBwM5QV1fX6dOnSZdI6y0jkiRhDyCu45uGQLqGFOgaJoX05oklYzAYSHMiiqIkSYWFhXQNZ3RNoaVrAQcAV5RB/DdugN9coH+jxFCWxwHAwnnPAYClUH/jThJ/J61Y0Qd9ZLpjLJ/KPasXFpytqr48NHB5ePCf7n1JrJRf3b9rKyreveLFIzd+b9MVA8A/3v2DVdOtDKEJEWeZGPK4M7095EeSNHo5PHv27NmzZ/H18Tz/4Ycfvvbaa8Te1ul077//viiKY4MQ7Na3trb+QQ2DIRwOk+qjLjmUIEEQtHo8lFiBQMDj8aBKkiTFmShaymsJTLs60PPw0KFDa9aswRl/1i7MdGpraxVF+eijjzKtyLjBTjxeo+2dSiytBpEeNF6B9PqVDRQUFKj/HRoaypQmMwir1Wqz2cLh8Gya4ps3kZO8o9Gouts0MDBAv5/n+SNHjgwPD6PnjE6nY0ZtiuTl5aV4p9VqxWVDau8Csvw3IYFA4NKlS5s2baqoqLDZbOoxRRj/W05PIF1DOmlomAbTqeF01pT00rUij/u7NVXDT56gzxL/3HxczJB2rBsjCsU4+fsvr3cODbyiX7J2YYGTL3EtWfZXXeLff3kdAE7eufm24XsvFRQBwEsFRWr/KDr5OQn2t6DnhvrTL8vyxYsXyRwUAPzud7/DG8YGIT/60Y9gzADVggULtB6XMIiMDqJPHU4IrFq1ikxwaQlsaWlpa2vD3gk6+4bD4VSUTygw7epAz0MAUJSUXh8jy+F53mazdXZ2zsTdaXHEh+d5v9//6NGjmZiEDBIKhXBwc//+/ei3gwv9M61X9lJTU7Nz587e3t4sdHOaCLQ1GNgNwgYMVA0bIstyYWHhuNqYyspKjuM++OADjOX1esnaqTjIQ+OI81FTIwjCbLL81PA8bzabiRs3/c5t27YNDw/v2bNnXN9EMlGLU7HEDyqNtzxFArVIReC4yoYkSeXl5SSiekJDi9laUwaefAUAFdwi/Ldm8VISZCnUczlz35cuoxPU7hUv2oqKx0owF+jJVEPqsRJCfKvQ2WmjfgkaGABwprfHU1q2ZelyQx73P+WeVKRJI8oPCvXonZWiAgAQiUTUa+l0Op26N6zO87ggZO3atZIkxc0Brlu3LqHzm1YQDqwSnzrE5XLhsmmKQPi2VgqC8O677yqKcvLkyaTK0wUmhF4d6HmIh+jh+kVcE5XiQxnZxo9//GOO4z7++ONMK5I+siy3t7fb7faE30ytb+9UQ69fWYIsy2QPCZ7nDQZDZ2dnZlXKTnBHHIfDkZ2rtCfIPMpJ3rg0x+l0Dg8Pj126eurUKZ/Pd/To0QsXLgwODi5atIjsrqUFVgz0RSkpKVm/fj3+i2sKcQlsfX09hqqDMLokSRaLpb6+fmRkJC8vj7yM8+fPOxyOhoYGHO4dHh4+duxY+lmSNXAcV1NTU1JSgptINDU14e9Wq5VMQeI98K2D8r59+wwGQywWe/PNN/EG3Cyf/iDMUrzG5RNkQ+403vJUCKRAF5iwbODqavQ7qqmpIeuqkXA47PF4mpubcZE3/PH2NQmZrTUl1HtHGlHcS5crT5/GLfJG2+OVoiUA8EIuhxMIrxQt6X6koBlwrv+ea8myv3lxPU5WDD99cuD65aSxtDgq/Iny9Cle43qML4b+MAv0q767ntKy/7KsHP7YP4rCiR7p50bhn//0P0bu30PJ8uNRXGpCQRRFs9m8Y8eOq1evmkwmi8VCJgGi0ajFYsHjKeKCEDwNQL2dDgB88sknPp/P7/e3t7djlbl37x66VmsFIURC3FY2FIGCINTW1hqNRrL5DCkwFOUpArWgVwdKHuL2uzh4XFJS8tZbb3V0dLDB46zF6/UWFxejaYrHukTIAAALwklEQVSLFtRlw+l0xmKxsR86eqxs4+TJk3a7/ac//SnZeJD+7R0vlNZcC3r9yhLOnTvncrnwk+JwODiOS9qMfjfx+/0cx0mSNDIyQo7HRX/pmVVTEpLkHIympiaPx+PxeLBBqqioIEFkCaDP5wMARVEaGhroD8M1fDabzWKxSJLU1NSEDUx/f78oiidOnMjNzbXb7aIo+v3+gwcPkiCizO7du8mWbWqxfr/f6XTiVHsqI/0zAoPBsHfvXtyjFt2j8XePx0PcQ/Ee+PaTlJubCwAmk0m9yDipgbFgwQLMVQDA7WJIvzONtzwVAinQBSYsG+rV1Xv37iXrqhFcMmWz2QRBkGX5+PHjqQyjztaa8tfd4rZl5duWl+M2tf9h4fP4e6j3TuvdW06+xFZULI0of90tVj6vsxUVy189RlMh1Hun6eY115JluGVtx8P+VGJpkZ8zF7eaBQDc+unA9csktH2gr+Nhf+XzutT9o3D24/USAxHbdPNa0ljvvffenj17nE4nnlWnXjlz+PDhPXv2oEMglvm4RTW4QdOnn36q/pGUDVJfiAVCCaJAiVVWVobbo4XD4ZMnT6q7RBTl01MjrjqoP0daeYizr2Rry7/92789cuTIvn374s4HmLlbws8+zGYzaYlw0YIoitgBijtcL8VYWYgoimh+o55Jv73jhdKaU6DUryzh2LFj+fn55JOSYjP6HQQHOg0Gg9oLGr+BM6umJGTOqj/beKezPfmNDAaDka3ggRj7rl6aZWeHzwLwCD/1STgTAXdUm+A56Iypprm5meM4PNKEMaVMbv1iMCYRmosUg8FgZDNbli5/pWiJkVtoyOPO3b/HrIssASf3AaC0tNRkMsmyHDd1k4ZAg8FQXl5uMBgkSWLWRTbD83xXV9escSXIQia9fjEYU8G8nJycTOvAYDAY6bB+ke4HhfpuZQgP9s60OoxvIJP7kiRFo1H1OfQTESiKYjAYnInbnn6nkGU5q06Vnn1Mev1iMKaCOeXWP7976TeZVoPBYDAYDAaDwWDMBnImcg4Gg5G1DA4OZloFBoPBYDAYjO8iOU+/3fyRwWAwGAwGg8FgMCZIDluDwWAwGAwGg8FgMCaLeV9//TX9DjzIifxLTnRiMCaXuro6cjwFfHvMHIPBYDAYDAZjZpHqNrXRaLS/vx8Auru7p04bPGI54wbMJKqhNs/izt6iBGU/dOWbm5sBYOvWreOSSbY1xMOGJ0NNBoPBYDAYDMZ0k+o2tZFIZBr6/XjEcsIHud3u1157jed5WZYvXrw4pd1xihrjpaOjo7GxEQDUs0BJg6YCnuf37Nmzbt06PED33LlzJA8FQdiyZcvatWt5nk/R1JkK5UOhEOZ5XV3dWAOjrq7OaDRu3boVbRs2v8FgMBgMBoORncyMBRg1NTU+n+/ixYuNjY0XL150OBxerzfTSqWELMuk35x60FSwb98+i8USCAQaGxvPnTvncDh27NiBQbW1tWazua+vL3Vp06y8mkWLFk3/QxkMBoPBYDAYKTIvvW1qiYdMLBb7/PPP3W43x3HhcHj//v14Q11dnc1m4zhOluVTp06pD15NGKT2v49EInhBRtMdDkc0Gj106JDX671+/Xo0Gl2/fj0R6Ha7N2/ebDAYUJ8TJ060tbXR1UAfnp6eHrvdDgBEc4oaE0lyeqgFnjlzpqWlJZWc1yI3N1cURRQSCoUcDkdFRQUGnT59Wp3AyaK+vj4uewFAEIRdu3YJgqAoSiAQcLvd6rmUhPA8X1lZWVpaynFcTU1NZWWlLMs1NTUZd6VjMBgMBoPBYIwlzZO80UPmjTfeyM3NNZvNLS0tq1evttvt7e3toVDI6/U6HA5RFLu6uqqqqnw+3+DgIHYHtYJOnz4di8Wqq6stFgv63oBqvYfJZDp+/DjpsIqiSDRxu90+n0+W5WAwmJeXZzabd+/e7Xa7Kc/CiHq9HgCCwaDRaLTb7ZIktbS0UNRIO8npgaZOMBiMxWImk8nj8QwNDQUCAboaFIE9PT1ms9ntdkcikS1btgDAhQsXMEidn5OFXq9/8OBBY2NjdXU1yV4A2LVrl8Fg8Pv9Q0NDGzdu5DguqajKykpi+agvmIHBYDAYDAaDkYXMe/LkSRrR0EPm1VdfFQThnXfeaWtrEwTBbrebTKZQKGS322VZxjW+giA0NzdXV1djd1ArSBRFURRNJhMAxHUc0R0/Eol4vd5oNHr48OGGhgYSunnzZlmWt2/fLssyAFit1qtXr2IQRQ0AyM/Px1g8zwcCgeLiYgCgqJF2ktOjqqoKJ21QE6PRuGHDhkAgQFEDNFZE4HKF/fv379ixw+v1+nw+RVGOHz8+8TkWCvn5+ahMKBSKRCKYvYIgCILQ2tqKxsatW7cOHjyYVBT6YjU3N3d1dR06dKi+vr6kpGS8K8gZDAaDwWAwGNPDvLlz505QBPojiaJI1t0aDIZoNIrXoihKklRYWJg0SIuysjIAkGWZ47hIJCLLcldXl9FoJALD4TBaF0SZVJ4lSRLGInGnKMnpwfM8z/PETQsSzTPEqcHzPJl1GYvX63W5XOFweGRkRKfTeb3eCc6x0JEkaeyP+CqJBah+WUkxGAxffPEFAJSUlPT09EyCigwGg8FgMBiMKSD5ORjZz4IFCzKtwpQQjUbVBsbAwAD9fpzcSBjE87zH41GvhTh69Ohbb701I7yMyOIQl8vlcrkAACdt2EZSDAaDwWAwGFnIlOwiJUlSeXk5XguCYDAYHjx4kDSIELdFKXaseZ5XFMXhcPA8T6YvUOC6det4nh+XGqkwrqMYUnmWTqfTij42SJblwsLCkIpxjffHsWrVKgAYGRkhvzx69Cg/Pz9tgWoo6YoDXyUqAwBWqzWVWGRL3NbW1sbGRkVRotEoZa6GwWAwGAwGg5FB5qUXDY+iwxW6NTU1AwMD6u5vOBz2eDzoNF9VVQWqHZkoQQBw/vx5h8PR0NBw8eJFABgeHj527BhKrqysbG9vt9vtgUBA7Sz0ySef+Hw+v9/f3t6OHeh79+6hiz/9WRQSqpF2khFJkiwWS319/cjISF5ennrTp4RBp06d8vl8R48evXDhwuDg4KJFiy5duiSKIl0NLdra2iRJstls9+7d6+npMZlMFouF+HR5vd7i4mK0E4xGY11dHcnDpFDSpaWG0+kcHh4eGhrasGFDKo+QZRktk7Nnz4qiuHfv3uk5lYXBYDAYDAaDkQZpukjhUXR4vXfvXlEU1d3clpaW4uJim80mCIIsy8ePHyfdQUoQALS1tfn9fqfTicLJ0c6SJFVXV+/du1eSpJ6enu7ubjJqjiuVN2/ejBtMAYDf70/lWRQSqpF2kpGmpqbdu3eTbVuTBpF0+Xw+AFAUBZe209Wg8P7772/btg23tVUUJRwOf/jhhxhkNpvJdA2uwyYb2iaFki6t+z0ej8fjwW1qcW16UgoKCmBqdrtiMBgMBoPBYEwuc8qtf3730m8od8Qdj9DY2Dj9g8e4F21ra+vJkydx36c0VmYzsg2v1+vxePx+Pxoz6kNI4NvNr9IGp30mqCGDwWAwGAwGY7wkn8Ho7u4OBoPqf6dWo0QEAoGVK1c6nU5c4yuKItuldIaC7lgAUFpaajKZZFn+9NNPMYhMWDEYDAaDwWAwZi5zjOZq+XcXM61GqtTU1ABAd3c385aZoTQ3N6M7liRJt2/fPnz48BRNRrEZDAaDwWAwGIyMMMMMDAYjRZiBwWAwGAwGg5ER5s2ZM0crLPf4lGxiy2BMA4t/UcAKMIPBYDAYDMb0w3pgDAaDwWAwGAwGY9LIyclhNgaDwWAwGAwGg8GYHJLvIvXsytdf/e0f7nlu15ycCk2vqonw9P/7+sk//+FBzL+FwWAwGAwGg8GYcaR60N7cH86ZowcAmFM4B/7Y6pj3n+fM/d/+yOT46tjXAPDcjvHZIXNWwrz/jMLh2b+lc/zfuPhahq8ffD2JxtKkC1Qz6ns2Np/Hy5RqyPguMCnlcEbDKhEhve88g8HIFOzzlSm+mzn//wN9JocgRK1ZPQAAAABJRU5ErkJggg==;" vertex="1" parent="1">
          <mxGeometry x="270" y="140" width="520" height="47" as="geometry" />
        </mxCell>
        <mxCell id="8VEX9xsHEz11RR5ykymF-6" value="旧服务器" style="rounded=0;whiteSpace=wrap;html=1;align=left;" vertex="1" parent="1">
          <mxGeometry x="130" y="542.5" width="280" height="345" as="geometry" />
        </mxCell>
        <mxCell id="8VEX9xsHEz11RR5ykymF-7" value="biz-sense-metro-default" style="rounded=0;whiteSpace=wrap;html=1;" vertex="1" parent="1">
          <mxGeometry x="210" y="585" width="150" height="45" as="geometry" />
        </mxCell>
        <mxCell id="8VEX9xsHEz11RR5ykymF-19" value="" style="edgeStyle=orthogonalEdgeStyle;rounded=0;orthogonalLoop=1;jettySize=auto;html=1;" edge="1" parent="1" source="8VEX9xsHEz11RR5ykymF-8" target="8VEX9xsHEz11RR5ykymF-9">
          <mxGeometry relative="1" as="geometry" />
        </mxCell>
        <mxCell id="8VEX9xsHEz11RR5ykymF-20" value="消费到kafka有数据，开始sync" style="edgeLabel;html=1;align=center;verticalAlign=middle;resizable=0;points=[];" vertex="1" connectable="0" parent="8VEX9xsHEz11RR5ykymF-19">
          <mxGeometry x="-0.1764" relative="1" as="geometry">
            <mxPoint as="offset" />
          </mxGeometry>
        </mxCell>
        <mxCell id="8VEX9xsHEz11RR5ykymF-8" value="kafka" style="rounded=0;whiteSpace=wrap;html=1;" vertex="1" parent="1">
          <mxGeometry x="210" y="700" width="150" height="30" as="geometry" />
        </mxCell>
        <mxCell id="8VEX9xsHEz11RR5ykymF-21" style="edgeStyle=orthogonalEdgeStyle;rounded=0;orthogonalLoop=1;jettySize=auto;html=1;entryX=0;entryY=0.5;entryDx=0;entryDy=0;" edge="1" parent="1" source="8VEX9xsHEz11RR5ykymF-9" target="8VEX9xsHEz11RR5ykymF-11">
          <mxGeometry relative="1" as="geometry" />
        </mxCell>
        <mxCell id="8VEX9xsHEz11RR5ykymF-22" value="register_with_image" style="edgeLabel;html=1;align=center;verticalAlign=middle;resizable=0;points=[];" vertex="1" connectable="0" parent="8VEX9xsHEz11RR5ykymF-21">
          <mxGeometry x="0.0221" y="3" relative="1" as="geometry">
            <mxPoint as="offset" />
          </mxGeometry>
        </mxCell>
        <mxCell id="8VEX9xsHEz11RR5ykymF-9" value="data-sync-pod" style="rounded=0;whiteSpace=wrap;html=1;" vertex="1" parent="1">
          <mxGeometry x="215" y="800" width="140" height="40" as="geometry" />
        </mxCell>
        <mxCell id="8VEX9xsHEz11RR5ykymF-10" value="新服务器" style="rounded=0;whiteSpace=wrap;html=1;align=left;" vertex="1" parent="1">
          <mxGeometry x="520" y="542.5" width="280" height="345" as="geometry" />
        </mxCell>
        <mxCell id="8VEX9xsHEz11RR5ykymF-11" value="biz-sense-metro-default" style="rounded=0;whiteSpace=wrap;html=1;" vertex="1" parent="1">
          <mxGeometry x="520" y="585" width="150" height="45" as="geometry" />
        </mxCell>
        <mxCell id="8VEX9xsHEz11RR5ykymF-12" value="kafka" style="rounded=0;whiteSpace=wrap;html=1;" vertex="1" parent="1">
          <mxGeometry x="600" y="700" width="150" height="30" as="geometry" />
        </mxCell>
        <mxCell id="8VEX9xsHEz11RR5ykymF-13" value="可以关闭data-sync-pod" style="rounded=0;whiteSpace=wrap;html=1;" vertex="1" parent="1">
          <mxGeometry x="600" y="800" width="140" height="40" as="geometry" />
        </mxCell>
        <mxCell id="8VEX9xsHEz11RR5ykymF-14" value="Actor" style="shape=umlActor;verticalLabelPosition=bottom;verticalAlign=top;html=1;outlineConnect=0;" vertex="1" parent="1">
          <mxGeometry y="680" width="30" height="60" as="geometry" />
        </mxCell>
        <mxCell id="8VEX9xsHEz11RR5ykymF-15" value="" style="endArrow=classic;html=1;rounded=0;exitX=1;exitY=0.3333333333333333;exitDx=0;exitDy=0;exitPerimeter=0;entryX=0;entryY=0.5;entryDx=0;entryDy=0;" edge="1" parent="1" source="8VEX9xsHEz11RR5ykymF-14" target="8VEX9xsHEz11RR5ykymF-7">
          <mxGeometry width="50" height="50" relative="1" as="geometry">
            <mxPoint x="440" y="700" as="sourcePoint" />
            <mxPoint x="490" y="650" as="targetPoint" />
          </mxGeometry>
        </mxCell>
        <mxCell id="8VEX9xsHEz11RR5ykymF-16" value="&lt;div style=&quot;color: rgb(255, 255, 255); background-color: rgb(0, 0, 0); font-family: Consolas, &amp;quot;Courier New&amp;quot;, monospace; font-size: 14px; line-height: 19px;&quot;&gt;register_with_image&lt;/div&gt;" style="edgeLabel;html=1;align=center;verticalAlign=middle;resizable=0;points=[];" vertex="1" connectable="0" parent="8VEX9xsHEz11RR5ykymF-15">
          <mxGeometry x="-0.134" relative="1" as="geometry">
            <mxPoint as="offset" />
          </mxGeometry>
        </mxCell>
        <mxCell id="8VEX9xsHEz11RR5ykymF-17" value="" style="endArrow=classic;html=1;rounded=0;exitX=0.442;exitY=0.966;exitDx=0;exitDy=0;exitPerimeter=0;" edge="1" parent="1" source="8VEX9xsHEz11RR5ykymF-7" target="8VEX9xsHEz11RR5ykymF-8">
          <mxGeometry width="50" height="50" relative="1" as="geometry">
            <mxPoint x="440" y="700" as="sourcePoint" />
            <mxPoint x="490" y="650" as="targetPoint" />
          </mxGeometry>
        </mxCell>
        <mxCell id="8VEX9xsHEz11RR5ykymF-18" value="开了sync，写入到kafka" style="edgeLabel;html=1;align=center;verticalAlign=middle;resizable=0;points=[];" vertex="1" connectable="0" parent="8VEX9xsHEz11RR5ykymF-17">
          <mxGeometry x="-0.0144" y="1" relative="1" as="geometry">
            <mxPoint as="offset" />
          </mxGeometry>
        </mxCell>
      </root>
    </mxGraphModel>
  </diagram>
</mxfile>
